<svg width="" height="" viewBox="0 0 534 466" fill="none" xmlns="http://www.w3.org/2000/svg">
<g clip-path="url(#clip0)">
<path d="M286.181 431.054C152.079 420.535 -7.84325 313.436 0.298641 203.16C8.44053 92.8834 163.327 -9.77451 297.429 0.74416C431.53 11.2628 508.724 217.35 500.582 327.627C492.44 437.903 420.282 441.572 286.181 431.054Z" fill="#F2F2F2"/>
<path d="M255.174 40.4902H0.689026V311.917H255.174V40.4902Z" fill="#488744"/>
<path d="M174.648 150.143C180.185 160.684 182.213 172.808 180.42 184.652C178.627 196.497 173.111 207.407 164.721 215.708C156.33 224.009 145.528 229.243 133.973 230.605C122.418 231.967 110.749 229.382 100.757 223.248C90.7644 217.113 83.0018 207.768 78.6605 196.646C74.3193 185.525 73.6394 173.243 76.7251 161.685C79.8109 150.127 86.4918 139.932 95.7421 132.666C104.992 125.4 116.301 121.464 127.931 121.462C128.353 121.462 128.773 121.468 129.192 121.478L128.63 98.0919C128.397 98.0897 128.165 98.0828 127.931 98.0828C111.198 98.0877 94.9361 103.802 81.6845 114.335C68.4329 124.867 58.9368 139.624 54.6779 156.304C50.419 172.984 51.637 190.648 58.1418 206.54C64.6467 222.431 76.0724 235.656 90.6359 244.15C105.199 252.645 122.082 255.932 138.648 253.497C155.214 251.063 170.532 243.044 182.213 230.693C193.893 218.342 201.277 202.352 203.214 185.221C205.151 168.089 201.531 150.778 192.919 135.989L174.648 150.143Z" fill="white"/>
<path opacity="0.3" d="M174.648 150.143L192.919 135.989C186.247 124.529 176.831 115.025 165.575 108.39C154.318 101.754 141.597 98.2085 128.63 98.092L129.192 121.479C138.547 121.704 147.678 124.475 155.66 129.508C163.643 134.542 170.193 141.66 174.648 150.143Z" fill="#48FFE6"/>
<path d="M166.043 243.739L192.659 271.431" stroke="#2F2E41" stroke-width="2" stroke-miterlimit="10"/>
<path d="M184.174 74.0803L165.676 108.079" stroke="#2F2E41" stroke-width="2" stroke-miterlimit="10"/>
<path d="M214.788 271.431H171.083V281.695H214.788V271.431Z" fill="#F2F2F2"/>
<path d="M204.83 63.8694H161.125V74.1334H204.83V63.8694Z" fill="#F2F2F2"/>
<path d="M534 38.2094H279.516V147.692H534V38.2094Z" fill="#488744"/>
<path d="M382.322 122.602H353.554C351.591 110.905 351.591 98.9463 353.554 87.2485H382.322C379.081 98.7964 379.081 111.055 382.322 122.602Z" fill="#FF6584"/>
<path d="M462.723 122.602H433.955C431.992 110.905 431.992 98.9463 433.955 87.2485H462.723C459.482 98.7964 459.482 111.055 462.723 122.602Z" fill="white" fill-opacity="0.6"/>
<path d="M341.477 98.6532H312.709C310.746 86.9554 310.746 74.9971 312.709 63.2993H341.477C338.236 74.8472 338.236 87.1053 341.477 98.6532Z" fill="white"/>
<path d="M392.927 98.6532H421.695C423.658 86.9554 423.658 74.9971 421.695 63.2993H392.927C396.168 74.8472 396.168 87.1053 392.927 98.6532Z" fill="white"/>
<path d="M472.039 98.6532H500.806C502.77 86.9554 502.77 74.9971 500.806 63.2993H472.039C475.28 74.8472 475.28 87.1053 472.039 98.6532Z" fill="white"/>
<path d="M485.316 432.234C485.316 443.605 433.768 466 370.521 466C307.275 466 256.28 443.605 256.28 432.234C256.28 420.863 307.275 424.821 370.521 424.821C433.768 424.821 485.316 420.863 485.316 432.234Z" fill="#3F3D56"/>
<path opacity="0.1" d="M485.316 432.234C485.316 443.605 433.768 466 370.521 466C307.275 466 256.28 443.605 256.28 432.234C256.28 420.863 307.275 424.821 370.521 424.821C433.768 424.821 485.316 420.863 485.316 432.234Z" fill="black"/>
<path d="M370.521 452.885C433.768 452.885 485.039 443.667 485.039 432.296C485.039 420.924 433.768 411.706 370.521 411.706C307.275 411.706 256.003 420.924 256.003 432.296C256.003 443.667 307.275 452.885 370.521 452.885Z" fill="#3F3D56"/>
<path opacity="0.1" d="M370.521 448.409C420.019 448.409 460.144 441.195 460.144 432.295C460.144 423.396 420.019 416.182 370.521 416.182C321.024 416.182 280.899 423.396 280.899 432.295C280.899 441.195 321.024 448.409 370.521 448.409Z" fill="black"/>
<path d="M330.966 310.206H302.198C300.235 298.508 300.235 286.55 302.198 274.852H330.966C327.725 286.4 327.725 298.658 330.966 310.206Z" fill="#48FFE6"/>
<path d="M421.981 131.183L425.937 133.222C425.937 133.222 447.365 188.609 440.113 201.861C432.86 215.113 410.113 239.918 410.113 239.918L405.827 227.346L423.355 188.178L421.981 131.183Z" fill="#575A89"/>
<path opacity="0.1" d="M421.981 131.183L425.937 133.222C425.937 133.222 447.365 188.609 440.113 201.861C432.86 215.113 410.113 239.918 410.113 239.918L405.827 227.346L423.355 188.178L421.981 131.183Z" fill="black"/>
<path d="M417.695 408.118C417.695 408.118 423.299 421.37 420.332 422.389C417.365 423.409 413.739 423.409 410.113 423.409C406.486 423.409 402.2 422.05 401.541 420.69C400.882 419.331 404.179 410.497 404.179 410.497L417.695 408.118Z" fill="#F2F2F2"/>
<path d="M342.201 414.914C342.201 414.914 345.827 426.807 344.179 427.486C342.53 428.166 337.256 431.224 334.289 430.205C331.322 429.185 326.706 426.807 325.717 425.787C324.728 424.768 325.717 419.331 325.717 419.331L330.333 412.535L342.201 414.914Z" fill="#F2F2F2"/>
<path d="M407.146 238.219L411.871 239.918C411.871 239.918 413.08 251.471 411.761 255.549C410.442 259.626 407.475 289.189 409.124 295.305C410.772 301.421 409.783 311.275 409.783 311.275C409.783 311.275 419.673 344.576 417.695 351.711C415.717 358.847 416.047 369.041 418.025 374.138C420.003 379.235 421.651 381.274 420.662 385.351C419.673 389.429 417.695 391.468 419.673 394.866C421.651 398.264 425.607 399.283 423.629 402.341C421.651 405.399 419.673 407.778 420.332 409.817C420.992 411.856 402.86 415.593 401.212 412.535C401.212 412.535 406.486 407.778 401.212 405.06C395.937 402.341 397.585 392.147 397.585 392.147C397.585 392.147 388.354 353.071 388.684 350.012C389.014 346.954 374.179 299.383 374.179 299.383C374.179 299.383 352.42 367.342 351.102 370.4C349.783 373.458 352.75 380.934 351.102 382.973C349.453 385.012 351.761 390.109 349.453 392.147C347.146 394.186 353.409 401.662 349.453 404.38C345.497 407.098 343.519 415.593 343.849 417.292C344.179 418.991 327.366 416.953 327.366 414.574C327.366 412.195 327.695 410.157 326.047 406.079C324.399 402.001 323.41 399.283 324.728 397.924C326.047 396.565 327.036 394.866 325.717 390.109C324.399 385.351 327.695 370.74 326.706 368.022C325.717 365.303 326.047 346.954 326.047 346.954C326.047 346.954 329.344 320.11 328.355 315.693C327.366 311.275 328.355 310.256 328.684 308.557C329.014 306.858 330.992 288.509 332.311 285.791C333.629 283.072 335.278 236.52 342.86 234.141C350.442 231.763 407.146 238.219 407.146 238.219Z" fill="#2F2E41"/>
<path d="M409.783 420.351C409.783 420.351 421.651 418.312 422.31 420.351C422.97 422.389 424.948 438.36 420.332 438.7C415.717 439.039 407.805 440.059 406.486 437.001C405.168 433.943 398.904 431.904 398.904 431.904C398.904 431.904 389.673 429.185 389.673 426.127C389.673 423.069 390.003 418.312 391.651 417.972C393.299 417.632 399.893 413.895 399.893 412.535C399.893 411.176 409.783 420.351 409.783 420.351Z" fill="#2F2E41"/>
<path d="M335.607 425.787C335.607 425.787 344.179 423.069 346.157 424.768C348.135 426.467 350.772 445.156 346.157 444.816C341.541 444.476 329.344 446.515 328.684 443.797C328.025 441.078 319.124 440.399 319.124 440.399C319.124 440.399 309.563 435.641 310.223 430.545C310.882 425.448 311.871 423.749 315.827 423.409C319.783 423.069 322.75 418.312 323.08 417.972C323.41 417.632 326.316 415.148 326.676 417.919C327.036 420.69 331.322 426.807 335.607 425.787Z" fill="#2F2E41"/>
<path d="M362.64 96.5236C373.747 96.5236 382.75 87.2436 382.75 75.796C382.75 64.3484 373.747 55.0684 362.64 55.0684C351.534 55.0684 342.53 64.3484 342.53 75.796C342.53 87.2436 351.534 96.5236 362.64 96.5236Z" fill="#FFB9B9"/>
<path d="M380.113 80.5532C380.113 80.5532 381.431 103.32 386.376 105.358C391.321 107.397 361.321 107.397 361.321 107.397C361.321 107.397 360.992 93.1257 356.706 89.7278C352.42 86.3298 380.113 80.5532 380.113 80.5532Z" fill="#FFB9B9"/>
<path d="M388.025 100.261C388.025 100.261 367.585 92.4461 360.333 104.679C360.333 104.679 337.256 115.892 335.607 122.688C333.959 129.484 349.453 180.454 349.453 180.454C349.453 180.454 349.454 222.589 346.157 227.006C342.86 231.423 336.596 236.18 340.882 237.2C345.168 238.219 412.42 245.695 412.091 241.277C411.761 236.86 407.475 233.122 412.091 230.404C416.706 227.686 412.75 224.627 415.717 215.793C418.684 206.958 425.937 133.901 425.937 133.901C425.937 133.901 420.992 124.727 420.003 123.707C419.014 122.688 388.025 100.261 388.025 100.261Z" fill="#575A89"/>
<path d="M329.014 249.093C329.014 249.093 316.157 278.995 327.366 283.073C338.574 287.15 337.915 251.471 337.915 251.471L329.014 249.093Z" fill="#FFB9B9"/>
<path d="M372.286 79.6508C371.121 77.2434 369.376 74.4661 366.769 74.6127C365.451 74.6868 364.315 75.5321 363.14 76.1526C361.965 76.7731 360.46 77.1577 359.386 76.367C357.815 75.2103 358.302 72.4668 356.897 71.1022C355.363 69.6125 352.277 70.4442 351.288 68.5263C350.759 67.5021 351.186 66.2315 350.955 65.0961C349.35 65.1272 347.693 65.149 346.204 64.5272C344.716 63.9053 343.427 62.4645 343.469 60.8097C343.513 60.246 343.666 59.697 343.919 59.1951C344.172 58.6931 344.52 58.2482 344.942 57.8864C346.968 55.9871 349.9 55.6229 352.4 54.471C354.391 53.5543 356.121 52.1256 358.077 51.134C361.443 49.4274 365.327 49.0964 369.068 49.3911C374.74 49.8378 380.475 51.7779 384.588 55.8282C388.701 59.8784 390.878 66.2682 389.104 71.839C388.099 74.9957 385.969 77.649 384.78 80.7371C384.052 82.8504 383.546 85.0387 383.274 87.2638L382.439 92.5415C382.569 91.7201 380.819 89.6599 380.245 89.1697C378.994 88.1005 377.173 88.4633 376.011 87.4728C374.292 86.0079 373.298 81.7394 372.286 79.6508Z" fill="#2F2E41"/>
<path opacity="0.1" d="M343.19 120.31L337.915 123.707C337.915 123.707 329.344 177.056 330.333 184.531C331.322 192.007 326.377 234.142 328.025 237.54C329.673 240.938 330.333 241.617 330.333 243.656C330.333 245.695 325.717 253.17 328.684 254.529C331.651 255.889 342.53 258.267 342.53 254.529C342.53 250.792 340.552 245.695 344.179 243.316C347.805 240.938 350.442 225.647 350.442 225.647C350.442 225.647 352.091 210.016 353.739 206.958C355.387 203.9 357.695 192.686 357.695 187.929C357.695 183.172 361.651 163.804 359.344 153.949C357.036 144.095 356.377 117.591 343.19 120.31Z" fill="black"/>
<path d="M340.882 119.29L335.607 122.688C335.607 122.688 327.036 176.036 328.025 183.512C329.014 190.987 324.069 233.122 325.717 236.52C327.366 239.918 328.025 240.598 328.025 242.636C328.025 244.675 323.41 252.151 326.377 253.51C329.344 254.869 340.223 257.248 340.223 253.51C340.223 249.772 338.245 244.675 341.871 242.297C345.497 239.918 348.135 224.627 348.135 224.627C348.135 224.627 349.783 208.997 351.431 205.938C353.08 202.88 355.387 191.667 355.387 186.91C355.387 182.153 359.343 162.784 357.036 152.93C354.728 143.076 354.069 116.572 340.882 119.29Z" fill="#575A89"/>
</g>
<defs>
<clipPath id="clip0">
<rect width="534" height="466" fill="white"/>
</clipPath>
</defs>
</svg>
