<svg width="2050" height="811" viewBox="0 0 2050 811" fill="none" xmlns="http://www.w3.org/2000/svg">
<rect width="2050" height="811" fill="white"/>
<path d="M684 148.622L657.727 107L604.991 107.642L573 149.137L573.646 149.69H573.416V236H683.929V149.69L684 148.622Z" fill="#3F3D56"/>
<path d="M657.824 107L625 158.278V236H684V148.524L657.824 107Z" fill="#3F3D56"/>
<path d="M660 193H648V207H660V193Z" fill="white"/>
<path d="M757 168H745V182H757V168Z" fill="white"/>
<path d="M607 189H595V204H607V189Z" fill="white"/>
<path d="M607 165H595V179H607V165Z" fill="white"/>
<path d="M753 236H563V237H753V236Z" fill="#3F3D56"/>
<path d="M724.2 226.32L725 232.72L721 234L721.6 226L724.2 226.32Z" fill="#A0616A"/>
<path d="M739 225.5L737.793 233H732L734.414 224L739 225.5Z" fill="#A0616A"/>
<path d="M743.122 172.341L744 180.596L742.902 198.633L742.024 205.358L738.292 227.37C738.292 227.37 734.121 227.37 733.462 224.924L734.56 212.39C734.56 212.39 735.438 202.301 735.219 201.078C734.999 199.855 731.706 180.29 731.706 180.29C731.706 180.29 726.877 211.167 726.218 213.918C725.559 216.67 724.681 228.592 724.681 228.592C724.681 228.592 720.949 229.51 720.73 228.592C720.51 227.675 720.291 205.97 720.291 202.607C720.291 199.244 720.73 197.41 720.73 196.798C720.73 196.187 719 167 719 167L743.122 172.341Z" fill="#2F2E41"/>
<path d="M734.628 231.036C734.628 231.036 735.73 231.339 736.391 231.036C737.053 230.732 736.391 228.911 736.391 228.911H738.816C738.816 228.911 741.46 237.107 742.562 237.714C743.664 238.321 747.191 245 743.003 245C740.419 244.954 737.898 243.902 735.73 241.964C735.73 241.964 735.289 239.232 733.306 238.929C731.322 238.625 730 235.286 730 235.286L732.865 228C732.865 228 733.526 231.339 734.628 231.036Z" fill="#2F2E41"/>
<path d="M723.515 231.307C723.515 231.307 723.063 232.46 722.611 231.883C722.159 231.307 721.707 229.865 721.707 229.865C721.707 229.865 720.352 229 720.126 229.865C719.9 230.73 718.996 235.343 718.544 235.92C718.092 236.496 713.348 242.551 718.092 243.705C722.837 244.858 723.741 242.263 723.741 242.263C723.741 242.263 723.063 240.821 724.418 240.245C725.774 239.668 726 237.65 726 237.65L725.096 229C725.096 229 724.193 231.883 723.515 231.307Z" fill="#2F2E41"/>
<path d="M748.208 151L748.883 167.091C748.883 167.091 752.031 177.303 747.758 176.993C743.485 176.684 746.184 166.782 746.184 166.782L742 152.421L748.208 151Z" fill="#A0616A"/>
<path d="M713.792 147L713.117 162.472C713.117 162.472 709.969 172.291 714.242 171.993C718.515 171.696 715.816 162.175 715.816 162.175L720 148.366L713.792 147Z" fill="#A0616A"/>
<path d="M732 113C735.314 113 738 109.418 738 105C738 100.582 735.314 97 732 97C728.686 97 726 100.582 726 105C726 109.418 728.686 113 732 113Z" fill="#A0616A"/>
<path d="M736.806 108C736.806 108 735.131 116.205 738.48 118.257C741.828 120.308 727.957 123.238 727 118.257L727.478 115.912C727.478 115.912 729.392 112.982 728.913 110.344L736.806 108Z" fill="#A0616A"/>
<path d="M733.386 118.923C733.386 118.923 729.459 119.409 728.237 116C728.237 116 719.048 116.812 717 127.967L720.414 156.911C720.414 156.911 716.772 165.352 717.228 166.257C717.228 166.257 714.952 174.699 735.89 175L744.993 174.397C745.116 172.683 745.04 170.955 744.766 169.272C744.311 166.558 741.807 147.564 741.807 147.564C741.807 147.564 748.635 133.394 747.952 131.284C747.269 129.173 746.176 120.852 737.391 117.475C737.391 117.475 737.255 119.224 733.386 118.923Z" fill="#E6E6E6"/>
<path d="M745.012 126L747.86 131.153C747.86 131.153 750.709 152.675 749.832 152.978C748.956 153.281 743.697 155.707 742.821 154.797C741.944 153.888 738 136.003 738 136.003L745.012 126Z" fill="#E6E6E6"/>
<path d="M720.438 124L716.48 127.339C716.48 127.339 710.658 148.588 712.288 149.498C713.918 150.409 723 149.802 723 149.802L720.438 124Z" fill="#E6E6E6"/>
<path d="M738.801 97.6816C738.801 97.6816 736.677 91.8573 732.608 93.2014C728.538 94.5455 726.238 96.5616 726.061 98.5777C725.884 100.594 726.149 103.618 726.149 103.618C726.149 103.618 726.592 99.4737 729.423 100.37C730.929 100.846 732.885 100.879 734.386 100.806C734.681 100.79 734.975 100.851 735.25 100.984C735.525 101.118 735.776 101.32 735.987 101.581C736.198 101.841 736.365 102.152 736.478 102.497C736.591 102.841 736.647 103.211 736.643 103.584L736.569 110C736.569 110 742.463 105.224 738.801 97.6816Z" fill="#2F2E41"/>
<path d="M710.518 100H630.482C630.089 99.9994 629.712 99.7908 629.435 99.42C629.157 99.0492 629 98.5464 629 98.022V48.978C629 48.4536 629.157 47.9508 629.435 47.58C629.712 47.2092 630.089 47.0006 630.482 47H710.518C710.911 47.0006 711.288 47.2092 711.565 47.58C711.843 47.9508 712 48.4536 712 48.978V98.022C712 98.5464 711.843 99.0492 711.565 99.42C711.288 99.7908 710.911 99.9994 710.518 100V100ZM630.482 47.7912C630.246 47.7915 630.02 47.9167 629.854 48.1392C629.687 48.3617 629.593 48.6633 629.593 48.978V98.022C629.593 98.3367 629.687 98.6383 629.854 98.8608C630.02 99.0833 630.246 99.2085 630.482 99.2088H710.518C710.754 99.2085 710.98 99.0833 711.146 98.8608C711.313 98.6383 711.407 98.3367 711.407 98.022V48.978C711.407 48.6633 711.313 48.3617 711.146 48.1392C710.98 47.9167 710.754 47.7915 710.518 47.7912H630.482Z" fill="#E6E6E6"/>
<path d="M643 72C646.314 72 649 68.4183 649 64C649 59.5817 646.314 56 643 56C639.686 56 637 59.5817 637 64C637 68.4183 639.686 72 643 72Z" fill="#6C63FF"/>
<path d="M656.999 59C656.868 58.9997 656.738 59.0383 656.617 59.1135C656.495 59.1888 656.385 59.2992 656.293 59.4385C656.2 59.5779 656.126 59.7433 656.076 59.9255C656.026 60.1076 656 60.3028 656 60.5C656 60.6972 656.026 60.8924 656.076 61.0745C656.126 61.2567 656.2 61.4221 656.293 61.5615C656.385 61.7008 656.495 61.8112 656.617 61.8865C656.738 61.9617 656.868 62.0003 656.999 62H704.003C704.267 62 704.521 61.842 704.708 61.5607C704.895 61.2794 705 60.8978 705 60.5C705 60.1022 704.895 59.7206 704.708 59.4393C704.521 59.158 704.267 59 704.003 59H656.999Z" fill="#E6E6E6"/>
<path d="M656.989 67C656.859 66.9997 656.73 67.0383 656.61 67.1135C656.49 67.1888 656.381 67.2992 656.29 67.4385C656.198 67.5779 656.125 67.7433 656.075 67.9255C656.026 68.1076 656 68.3028 656 68.5C656 68.6972 656.026 68.8924 656.075 69.0745C656.125 69.2567 656.198 69.4221 656.29 69.5615C656.381 69.7008 656.49 69.8112 656.61 69.8865C656.73 69.9617 656.859 70.0003 656.989 70H677.011C677.141 70.0003 677.27 69.9617 677.39 69.8865C677.51 69.8112 677.619 69.7008 677.71 69.5615C677.802 69.4221 677.875 69.2567 677.925 69.0745C677.974 68.8924 678 68.6972 678 68.5C678 68.3028 677.974 68.1076 677.925 67.9255C677.875 67.7433 677.802 67.5779 677.71 67.4385C677.619 67.2992 677.51 67.1888 677.39 67.1135C677.27 67.0383 677.141 66.9997 677.011 67H656.989Z" fill="#E6E6E6"/>
<path d="M638.384 80C637.621 80 637 80.673 637 81.5C637 82.327 637.621 83 638.384 83H703.616C704.379 83 705 82.327 705 81.5C705 80.673 704.379 80 703.616 80H638.384Z" fill="#E6E6E6"/>
<path d="M638.384 88C637.621 88 637 88.673 637 89.5C637 90.327 637.621 91 638.384 91H703.616C704.379 91 705 90.327 705 89.5C705 88.673 704.379 88 703.616 88H638.384Z" fill="#E6E6E6"/>
<path d="M493.5 28C499.299 28 504 21.732 504 14C504 6.26801 499.299 0 493.5 0C487.701 0 483 6.26801 483 14C483 21.732 487.701 28 493.5 28Z" fill="#6C63FF"/>
<path d="M696 53L692.5 45.5L689 38H696H703L699.5 45.5L696 53Z" fill="#6C63FF"/>
<path d="M494 19C496.209 19 498 16.7614 498 14C498 11.2386 496.209 9 494 9C491.791 9 490 11.2386 490 14C490 16.7614 491.791 19 494 19Z" fill="white"/>
<path d="M737 106C737.552 106 738 105.328 738 104.5C738 103.672 737.552 103 737 103C736.448 103 736 103.672 736 104.5C736 105.328 736.448 106 737 106Z" fill="#A0616A"/>
<path d="M541.117 511.734C315.579 465.888 56.6837 353.155 82.1889 287.834C107.694 222.512 380.415 204.969 605.954 250.815C831.492 296.661 940.017 445.878 914.512 511.199C889.006 576.521 766.655 557.58 541.117 511.734Z" fill="#F2F2F2"/>
</svg>
