<svg width="1200" height="650" viewBox="0 0 1200 650" fill="none" xmlns="http://www.w3.org/2000/svg">
<path d="M0 0H1200V650H0V0Z" fill="#F6F6F6"/>
<g opacity="0.1">
<path opacity="0.1" d="M270.463 331.306C273.353 331.306 275.696 326.93 275.696 321.532C275.696 316.134 273.353 311.759 270.463 311.759C267.573 311.759 265.23 316.134 265.23 321.532C265.23 326.93 267.573 331.306 270.463 331.306Z" fill="#3F3D56"/>
<path opacity="0.1" d="M274.606 279.715C275.336 277.897 275.714 275.835 275.701 273.74C275.701 268.341 273.356 263.966 270.463 263.966C267.571 263.966 265.212 268.354 265.212 273.753C265.198 275.848 265.576 277.91 266.306 279.729C265.589 281.553 265.212 283.609 265.212 285.701C265.212 287.793 265.589 289.849 266.306 291.673C265.589 293.498 265.212 295.554 265.212 297.646C265.212 299.737 265.589 301.794 266.306 303.618C265.575 305.436 265.197 307.498 265.212 309.594C265.212 314.986 267.557 319.368 270.445 319.368C273.333 319.368 275.682 314.986 275.682 309.594C275.697 307.498 275.319 305.436 274.588 303.618C275.305 301.794 275.682 299.737 275.682 297.646C275.682 295.554 275.305 293.498 274.588 291.673C275.305 289.849 275.682 287.793 275.682 285.701C275.682 283.609 275.305 281.553 274.588 279.729L274.606 279.715Z" fill="#3F3D56"/>
<path opacity="0.1" d="M270.463 271.582C273.353 271.582 275.696 267.206 275.696 261.808C275.696 256.41 273.353 252.034 270.463 252.034C267.573 252.034 265.23 256.41 265.23 261.808C265.23 267.206 267.573 271.582 270.463 271.582Z" fill="#3F3D56"/>
<path opacity="0.1" d="M270.463 259.637C273.353 259.637 275.696 255.261 275.696 249.863C275.696 244.465 273.353 240.09 270.463 240.09C267.573 240.09 265.23 244.465 265.23 249.863C265.23 255.261 267.573 259.637 270.463 259.637Z" fill="#3F3D56"/>
<path opacity="0.1" d="M250.873 168.112C250.156 166.816 249.505 165.448 248.924 164.019L262.673 160.798L247.802 160.956C246.378 156.526 245.603 151.727 245.524 146.855C245.445 141.983 246.063 137.139 247.342 132.619L267.295 147.384L248.901 128.086C250.611 123.798 252.924 120.061 255.696 117.109C258.467 114.158 261.637 112.056 265.005 110.937C268.373 109.817 271.868 109.703 275.269 110.602C278.669 111.502 281.903 113.395 284.766 116.163C287.629 118.931 290.059 122.514 291.905 126.686C293.75 130.859 294.971 135.531 295.489 140.409C296.008 145.286 295.813 150.264 294.918 155.03C294.023 159.795 292.446 164.245 290.287 168.099C291.402 170.12 292.361 172.306 293.148 174.619L275.292 187.883L294.325 178.771C295.663 184.407 295.994 190.43 295.288 196.295C294.582 202.159 292.862 207.679 290.283 212.356C293.192 217.631 295.002 223.967 295.505 230.64C296.009 237.313 295.186 244.054 293.13 250.091C291.075 256.128 287.87 261.219 283.882 264.78C279.893 268.341 275.283 270.23 270.578 270.23C265.873 270.23 261.263 268.341 257.275 264.78C253.287 261.219 250.081 256.128 248.026 250.091C245.97 244.054 245.147 237.313 245.651 230.64C246.154 223.967 247.964 217.631 250.873 212.356C247.397 206.052 245.507 198.265 245.507 190.244C245.507 182.223 247.397 174.436 250.873 168.132V168.112Z" fill="#6C63FF"/>
<path opacity="0.1" d="M295.65 190.224C295.659 198.247 293.768 206.039 290.283 212.336C293.192 217.611 295.002 223.948 295.506 230.621C296.009 237.294 295.186 244.034 293.131 250.071C291.075 256.109 287.87 261.199 283.882 264.76C279.894 268.322 275.283 270.21 270.578 270.21C265.873 270.21 261.263 268.322 257.275 264.76C253.287 261.199 250.082 256.109 248.026 250.071C245.971 244.034 245.148 237.294 245.651 230.621C246.155 223.948 247.964 217.611 250.874 212.336C247.512 206.249 295.65 186.21 295.65 190.224Z" fill="black"/>
</g>
<g opacity="0.1">
<path opacity="0.1" d="M331.56 307.934C333.721 307.934 335.473 304.666 335.473 300.634C335.473 296.602 333.721 293.333 331.56 293.333C329.398 293.333 327.646 296.602 327.646 300.634C327.646 304.666 329.398 307.934 331.56 307.934Z" fill="#3F3D56"/>
<path opacity="0.1" d="M334.65 269.391C335.194 268.034 335.475 266.494 335.464 264.931C335.464 260.896 333.712 257.623 331.555 257.623C329.398 257.623 327.641 260.903 327.641 264.931C327.63 266.495 327.912 268.035 328.46 269.391C327.923 270.754 327.642 272.291 327.642 273.855C327.642 275.418 327.923 276.955 328.46 278.318C327.923 279.682 327.642 281.219 327.642 282.782C327.642 284.346 327.923 285.883 328.46 287.246C327.912 288.602 327.63 290.142 327.641 291.706C327.641 295.74 329.394 299.014 331.555 299.014C333.716 299.014 335.464 295.734 335.464 291.706C335.475 290.143 335.194 288.603 334.65 287.246C335.182 285.881 335.461 284.344 335.461 282.782C335.461 281.22 335.182 279.684 334.65 278.318C335.182 276.953 335.461 275.417 335.461 273.855C335.461 272.293 335.182 270.756 334.65 269.391V269.391Z" fill="#3F3D56"/>
<path opacity="0.1" d="M331.56 263.304C333.721 263.304 335.473 260.035 335.473 256.003C335.473 251.971 333.721 248.702 331.56 248.702C329.398 248.702 327.646 251.971 327.646 256.003C327.646 260.035 329.398 263.304 331.56 263.304Z" fill="#3F3D56"/>
<path opacity="0.1" d="M331.56 254.376C333.721 254.376 335.473 251.108 335.473 247.076C335.473 243.044 333.721 239.775 331.56 239.775C329.398 239.775 327.646 243.044 327.646 247.076C327.646 251.108 329.398 254.376 331.56 254.376Z" fill="#3F3D56"/>
<path opacity="0.1" d="M316.918 185.987C316.381 185.02 315.894 183.998 315.46 182.93L325.738 180.523L314.623 180.641C313.557 177.331 312.975 173.745 312.913 170.104C312.852 166.462 313.311 162.84 314.264 159.46L329.177 170.5L315.423 156.069C316.71 152.887 318.442 150.116 320.512 147.932C322.583 145.747 324.946 144.194 327.456 143.37C329.966 142.547 332.568 142.47 335.1 143.145C337.631 143.819 340.038 145.231 342.17 147.292C344.302 149.353 346.113 152.019 347.491 155.122C348.868 158.226 349.782 161.702 350.176 165.332C350.57 168.963 350.435 172.67 349.78 176.223C349.124 179.775 347.962 183.097 346.367 185.981C347.199 187.492 347.916 189.126 348.505 190.854L335.169 200.739L349.393 193.931C350.392 198.142 350.639 202.643 350.111 207.025C349.584 211.407 348.298 215.532 346.371 219.027C348.548 222.968 349.903 227.703 350.282 232.691C350.66 237.679 350.047 242.718 348.511 247.232C346.976 251.745 344.581 255.551 341.6 258.214C338.619 260.877 335.173 262.29 331.656 262.29C328.139 262.29 324.693 260.877 321.712 258.214C318.731 255.551 316.336 251.745 314.801 247.232C313.265 242.718 312.652 237.679 313.03 232.691C313.409 227.703 314.764 222.968 316.941 219.027C314.343 214.317 312.93 208.497 312.93 202.504C312.93 196.51 314.343 190.691 316.941 185.981L316.918 185.987Z" fill="#6C63FF"/>
<path opacity="0.1" d="M350.378 202.51C350.384 208.505 348.971 214.327 346.368 219.034C348.545 222.974 349.9 227.709 350.278 232.697C350.657 237.685 350.043 242.724 348.508 247.238C346.973 251.752 344.578 255.558 341.597 258.221C338.616 260.884 335.17 262.296 331.653 262.296C328.136 262.296 324.689 260.884 321.709 258.221C318.728 255.558 316.333 251.752 314.797 247.238C313.262 242.724 312.649 237.685 313.027 232.697C313.405 227.709 314.761 222.974 316.937 219.034C314.417 214.488 350.378 199.513 350.378 202.51Z" fill="black"/>
</g>
<g opacity="0.1">
<path opacity="0.1" d="M527.595 305.068C530.485 305.068 532.828 300.692 532.828 295.294C532.828 289.896 530.485 285.521 527.595 285.521C524.705 285.521 522.362 289.896 522.362 295.294C522.362 300.692 524.705 305.068 527.595 305.068Z" fill="#3F3D56"/>
<path opacity="0.1" d="M523.452 253.477C522.722 251.659 522.344 249.597 522.357 247.502C522.357 242.103 524.703 237.728 527.595 237.728C530.488 237.728 532.828 242.103 532.828 247.502C532.842 249.597 532.464 251.659 531.734 253.477C532.451 255.302 532.828 257.358 532.828 259.45C532.828 261.541 532.451 263.598 531.734 265.422C532.451 267.246 532.828 269.303 532.828 271.395C532.828 273.486 532.451 275.543 531.734 277.367C532.465 279.184 532.843 281.247 532.828 283.343C532.828 288.735 530.483 293.116 527.595 293.116C524.707 293.116 522.357 288.735 522.357 283.343C522.343 281.247 522.72 279.184 523.452 277.367C522.734 275.543 522.358 273.486 522.358 271.395C522.358 269.303 522.734 267.246 523.452 265.422C522.734 263.598 522.358 261.541 522.358 259.45C522.358 257.358 522.734 255.302 523.452 253.477V253.477Z" fill="#3F3D56"/>
<path opacity="0.1" d="M527.595 245.344C530.485 245.344 532.828 240.968 532.828 235.57C532.828 230.172 530.485 225.796 527.595 225.796C524.705 225.796 522.362 230.172 522.362 235.57C522.362 240.968 524.705 245.344 527.595 245.344Z" fill="#3F3D56"/>
<path opacity="0.1" d="M527.595 233.399C530.485 233.399 532.828 229.023 532.828 223.625C532.828 218.227 530.485 213.852 527.595 213.852C524.705 213.852 522.362 218.227 522.362 223.625C522.362 229.023 524.705 233.399 527.595 233.399Z" fill="#3F3D56"/>
<path opacity="0.1" d="M547.185 141.874C547.902 140.578 548.554 139.21 549.135 137.781L535.385 134.56L550.257 134.718C551.681 130.288 552.456 125.489 552.535 120.617C552.614 115.745 551.995 110.9 550.717 106.381L530.764 121.146L549.158 101.848C547.448 97.56 545.134 93.8227 542.363 90.8713C539.591 87.92 536.422 85.8183 533.053 84.6985C529.685 83.5787 526.19 83.4649 522.79 84.3644C519.389 85.2638 516.156 87.157 513.293 89.925C510.43 92.6929 507.999 96.2758 506.154 100.448C504.308 104.621 503.088 109.293 502.569 114.171C502.051 119.048 502.245 124.026 503.14 128.792C504.035 133.557 505.612 138.007 507.771 141.861C506.656 143.882 505.697 146.068 504.911 148.381L522.767 161.645L503.733 152.533C502.396 158.169 502.065 164.192 502.77 170.056C503.476 175.921 505.197 181.441 507.775 186.118C504.866 191.393 503.057 197.729 502.553 204.402C502.049 211.075 502.872 217.816 504.928 223.853C506.984 229.89 510.189 234.981 514.177 238.542C518.165 242.103 522.775 243.992 527.48 243.992C532.185 243.992 536.796 242.103 540.784 238.542C544.772 234.981 547.977 229.89 550.032 223.853C552.088 217.816 552.911 211.075 552.407 204.402C551.904 197.729 550.094 191.393 547.185 186.118C550.662 179.814 552.552 172.027 552.552 164.006C552.552 155.985 550.662 148.198 547.185 141.894V141.874Z" fill="#6C63FF"/>
<path opacity="0.1" d="M502.409 163.986C502.4 172.009 504.291 179.801 507.775 186.098C504.866 191.373 503.056 197.71 502.553 204.383C502.049 211.056 502.872 217.796 504.928 223.833C506.984 229.871 510.189 234.961 514.177 238.522C518.165 242.084 522.775 243.972 527.48 243.972C532.185 243.972 536.796 242.084 540.784 238.522C544.772 234.961 547.977 229.871 550.032 223.833C552.088 217.796 552.911 211.056 552.407 204.383C551.904 197.71 550.094 191.373 547.185 186.098C550.546 180.011 502.409 159.972 502.409 163.986Z" fill="black"/>
</g>
<g opacity="0.1">
<path opacity="0.1" d="M477.076 303.999C479.237 303.999 480.989 300.73 480.989 296.698C480.989 292.666 479.237 289.397 477.076 289.397C474.914 289.397 473.162 292.666 473.162 296.698C473.162 300.73 474.914 303.999 477.076 303.999Z" fill="#3F3D56"/>
<path opacity="0.1" d="M473.985 265.455C473.441 264.098 473.16 262.558 473.171 260.995C473.171 256.961 474.923 253.688 477.08 253.688C479.237 253.688 480.994 256.967 480.994 260.995C481.005 262.559 480.723 264.1 480.175 265.455C480.712 266.818 480.993 268.356 480.993 269.919C480.993 271.482 480.712 273.019 480.175 274.383C480.712 275.746 480.993 277.283 480.993 278.846C480.993 280.41 480.712 281.947 480.175 283.31C480.723 284.666 481.005 286.206 480.994 287.771C480.994 291.805 479.242 295.078 477.08 295.078C474.919 295.078 473.171 291.798 473.171 287.771C473.16 286.207 473.441 284.668 473.985 283.31C473.453 281.945 473.174 280.409 473.174 278.846C473.174 277.284 473.453 275.748 473.985 274.383C473.453 273.017 473.174 271.481 473.174 269.919C473.174 268.357 473.453 266.82 473.985 265.455Z" fill="#3F3D56"/>
<path opacity="0.1" d="M477.076 259.368C479.237 259.368 480.989 256.099 480.989 252.067C480.989 248.035 479.237 244.767 477.076 244.767C474.914 244.767 473.162 248.035 473.162 252.067C473.162 256.099 474.914 259.368 477.076 259.368Z" fill="#3F3D56"/>
<path opacity="0.1" d="M477.076 250.441C479.237 250.441 480.989 247.172 480.989 243.14C480.989 239.108 479.237 235.839 477.076 235.839C474.914 235.839 473.162 239.108 473.162 243.14C473.162 247.172 474.914 250.441 477.076 250.441Z" fill="#3F3D56"/>
<path opacity="0.1" d="M491.717 182.051C492.254 181.084 492.742 180.062 493.175 178.995L482.897 176.587L494.012 176.705C495.078 173.395 495.66 169.809 495.722 166.168C495.783 162.526 495.324 158.904 494.371 155.525L479.458 166.564L493.212 152.133C491.926 148.951 490.193 146.181 488.123 143.996C486.053 141.811 483.689 140.258 481.179 139.435C478.669 138.611 476.067 138.534 473.536 139.209C471.004 139.884 468.597 141.296 466.465 143.356C464.333 145.417 462.522 148.083 461.144 151.187C459.767 154.291 458.853 157.766 458.459 161.397C458.065 165.027 458.2 168.734 458.856 172.287C459.511 175.839 460.673 179.161 462.268 182.045C461.436 183.556 460.719 185.19 460.13 186.918L473.466 196.804L459.27 190.001C458.271 194.213 458.024 198.714 458.552 203.096C459.079 207.478 460.364 211.603 462.291 215.098C460.115 219.039 458.759 223.774 458.381 228.762C458.002 233.749 458.616 238.789 460.151 243.302C461.687 247.816 464.082 251.622 467.063 254.285C470.043 256.948 473.489 258.36 477.007 258.36C480.524 258.36 483.97 256.948 486.951 254.285C489.932 251.622 492.327 247.816 493.862 243.302C495.397 238.789 496.011 233.749 495.632 228.762C495.254 223.774 493.899 219.039 491.722 215.098C494.32 210.387 495.732 204.568 495.732 198.575C495.732 192.581 494.32 186.762 491.722 182.051H491.717Z" fill="#6C63FF"/>
<path opacity="0.1" d="M458.259 198.574C458.252 204.569 459.665 210.392 462.269 215.098C460.092 219.039 458.737 223.774 458.358 228.762C457.98 233.749 458.593 238.788 460.129 243.302C461.664 247.816 464.059 251.622 467.04 254.285C470.021 256.948 473.467 258.36 476.984 258.36C480.501 258.36 483.947 256.948 486.928 254.285C489.909 251.622 492.304 247.816 493.839 243.302C495.375 238.788 495.988 233.749 495.61 228.762C495.231 223.774 493.876 219.039 491.699 215.098C494.219 210.552 458.259 195.577 458.259 198.574Z" fill="black"/>
</g>
<g opacity="0.1">
<path opacity="0.1" d="M78.3225 305.068C81.2127 305.068 83.5556 300.692 83.5556 295.294C83.5556 289.897 81.2127 285.521 78.3225 285.521C75.4323 285.521 73.0894 289.897 73.0894 295.294C73.0894 300.692 75.4323 305.068 78.3225 305.068Z" fill="#3F3D56"/>
<path opacity="0.1" d="M82.4612 253.478C83.1913 251.66 83.569 249.597 83.5557 247.502C83.5557 242.103 81.2104 237.728 78.3225 237.728C75.4346 237.728 73.0894 242.103 73.0894 247.502C73.0746 249.596 73.4508 251.659 74.1792 253.478C73.4644 255.303 73.0891 257.359 73.0891 259.45C73.0891 261.541 73.4644 263.597 74.1792 265.422C73.4644 267.248 73.0891 269.304 73.0891 271.395C73.0891 273.486 73.4644 275.542 74.1792 277.367C73.4493 279.185 73.0731 281.248 73.0894 283.343C73.0894 288.735 75.43 293.117 78.3225 293.117C81.215 293.117 83.5695 288.748 83.5695 283.356C83.5841 281.261 83.2063 279.198 82.475 277.38C83.1924 275.556 83.5692 273.5 83.5692 271.408C83.5692 269.316 83.1924 267.26 82.475 265.436C83.1924 263.611 83.5692 261.555 83.5692 259.463C83.5692 257.371 83.1924 255.315 82.475 253.491L82.4612 253.478Z" fill="#3F3D56"/>
<path opacity="0.1" d="M78.3225 245.344C81.2127 245.344 83.5556 240.968 83.5556 235.57C83.5556 230.172 81.2127 225.797 78.3225 225.797C75.4323 225.797 73.0894 230.172 73.0894 235.57C73.0894 240.968 75.4323 245.344 78.3225 245.344Z" fill="#3F3D56"/>
<path opacity="0.1" d="M78.3225 233.399C81.2127 233.399 83.5556 229.023 83.5556 223.625C83.5556 218.228 81.2127 213.852 78.3225 213.852C75.4323 213.852 73.0894 218.228 73.0894 223.625C73.0894 229.023 75.4323 233.399 78.3225 233.399Z" fill="#3F3D56"/>
<path opacity="0.1" d="M58.7373 141.874C58.0217 140.576 57.3702 139.209 56.7875 137.781L70.5418 134.561L55.6563 134.751C54.2325 130.32 53.4574 125.522 53.3783 120.65C53.2992 115.778 53.9179 110.933 55.1964 106.414L75.1541 121.179L56.7599 101.881C58.4744 97.6058 60.7894 93.8815 63.5601 90.9419C66.3307 88.0024 69.4972 85.9109 72.861 84.7986C76.2248 83.6863 79.7135 83.5771 83.1082 84.478C86.503 85.3788 89.7307 87.2703 92.589 90.0337C95.4474 92.7972 97.8747 96.373 99.7189 100.537C101.563 104.701 102.784 109.364 103.306 114.233C103.828 119.102 103.639 124.072 102.751 128.832C101.863 133.592 100.296 138.039 98.1468 141.894C99.2617 143.915 100.221 146.101 101.007 148.414L83.1464 161.645L102.184 152.534C103.519 158.17 103.848 164.193 103.141 170.057C102.435 175.92 100.715 181.44 98.1376 186.118C101.047 191.393 102.857 197.729 103.36 204.402C103.864 211.075 103.041 217.816 100.985 223.853C98.9295 229.89 95.7245 234.981 91.7364 238.542C87.7482 242.103 83.138 243.992 78.4329 243.992C73.7277 243.992 69.1175 242.103 65.1294 238.542C61.1413 234.981 57.9362 229.89 55.8807 223.853C53.8251 217.816 53.0021 211.075 53.5056 204.402C54.0092 197.729 55.819 191.393 58.7281 186.118C55.2515 179.815 53.3613 172.027 53.3613 164.006C53.3613 155.986 55.2515 148.198 58.7281 141.894L58.7373 141.874Z" fill="#6C63FF"/>
<path opacity="0.1" d="M103.504 163.987C103.513 172.009 101.622 179.801 98.1378 186.099C101.047 191.374 102.857 197.71 103.36 204.383C103.864 211.056 103.041 217.796 100.985 223.834C98.9297 229.871 95.7247 234.961 91.7366 238.522C87.7484 242.084 83.1382 243.972 78.4331 243.972C73.7279 243.972 69.1177 242.084 65.1296 238.522C61.1415 234.961 57.9364 229.871 55.8809 223.834C53.8253 217.796 53.0023 211.056 53.5058 204.383C54.0094 197.71 55.8192 191.374 58.7283 186.099C55.3668 180.011 103.504 159.972 103.504 163.987Z" fill="black"/>
</g>
<g opacity="0.1">
<path opacity="0.1" d="M128.837 303.999C130.999 303.999 132.751 300.73 132.751 296.698C132.751 292.666 130.999 289.397 128.837 289.397C126.676 289.397 124.924 292.666 124.924 296.698C124.924 300.73 126.676 303.999 128.837 303.999Z" fill="#3F3D56"/>
<path opacity="0.1" d="M131.932 265.455C132.476 264.098 132.757 262.558 132.746 260.995C132.746 256.961 130.999 253.688 128.837 253.688C126.676 253.688 124.924 256.967 124.924 260.995C124.914 262.559 125.197 264.098 125.743 265.455C125.206 266.818 124.924 268.356 124.924 269.919C124.924 271.482 125.206 273.019 125.743 274.383C125.206 275.746 124.924 277.283 124.924 278.846C124.924 280.41 125.206 281.947 125.743 283.31C125.197 284.667 124.914 286.206 124.924 287.771C124.924 291.805 126.676 295.078 128.837 295.078C130.999 295.078 132.746 291.798 132.746 287.771C132.757 286.207 132.476 284.668 131.932 283.31C132.465 281.945 132.744 280.409 132.744 278.846C132.744 277.284 132.465 275.748 131.932 274.383C132.465 273.017 132.744 271.481 132.744 269.919C132.744 268.357 132.465 266.82 131.932 265.455V265.455Z" fill="#3F3D56"/>
<path opacity="0.1" d="M128.837 259.368C130.999 259.368 132.751 256.099 132.751 252.067C132.751 248.035 130.999 244.767 128.837 244.767C126.676 244.767 124.924 248.035 124.924 252.067C124.924 256.099 126.676 259.368 128.837 259.368Z" fill="#3F3D56"/>
<path opacity="0.1" d="M128.837 250.441C130.999 250.441 132.751 247.172 132.751 243.14C132.751 239.108 130.999 235.839 128.837 235.839C126.676 235.839 124.924 239.108 124.924 243.14C124.924 247.172 126.676 250.441 128.837 250.441Z" fill="#3F3D56"/>
<path opacity="0.1" d="M114.196 182.051C113.66 181.082 113.173 180.061 112.738 178.995L123.016 176.587L111.901 176.705C110.835 173.395 110.253 169.81 110.191 166.168C110.13 162.526 110.589 158.904 111.542 155.525L126.455 166.564L112.701 152.133C113.987 148.951 115.72 146.181 117.79 143.996C119.86 141.811 122.224 140.258 124.734 139.435C127.244 138.611 129.846 138.534 132.377 139.209C134.909 139.884 137.316 141.296 139.448 143.356C141.58 145.417 143.391 148.083 144.768 151.187C146.146 154.291 147.06 157.766 147.454 161.397C147.848 165.027 147.713 168.734 147.057 172.287C146.402 175.839 145.24 179.161 143.645 182.045C144.48 183.553 145.197 185.187 145.783 186.918L132.447 196.804L146.67 189.995C147.67 194.206 147.916 198.707 147.389 203.089C146.861 207.471 145.576 211.596 143.649 215.091C145.826 219.032 147.181 223.767 147.56 228.755C147.938 233.743 147.325 238.782 145.789 243.296C144.254 247.81 141.859 251.616 138.878 254.279C135.897 256.942 132.451 258.354 128.934 258.354C125.417 258.354 121.971 256.942 118.99 254.279C116.009 251.616 113.614 247.81 112.079 243.296C110.543 238.782 109.93 233.743 110.308 228.755C110.687 223.767 112.042 219.032 114.219 215.091C111.621 210.381 110.208 204.561 110.208 198.568C110.208 192.575 111.621 186.755 114.219 182.045L114.196 182.051Z" fill="#6C63FF"/>
<path opacity="0.1" d="M147.656 198.574C147.662 204.569 146.249 210.392 143.646 215.098C145.822 219.039 147.178 223.774 147.556 228.762C147.934 233.749 147.321 238.788 145.786 243.302C144.25 247.816 141.855 251.622 138.874 254.285C135.894 256.948 132.447 258.36 128.93 258.36C125.413 258.36 121.967 256.948 118.986 254.285C116.005 251.622 113.61 247.816 112.075 243.302C110.54 238.788 109.926 233.749 110.305 228.762C110.683 223.774 112.038 219.039 114.215 215.098C111.686 210.552 147.656 195.577 147.656 198.574Z" fill="black"/>
</g>
<path opacity="0.1" d="M302 413.28C441.176 413.28 554 410.678 554 407.468C554 404.258 441.176 401.656 302 401.656C162.824 401.656 50 404.258 50 407.468C50 410.678 162.824 413.28 302 413.28Z" fill="#6C63FF"/>
<path opacity="0.1" d="M302 461C441.176 461 554 458.398 554 455.188C554 451.979 441.176 449.377 302 449.377C162.824 449.377 50 451.979 50 455.188C50 458.398 162.824 461 302 461Z" fill="#6C63FF"/>
<path opacity="0.1" d="M302 313.687C441.176 313.687 554 311.085 554 307.875C554 304.666 441.176 302.064 302 302.064C162.824 302.064 50 304.666 50 307.875C50 311.085 162.824 313.687 302 313.687Z" fill="#6C63FF"/>
<path opacity="0.1" d="M302 363.48C441.176 363.48 554 360.878 554 357.668C554 354.459 441.176 351.857 302 351.857C162.824 351.857 50 354.459 50 357.668C50 360.878 162.824 363.48 302 363.48Z" fill="#6C63FF"/>
<path opacity="0.1" d="M421.925 156.397C420.284 155.955 418.587 156.22 417.051 157.158C416.129 157.744 415.131 158.047 414.122 158.047C413.112 158.047 412.114 157.744 411.192 157.158C410.102 156.475 408.92 156.138 407.729 156.171C406.538 156.204 405.366 156.606 404.295 157.348C403.684 157.811 403.004 158.054 402.313 158.057C399.517 158.057 397.195 154.042 396.712 148.749C397.262 148.164 397.73 147.436 398.091 146.604C399.728 142.839 402.262 140.418 405.113 140.418C407.964 140.418 410.466 142.806 412.103 146.532C412.591 147.657 413.274 148.584 414.087 149.221C414.9 149.857 415.815 150.183 416.743 150.166H416.816C419.065 150.133 420.992 152.678 421.925 156.397Z" fill="#6C63FF"/>
<path opacity="0.1" d="M430.437 139.769L425.921 143.849L428.681 136.738C427.903 135.856 426.942 135.369 425.949 135.354H425.875C425.567 135.36 425.26 135.327 424.956 135.256L423.401 136.64L424.059 134.935C422.972 134.398 422.034 133.383 421.378 132.035L418.619 134.515L420.348 130.028C418.748 127.286 416.586 125.607 414.214 125.607C411.363 125.607 408.829 128.021 407.187 131.786C406.703 132.912 406.019 133.835 405.204 134.462C404.389 135.088 403.472 135.396 402.547 135.354H402.395C399.25 135.354 396.702 140.438 396.702 146.709C396.702 152.98 399.25 158.07 402.395 158.07C403.086 158.063 403.766 157.82 404.377 157.361C405.448 156.617 406.62 156.214 407.811 156.18C409.002 156.146 410.184 156.482 411.275 157.165C412.196 157.755 413.195 158.06 414.204 158.06C415.214 158.06 416.213 157.755 417.134 157.165C418.216 156.497 419.386 156.169 420.565 156.202C421.744 156.234 422.904 156.628 423.967 157.355C424.572 157.806 425.244 158.045 425.926 158.05C429.071 158.05 431.619 152.96 431.619 146.689C431.638 144.278 431.232 141.898 430.437 139.769V139.769Z" fill="#6C63FF"/>
<path opacity="0.1" d="M229.922 152.848C228.772 152.538 227.583 152.723 226.506 153.38C225.861 153.791 225.163 154.003 224.457 154.003C223.751 154.003 223.053 153.791 222.408 153.38C221.646 152.902 220.819 152.667 219.986 152.69C219.153 152.714 218.333 152.996 217.585 153.518C217.158 153.835 216.686 154.003 216.205 154.009C214.251 154.009 212.623 151.202 212.282 147.496C212.673 147.088 213.005 146.578 213.262 145.994C214.407 143.37 216.182 141.665 218.178 141.665C220.174 141.665 221.926 143.337 223.071 145.941C223.413 146.73 223.892 147.378 224.461 147.824C225.031 148.27 225.672 148.498 226.322 148.486H226.372C227.918 148.473 229.265 150.257 229.922 152.848Z" fill="#6C63FF"/>
<path opacity="0.1" d="M235.878 141.218L232.719 144.078L234.636 139.1C234.094 138.481 233.422 138.139 232.728 138.129H232.673C232.454 138.135 232.235 138.11 232.02 138.057L230.948 139.028L231.408 137.834C230.648 137.457 229.992 136.748 229.532 135.807L227.614 137.539L228.828 134.403C228.318 133.464 227.668 132.699 226.926 132.162C226.183 131.625 225.366 131.331 224.533 131.301C222.537 131.301 220.762 132.993 219.617 135.63C219.278 136.418 218.798 137.065 218.228 137.503C217.657 137.942 217.014 138.158 216.366 138.129H216.26C214.058 138.129 212.273 141.684 212.273 146.079C212.273 150.474 214.058 154.029 216.26 154.029C216.742 154.024 217.215 153.853 217.64 153.531C218.389 153.012 219.207 152.732 220.039 152.71C220.872 152.687 221.697 152.922 222.459 153.399C223.108 153.821 223.811 154.045 224.524 154.055C225.226 154.054 225.919 153.844 226.561 153.439C227.318 152.971 228.137 152.741 228.962 152.764C229.787 152.786 230.599 153.061 231.344 153.57C231.769 153.888 232.243 154.055 232.723 154.055C234.921 154.055 236.705 150.494 236.705 146.105C236.724 144.403 236.439 142.721 235.878 141.218V141.218Z" fill="#6C63FF"/>
<path opacity="0.1" d="M173.972 204.281C175.121 203.972 176.309 204.157 177.384 204.813C178.029 205.224 178.728 205.436 179.435 205.436C180.142 205.436 180.841 205.224 181.486 204.813C182.249 204.335 183.075 204.1 183.908 204.123C184.741 204.145 185.56 204.426 186.31 204.944C186.735 205.267 187.208 205.438 187.689 205.442C189.644 205.442 191.272 202.628 191.607 198.922C191.218 198.516 190.887 198.006 190.632 197.42C189.483 194.796 187.708 193.097 185.717 193.097C183.725 193.097 181.969 194.764 180.819 197.374C180.478 198.162 179.999 198.81 179.43 199.255C178.862 199.701 178.222 199.93 177.573 199.919H177.522C175.972 199.932 174.62 201.71 173.972 204.281Z" fill="#6C63FF"/>
<path opacity="0.1" d="M168.012 192.671L171.176 195.531L169.254 190.559C169.797 189.938 170.471 189.594 171.167 189.581H171.218C171.438 189.586 171.658 189.564 171.875 189.516L172.947 190.48L172.487 189.293C173.245 188.915 173.9 188.206 174.358 187.266L176.276 188.998L175.08 185.856C175.59 184.917 176.24 184.153 176.983 183.617C177.726 183.082 178.543 182.789 179.375 182.76C181.367 182.76 183.146 184.452 184.291 187.089C184.63 187.876 185.109 188.522 185.679 188.961C186.249 189.4 186.89 189.616 187.538 189.588H187.648C189.846 189.588 191.63 193.15 191.63 197.538C191.63 201.926 189.846 205.488 187.648 205.488C187.167 205.485 186.694 205.316 186.269 204.996C185.52 204.475 184.7 204.193 183.867 204.169C183.034 204.145 182.208 204.381 181.445 204.858C180.799 205.284 180.096 205.508 179.385 205.514C178.681 205.514 177.986 205.304 177.343 204.898C176.586 204.43 175.768 204.2 174.944 204.223C174.12 204.246 173.308 204.52 172.565 205.029C172.139 205.347 171.666 205.514 171.185 205.514C168.983 205.514 167.198 201.959 167.198 197.564C167.177 195.861 167.457 194.178 168.012 192.671V192.671Z" fill="#6C63FF"/>
<path d="M355.486 405.585C356.686 402.411 355.325 398.527 353.761 395.7C352.198 392.873 350.285 389.928 350.326 386.327C350.386 381.151 354.239 378.088 357.316 375.346C359.6 373.303 361.707 370.881 363.593 368.131C364.381 367.072 365.033 365.824 365.52 364.444C366.159 362.424 366.14 360.115 366.099 357.885C365.967 350.499 365.711 343.117 365.331 335.74" stroke="#3F3D56" stroke-width="4" stroke-miterlimit="10"/>
<path d="M371.185 335.373C371.141 334.02 370.858 332.704 370.364 331.548C369.87 330.391 369.18 329.431 368.357 328.754L367.088 332.329L367.129 328C365.978 327.516 364.749 327.567 363.62 328.145C362.49 328.723 361.518 329.797 360.845 331.214C360.172 332.63 359.831 334.316 359.873 336.026C359.914 337.737 360.336 339.384 361.077 340.731C361.818 342.077 362.839 343.053 363.994 343.518C365.149 343.982 366.377 343.911 367.502 343.315C368.627 342.719 369.59 341.628 370.252 340.201C370.914 338.773 371.24 337.082 371.185 335.373V335.373Z" fill="#6C63FF"/>
<path d="M361.087 390.026C360.517 391.605 359.599 392.872 358.474 393.631C357.348 394.391 356.079 394.6 354.862 394.226C353.645 393.853 352.549 392.918 351.742 391.565C350.935 390.213 350.464 388.52 350.4 386.746C350.357 385.628 350.483 384.51 350.768 383.467C351.184 381.945 351.915 380.639 352.863 379.721C353.81 378.804 354.931 378.318 356.076 378.327C357.222 378.336 358.338 378.84 359.279 379.773C360.219 380.706 360.939 382.023 361.344 383.552L357.808 387.658L361.698 386.346C361.703 387.625 361.493 388.887 361.087 390.026V390.026Z" fill="#6C63FF"/>
<path d="M358.291 374.349C356.901 374.443 355.537 373.803 354.457 372.553C353.377 371.303 352.658 369.529 352.436 367.571C352.214 365.612 352.506 363.606 353.255 361.934C354.004 360.263 355.158 359.043 356.497 358.508L356.465 361.834L357.748 358.213C359.248 358.113 360.715 358.867 361.825 360.309C362.935 361.752 363.598 363.764 363.669 365.904C363.739 368.044 363.21 370.136 362.199 371.719C361.188 373.303 359.777 374.249 358.277 374.349H358.291Z" fill="#6C63FF"/>
<path d="M372.036 361.302C371.158 361.367 370.282 361.139 369.477 360.637C368.671 360.135 367.959 359.373 367.396 358.41C366.833 357.447 366.435 356.311 366.234 355.09C366.032 353.87 366.033 352.6 366.235 351.38C366.437 350.16 366.836 349.024 367.399 348.062C367.963 347.1 368.676 346.338 369.481 345.837C370.287 345.336 371.163 345.109 372.041 345.175C372.918 345.24 373.773 345.597 374.537 346.215L373.54 350.151L375.577 347.278C376.401 348.356 376.983 349.757 377.249 351.306C377.515 352.854 377.454 354.481 377.074 355.98C376.693 357.479 376.01 358.784 375.11 359.73C374.21 360.676 373.134 361.221 372.018 361.296L372.036 361.302Z" fill="#6C63FF"/>
<path opacity="0.1" d="M370.422 337.524C369.116 337.728 367.847 338.305 366.531 338.423C365.216 338.541 363.772 338.088 362.954 336.639C362.569 335.794 362.219 334.918 361.905 334.015C361.548 333.219 361.058 332.561 360.48 332.1C360.114 333.123 359.905 334.246 359.867 335.394C359.829 336.541 359.964 337.687 360.262 338.755C360.559 339.823 361.013 340.787 361.593 341.585C362.173 342.382 362.866 342.994 363.625 343.379C364.384 343.764 365.191 343.913 365.994 343.817C366.797 343.722 367.576 343.382 368.279 342.823C368.983 342.263 369.594 341.495 370.073 340.572C370.552 339.648 370.887 338.589 371.056 337.465C370.849 337.472 370.633 337.492 370.422 337.524Z" fill="black"/>
<path opacity="0.1" d="M372.036 361.302C371.06 361.368 370.088 361.073 369.216 360.444C368.344 359.816 367.6 358.876 367.058 357.717C366.516 356.557 366.194 355.217 366.122 353.827C366.051 352.437 366.233 351.044 366.651 349.784C367.1 350.216 367.485 350.769 367.787 351.411C368.125 352.33 368.499 353.222 368.909 354.08C369.792 355.556 371.3 356.048 372.666 355.95C374.031 355.851 375.351 355.294 376.712 355.13C376.901 355.13 377.09 355.091 377.283 355.084C377.001 356.793 376.336 358.325 375.39 359.447C374.443 360.569 373.265 361.221 372.036 361.302V361.302Z" fill="black"/>
<path opacity="0.1" d="M358.291 374.349C357.325 374.414 356.363 374.124 355.498 373.508C354.633 372.892 353.893 371.97 353.348 370.83C352.803 369.691 352.473 368.371 352.387 366.997C352.302 365.623 352.464 364.24 352.86 362.981C353.326 363.42 353.733 363.975 354.06 364.621C354.431 365.563 354.841 366.472 355.288 367.344C356.24 368.859 357.849 369.397 359.293 369.311C360.737 369.226 362.052 368.78 363.432 368.655C363.089 370.243 362.411 371.641 361.491 372.659C360.571 373.678 359.454 374.268 358.291 374.349Z" fill="black"/>
<path opacity="0.1" d="M361.087 390.026C360.517 391.605 359.599 392.872 358.474 393.631C357.348 394.391 356.079 394.6 354.862 394.226C353.645 393.853 352.549 392.918 351.742 391.566C350.935 390.213 350.464 388.52 350.4 386.747C350.357 385.628 350.483 384.51 350.768 383.467C351.234 383.903 351.652 384.436 352.009 385.048C352.547 385.979 352.901 387.015 353.527 387.914C354.681 389.534 356.552 390.203 358.213 390.262C359.173 390.267 360.133 390.188 361.087 390.026V390.026Z" fill="black"/>
<path d="M74.9747 358.357C76.1749 355.182 74.8137 351.299 73.2502 348.472C71.6867 345.645 69.7737 342.687 69.8151 339.099C69.8749 333.923 73.7285 330.86 76.8049 328.118C79.0895 326.074 81.1965 323.652 83.0819 320.902C83.8704 319.844 84.5225 318.596 85.0087 317.216C85.6479 315.196 85.6295 312.887 85.5881 310.657C85.4532 303.271 85.1972 295.889 84.8201 288.512" stroke="#3F3D56" stroke-width="4" stroke-miterlimit="10"/>
<path d="M90.6742 288.144C90.6298 286.791 90.3475 285.476 89.8533 284.319C89.3591 283.163 88.6688 282.202 87.8461 281.526L86.5769 285.101L86.6183 280.771C85.4673 280.288 84.2383 280.339 83.1088 280.916C81.9793 281.494 81.0078 282.569 80.3343 283.985C79.6609 285.402 79.3204 287.087 79.3621 288.798C79.4037 290.508 79.8253 292.156 80.5661 293.502C81.3068 294.849 82.3283 295.825 83.4832 296.289C84.638 296.754 85.8665 296.683 86.9912 296.086C88.116 295.49 89.0788 294.4 89.7408 292.972C90.4028 291.545 90.7296 289.854 90.6742 288.144Z" fill="#6C63FF"/>
<path d="M80.5756 342.798C80.0062 344.377 79.0878 345.644 77.9626 346.403C76.8375 347.162 75.5682 347.371 74.3513 346.998C73.1344 346.624 72.0378 345.689 71.2311 344.337C70.4243 342.985 69.9525 341.291 69.8886 339.518C69.8463 338.4 69.9717 337.282 70.2565 336.238C70.6734 334.717 71.4039 333.411 72.3517 332.493C73.2994 331.576 74.4199 331.089 75.5654 331.099C76.7108 331.108 77.8274 331.612 78.7678 332.545C79.7082 333.478 80.4284 334.795 80.8332 336.324L77.2969 340.43L81.1873 339.118C81.1917 340.397 80.982 341.658 80.5756 342.798V342.798Z" fill="#6C63FF"/>
<path d="M77.7797 327.121C76.3905 327.214 75.0258 326.575 73.9459 325.324C72.8661 324.074 72.1467 322.301 71.925 320.342C71.7032 318.384 71.9947 316.377 72.7438 314.706C73.4928 313.034 74.6471 311.815 75.9863 311.28L75.9541 314.605L77.2371 310.984C77.9799 310.935 78.7222 311.094 79.4218 311.454C80.1213 311.814 80.7643 312.367 81.3141 313.081C81.8639 313.795 82.3096 314.657 82.626 315.617C82.9423 316.576 83.123 317.616 83.1577 318.675C83.1924 319.735 83.0805 320.794 82.8284 321.792C82.5762 322.789 82.1887 323.707 81.688 324.491C81.1873 325.275 80.5833 325.911 79.9103 326.362C79.2374 326.813 78.5087 327.071 77.7659 327.121H77.7797Z" fill="#6C63FF"/>
<path d="M91.5247 314.074C90.647 314.139 89.7708 313.911 88.9655 313.409C88.1602 312.907 87.448 312.144 86.8851 311.182C86.3222 310.219 85.9243 309.082 85.7227 307.862C85.5211 306.642 85.5215 305.371 85.7238 304.151C85.9261 302.932 86.3247 301.795 86.8881 300.833C87.4516 299.871 88.1643 299.109 88.9699 298.608C89.7755 298.107 90.6518 297.881 91.5294 297.946C92.4071 298.012 93.262 298.368 94.0263 298.987L93.0284 302.923L95.0656 300.05C95.8895 301.127 96.4714 302.529 96.7378 304.077C97.0042 305.626 96.9432 307.252 96.5625 308.751C96.1819 310.251 95.4985 311.556 94.5987 312.502C93.6989 313.448 92.6229 313.992 91.5063 314.067L91.5247 314.074Z" fill="#6C63FF"/>
<path opacity="0.1" d="M89.9108 290.296C88.6048 290.499 87.3356 291.076 86.0205 291.194C84.7053 291.313 83.2613 290.86 82.4428 289.41C82.0578 288.566 81.7077 287.689 81.3943 286.786C81.0368 285.99 80.5472 285.333 79.9688 284.871C79.6026 285.894 79.3937 287.018 79.356 288.165C79.3184 289.313 79.4529 290.459 79.7506 291.527C80.0483 292.594 80.5023 293.559 81.0823 294.356C81.6623 295.154 82.3548 295.765 83.1138 296.15C83.8727 296.535 84.6805 296.685 85.4832 296.589C86.2859 296.493 87.065 296.154 87.7684 295.594C88.4719 295.034 89.0835 294.267 89.5624 293.343C90.0412 292.419 90.3764 291.36 90.5454 290.237C90.3385 290.243 90.1224 290.263 89.9108 290.296Z" fill="black"/>
<path opacity="0.1" d="M91.525 314.074C90.5489 314.14 89.5775 313.844 88.7053 313.216C87.8331 312.588 87.0897 311.648 86.5476 310.488C86.0055 309.329 85.683 307.989 85.6116 306.599C85.5402 305.208 85.7222 303.816 86.1401 302.556C86.5888 302.988 86.9746 303.541 87.2759 304.182C87.6141 305.102 87.9887 305.993 88.3979 306.852C89.2809 308.328 90.7892 308.82 92.155 308.722C93.5207 308.623 94.8405 308.066 96.2017 307.902C96.3902 307.902 96.5788 307.862 96.7719 307.856C96.4902 309.565 95.8256 311.097 94.8788 312.219C93.932 313.341 92.7546 313.992 91.525 314.074Z" fill="black"/>
<path opacity="0.1" d="M77.7797 327.121C76.8138 327.185 75.8523 326.896 74.987 326.28C74.1218 325.664 73.3815 324.742 72.837 323.602C72.2924 322.462 71.9616 321.142 71.8761 319.768C71.7907 318.394 71.9534 317.012 72.3489 315.753C72.8154 316.191 73.2222 316.747 73.5491 317.393C73.9199 318.335 74.3299 319.244 74.7769 320.115C75.7288 321.63 77.3383 322.168 78.7822 322.083C80.2262 321.998 81.5413 321.552 82.9209 321.427C82.5776 323.014 81.8999 324.412 80.9801 325.431C80.0603 326.45 78.9429 327.04 77.7797 327.121Z" fill="black"/>
<path opacity="0.1" d="M80.5756 342.798C80.0062 344.377 79.0878 345.644 77.9626 346.403C76.8374 347.162 75.5682 347.371 74.3513 346.998C73.1344 346.625 72.0378 345.689 71.2311 344.337C70.4243 342.985 69.9525 341.291 69.8886 339.518C69.8463 338.4 69.9717 337.282 70.2565 336.239C70.7228 336.675 71.1412 337.208 71.4981 337.819C72.0362 338.751 72.3902 339.787 73.0156 340.686C74.1699 342.306 76.0415 342.975 77.7016 343.034C78.662 343.038 79.6218 342.959 80.5756 342.798V342.798Z" fill="black"/>
<path d="M261.772 304.327C260.572 301.158 261.933 297.275 263.501 294.448C265.069 291.621 266.973 288.676 266.931 285.075C266.876 279.893 263.023 276.836 259.942 274.094C257.658 272.052 255.552 269.63 253.669 266.879C252.877 265.826 252.223 264.58 251.738 263.199C251.103 261.172 251.122 258.869 251.158 256.639C251.296 249.253 251.552 241.872 251.926 234.494" stroke="#3F3D56" stroke-width="4" stroke-miterlimit="10"/>
<path d="M246.077 234.12C246.121 232.768 246.402 231.453 246.895 230.296C247.389 229.14 248.078 228.179 248.901 227.502L250.17 231.077L250.133 226.748C250.737 226.497 251.366 226.389 251.995 226.426C253.114 226.501 254.191 227.046 255.092 227.994C255.993 228.942 256.677 230.25 257.057 231.752C257.437 233.254 257.496 234.883 257.227 236.433C256.958 237.983 256.372 239.384 255.545 240.46C254.718 241.536 253.685 242.237 252.578 242.476C251.471 242.715 250.34 242.48 249.326 241.802C248.313 241.123 247.463 240.031 246.885 238.664C246.307 237.297 246.026 235.716 246.077 234.12V234.12Z" fill="#6C63FF"/>
<path d="M256.171 288.774C256.765 290.422 257.737 291.729 258.926 292.475C260.115 293.222 261.447 293.362 262.7 292.873C263.953 292.385 265.05 291.296 265.806 289.791C266.563 288.285 266.934 286.454 266.857 284.605C266.78 282.755 266.259 281 265.383 279.634C264.506 278.267 263.326 277.372 262.042 277.098C260.757 276.825 259.446 277.19 258.327 278.132C257.209 279.075 256.352 280.537 255.9 282.274L259.436 286.38L255.546 285.068C255.543 286.357 255.757 287.628 256.171 288.774V288.774Z" fill="#6C63FF"/>
<path d="M258.967 273.097C260.357 273.192 261.722 272.554 262.803 271.305C263.884 270.055 264.604 268.281 264.827 266.322C265.049 264.363 264.758 262.356 264.009 260.683C263.259 259.011 262.105 257.791 260.765 257.256L260.793 260.582L259.51 256.961C258.01 256.855 256.543 257.604 255.43 259.042C254.318 260.48 253.651 262.49 253.577 264.629C253.545 265.56 253.628 266.493 253.821 267.384C254.161 268.977 254.837 270.382 255.759 271.405C256.68 272.427 257.801 273.019 258.967 273.097V273.097Z" fill="#6C63FF"/>
<path d="M245.226 260.037C246.104 260.101 246.98 259.872 247.785 259.369C248.59 258.867 249.302 258.104 249.864 257.141C250.426 256.177 250.824 255.041 251.025 253.821C251.226 252.601 251.225 251.33 251.023 250.111C250.82 248.891 250.421 247.756 249.858 246.794C249.294 245.832 248.581 245.071 247.776 244.57C246.97 244.07 246.094 243.843 245.217 243.909C244.339 243.975 243.484 244.331 242.72 244.95L243.723 248.886L241.663 246.072C241.113 246.782 240.668 247.64 240.352 248.597C240.036 249.554 239.856 250.591 239.823 251.647C239.796 252.394 239.844 253.143 239.966 253.871C240.254 255.574 240.924 257.097 241.873 258.21C242.822 259.322 243.999 259.963 245.226 260.037Z" fill="#6C63FF"/>
<path opacity="0.1" d="M246.84 236.272C248.146 236.475 249.416 237.052 250.726 237.171C252.037 237.289 253.485 236.836 254.308 235.386C254.692 234.541 255.04 233.665 255.352 232.763C255.712 231.966 256.203 231.308 256.782 230.847C257.149 231.871 257.359 232.994 257.397 234.143C257.435 235.291 257.3 236.438 257.003 237.506C256.705 238.575 256.251 239.54 255.67 240.338C255.09 241.136 254.397 241.747 253.637 242.132C252.878 242.517 252.069 242.666 251.266 242.569C250.463 242.473 249.684 242.132 248.98 241.571C248.276 241.01 247.665 240.241 247.187 239.316C246.708 238.391 246.374 237.331 246.206 236.206C246.413 236.213 246.624 236.239 246.84 236.272Z" fill="black"/>
<path opacity="0.1" d="M245.226 260.037C246.202 260.101 247.173 259.804 248.044 259.175C248.916 258.546 249.658 257.607 250.2 256.448C250.742 255.289 251.065 253.95 251.137 252.56C251.209 251.171 251.028 249.779 250.611 248.519C250.161 248.951 249.774 249.503 249.471 250.145C249.133 251.065 248.758 251.956 248.349 252.815C247.471 254.291 245.962 254.783 244.596 254.684C243.231 254.586 241.911 254.029 240.55 253.865C240.361 253.865 240.168 253.825 239.979 253.819C240.26 255.528 240.925 257.061 241.872 258.183C242.819 259.305 243.997 259.956 245.226 260.037V260.037Z" fill="black"/>
<path opacity="0.1" d="M258.967 273.097C259.933 273.163 260.895 272.875 261.761 272.26C262.627 271.644 263.368 270.722 263.913 269.582C264.458 268.441 264.789 267.12 264.873 265.746C264.958 264.371 264.794 262.988 264.398 261.729C263.932 262.166 263.526 262.722 263.202 263.369C262.831 264.311 262.421 265.22 261.974 266.091C261.018 267.607 259.413 268.144 257.964 268.059C256.516 267.974 255.205 267.528 253.826 267.403C254.167 268.992 254.844 270.391 255.765 271.411C256.685 272.43 257.803 273.019 258.967 273.097V273.097Z" fill="black"/>
<path opacity="0.1" d="M256.171 288.774C256.835 290.601 257.964 291.998 259.326 292.677C260.688 293.357 262.181 293.27 263.499 292.432C264.817 291.594 265.862 290.07 266.418 288.171C266.975 286.272 267.002 284.141 266.495 282.215C266.026 282.648 265.608 283.181 265.253 283.795C264.715 284.727 264.333 285.763 263.735 286.662C262.577 288.282 260.71 288.951 259.045 289.01C258.085 289.011 257.125 288.932 256.171 288.774V288.774Z" fill="black"/>
<path d="M408.562 305.803C433.949 305.803 454.529 276.446 454.529 240.234C454.529 204.021 433.949 174.665 408.562 174.665C383.175 174.665 362.595 204.021 362.595 240.234C362.595 276.446 383.175 305.803 408.562 305.803Z" fill="#3F3D56"/>
<path d="M428.294 257.144C426.694 254.861 422.845 251.418 420.937 250.132C418.734 248.623 417.925 248.65 416.366 250.257C415.069 251.569 414.227 252.835 412.737 252.369C411.248 251.903 408.295 248.728 405.44 244.668C402.584 240.608 400.367 236.423 400.05 234.265C399.733 232.107 400.607 230.932 401.535 229.083C402.657 226.859 402.69 225.705 401.623 222.563C400.703 219.84 398.316 214.363 396.702 212.067C395.088 209.772 394.739 210.277 393.856 210.755C392.947 211.299 392.075 211.957 391.248 212.723C389.648 214.252 388.751 215.524 388.121 217.44C387.491 219.355 386.779 222.91 390.444 232.218C393.147 239.339 396.572 245.852 400.607 251.549V251.549C404.614 257.317 409.196 262.211 414.204 266.072C420.725 271.319 423.222 270.276 424.565 269.384C425.908 268.492 426.8 267.226 427.867 264.924C428.405 263.746 428.866 262.501 429.246 261.204C429.55 259.945 429.908 259.433 428.294 257.144Z" fill="white"/>
<path opacity="0.1" d="M408.562 174.672C399.465 174.665 390.571 178.508 383.005 185.713C375.439 192.918 369.542 203.162 366.058 215.15C362.575 227.137 361.662 240.328 363.436 253.056C365.21 265.783 369.59 277.474 376.022 286.649C382.455 295.825 390.651 302.073 399.573 304.603C408.496 307.133 417.744 305.831 426.147 300.862C434.551 295.893 441.733 287.481 446.784 276.689C451.835 265.897 454.529 253.21 454.524 240.234C454.518 222.848 449.674 206.178 441.056 193.884C432.437 181.591 420.75 174.681 408.562 174.672V174.672ZM408.562 297.085C400.679 297.085 392.974 293.751 386.419 287.504C379.865 281.257 374.757 272.378 371.74 261.99C368.724 251.602 367.934 240.171 369.472 229.143C371.01 218.115 374.806 207.985 380.38 200.034C385.954 192.083 393.055 186.669 400.786 184.475C408.518 182.282 416.531 183.408 423.814 187.71C431.097 192.013 437.321 199.3 441.701 208.649C446.08 217.998 448.417 228.99 448.417 240.234C448.417 247.7 447.387 255.092 445.384 261.99C443.381 268.887 440.445 275.155 436.744 280.434C433.043 285.713 428.649 289.9 423.814 292.758C418.978 295.615 413.796 297.085 408.562 297.085Z" fill="black"/>
<path d="M302.957 405.395C328.343 405.395 348.924 376.039 348.924 339.826C348.924 303.614 328.343 274.258 302.957 274.258C277.57 274.258 256.99 303.614 256.99 339.826C256.99 376.039 277.57 405.395 302.957 405.395Z" fill="#3F3D56"/>
<path d="M329.099 320.017L315.336 339.991C315.312 340.024 315.292 340.063 315.279 340.107C315.266 340.151 315.259 340.199 315.259 340.246C315.259 340.294 315.266 340.341 315.279 340.385C315.292 340.429 315.312 340.469 315.336 340.502L324.993 355.149C325.224 355.482 325.381 355.903 325.444 356.362C325.508 356.821 325.475 357.297 325.35 357.729C325.225 358.161 325.013 358.531 324.74 358.792C324.468 359.054 324.148 359.194 323.82 359.197C323.379 359.195 322.956 358.945 322.643 358.501L313.037 343.907C312.988 343.838 312.922 343.799 312.853 343.799C312.784 343.799 312.718 343.838 312.669 343.907L310.328 347.278C309.37 348.676 308.225 349.787 306.962 350.545C305.698 351.303 304.341 351.693 302.97 351.693C301.574 351.683 300.192 351.277 298.907 350.498C297.622 349.719 296.458 348.582 295.484 347.153L293.235 343.874C293.186 343.805 293.12 343.766 293.051 343.766C292.983 343.766 292.916 343.805 292.867 343.874L283.284 358.436C283.13 358.656 282.947 358.831 282.745 358.95C282.543 359.069 282.327 359.131 282.109 359.131C281.891 359.131 281.675 359.069 281.473 358.95C281.272 358.831 281.088 358.656 280.934 358.436C280.779 358.216 280.656 357.955 280.572 357.668C280.488 357.38 280.445 357.071 280.445 356.76C280.445 356.448 280.488 356.14 280.572 355.852C280.656 355.564 280.779 355.303 280.934 355.084L290.554 340.469C290.597 340.398 290.621 340.307 290.621 340.214C290.621 340.12 290.597 340.029 290.554 339.958L276.791 319.984C276.756 319.933 276.71 319.899 276.661 319.885C276.612 319.871 276.561 319.878 276.515 319.905C276.468 319.933 276.429 319.979 276.401 320.039C276.373 320.098 276.358 320.168 276.359 320.24V360.207C276.362 361.752 276.794 363.232 277.56 364.325C278.326 365.417 279.364 366.033 280.447 366.038H325.453C326.536 366.033 327.574 365.417 328.339 364.325C329.105 363.232 329.537 361.752 329.541 360.207V320.273C329.543 320.198 329.529 320.125 329.501 320.062C329.473 319.999 329.432 319.951 329.383 319.923C329.335 319.895 329.282 319.889 329.231 319.906C329.18 319.922 329.134 319.961 329.099 320.017V320.017Z" fill="#137DD3"/>
<path d="M302.957 346.95C303.89 346.963 304.815 346.709 305.678 346.202C306.54 345.694 307.323 344.945 307.978 343.998L328.023 314.894C327.312 314.053 326.418 313.59 325.494 313.582H280.456C279.532 313.586 278.637 314.05 277.927 314.894L297.976 343.998C298.626 344.94 299.402 345.686 300.257 346.193C301.112 346.7 302.03 346.958 302.957 346.95Z" fill="white"/>
<path opacity="0.1" d="M302.377 274.264C293.28 274.258 284.386 278.1 276.82 285.305C269.254 292.511 263.357 302.755 259.874 314.742C256.39 326.729 255.478 339.921 257.251 352.648C259.025 365.375 263.405 377.066 269.837 386.242C276.27 395.417 284.466 401.665 293.388 404.195C302.311 406.725 311.559 405.424 319.963 400.455C328.366 395.486 335.548 387.073 340.599 376.281C345.65 365.489 348.344 352.803 348.339 339.827C348.333 322.441 343.489 305.77 334.871 293.477C326.252 281.183 314.565 274.273 302.377 274.264ZM302.377 396.678C294.494 396.678 286.789 393.343 280.234 387.096C273.68 380.85 268.572 371.971 265.555 361.582C262.539 351.194 261.75 339.763 263.287 328.735C264.825 317.707 268.621 307.577 274.195 299.627C279.769 291.676 286.87 286.261 294.602 284.068C302.333 281.874 310.346 283 317.629 287.303C324.912 291.606 331.136 298.893 335.516 308.242C339.895 317.591 342.233 328.582 342.233 339.827C342.233 354.904 338.034 369.365 330.559 380.026C323.085 390.688 312.947 396.678 302.377 396.678Z" fill="black"/>
<path d="M193.865 356.429C219.252 356.429 239.832 327.073 239.832 290.86C239.832 254.648 219.252 225.292 193.865 225.292C168.479 225.292 147.898 254.648 147.898 290.86C147.898 327.073 168.479 356.429 193.865 356.429Z" fill="#3F3D56"/>
<g filter="url(#filter0_d)">
<path d="M193.865 259.486L175.54 319.794L177.251 322.234L193.87 311.778L210.489 322.234L212.2 319.794L193.865 259.486Z" fill="#3F3D56"/>
</g>
<path opacity="0.1" d="M193.865 225.272C184.769 225.265 175.876 229.107 168.311 236.311C160.746 243.514 154.848 253.756 151.364 265.742C147.88 277.727 146.966 290.917 148.738 303.643C150.51 316.37 154.887 328.061 161.318 337.238C167.748 346.414 175.942 352.665 184.863 355.199C193.784 357.732 203.031 356.435 211.435 351.472C219.839 346.508 227.022 338.1 232.076 327.313C237.13 316.525 239.828 303.841 239.828 290.867C239.828 273.475 234.986 256.796 226.367 244.496C217.748 232.195 206.057 225.28 193.865 225.272V225.272ZM193.865 347.685C185.982 347.685 178.275 344.35 171.72 338.102C165.166 331.853 160.057 322.972 157.041 312.582C154.026 302.192 153.238 290.76 154.777 279.731C156.317 268.702 160.115 258.572 165.691 250.622C171.268 242.673 178.371 237.261 186.104 235.071C193.837 232.881 201.851 234.012 209.133 238.32C216.416 242.628 222.639 249.919 227.015 259.273C231.392 268.626 233.725 279.621 233.721 290.867C233.72 305.943 229.52 320.402 222.046 331.062C214.572 341.722 204.435 347.711 193.865 347.711V347.685Z" fill="black"/>
<g opacity="0.1">
<path opacity="0.1" d="M400.662 403.86C400.662 403.86 396.091 403.683 394.711 403.329C394.711 403.664 394.711 403.86 394.711 403.86C394.353 404.372 401.039 404.634 401.039 404.634C401.13 404.646 401.216 404.696 401.287 404.779C401.043 403.86 400.662 403.86 400.662 403.86Z" fill="black"/>
<path opacity="0.1" d="M408.617 393.286C408.433 393.031 408.254 389.423 408.254 389.423C408.16 389.506 408.055 389.56 407.946 389.58C408.01 390.669 408.134 392.342 408.254 392.512C408.374 392.683 409.174 399.216 408.976 402.312C408.778 405.408 408.976 405.402 408.976 405.402C408.976 405.402 403.113 406.628 401.692 405.808C401.692 405.92 401.733 406.045 401.747 406.176C401.926 407.724 409.339 406.176 409.339 406.176C409.339 406.176 409.155 406.176 409.339 403.086C409.523 399.997 408.797 393.549 408.617 393.286Z" fill="black"/>
</g>
<path d="M434.617 355.805C435.817 352.637 434.456 348.747 432.888 345.92C431.32 343.093 429.416 340.154 429.458 336.547C429.513 331.371 433.366 328.315 436.447 325.566C438.732 323.524 440.837 321.102 442.72 318.351C443.511 317.296 444.165 316.051 444.651 314.671C445.286 312.644 445.267 310.342 445.231 308.111C445.096 300.721 444.84 293.339 444.463 285.967" stroke="#3F3D56" stroke-width="4" stroke-miterlimit="10"/>
<path d="M450.312 285.573C450.268 284.222 449.987 282.907 449.493 281.752C449 280.596 448.31 279.637 447.488 278.961L446.219 282.536L446.256 278.207C445.653 277.95 445.023 277.841 444.394 277.885C443.275 277.96 442.197 278.506 441.296 279.454C440.395 280.402 439.712 281.71 439.332 283.213C438.952 284.715 438.893 286.344 439.163 287.895C439.432 289.445 440.018 290.846 440.846 291.921C441.674 292.997 442.707 293.698 443.814 293.936C444.921 294.174 446.053 293.938 447.066 293.259C448.079 292.579 448.928 291.486 449.506 290.118C450.084 288.75 450.364 287.168 450.312 285.573V285.573Z" fill="#6C63FF"/>
<path d="M440.218 340.233C439.625 341.88 438.652 343.187 437.463 343.932C436.274 344.678 434.942 344.818 433.69 344.329C432.437 343.84 431.341 342.752 430.584 341.247C429.827 339.741 429.456 337.911 429.533 336.062C429.61 334.213 430.131 332.458 431.007 331.091C431.884 329.724 433.063 328.829 434.347 328.555C435.632 328.281 436.943 328.646 438.061 329.587C439.18 330.529 440.037 331.99 440.49 333.726L436.953 337.832L440.844 336.52C440.848 337.812 440.633 339.085 440.218 340.233V340.233Z" fill="#6C63FF"/>
<path d="M437.422 324.55C436.033 324.645 434.667 324.007 433.586 322.757C432.505 321.508 431.785 319.734 431.563 317.775C431.34 315.816 431.631 313.808 432.381 312.136C433.13 310.464 434.285 309.244 435.624 308.708L435.597 312.034L436.88 308.42C438.38 308.322 439.846 309.077 440.955 310.52C442.065 311.963 442.728 313.975 442.798 316.114C442.833 317.173 442.722 318.232 442.47 319.23C442.218 320.228 441.831 321.145 441.33 321.929C440.83 322.713 440.226 323.349 439.553 323.799C438.88 324.25 438.151 324.507 437.409 324.556L437.422 324.55Z" fill="#6C63FF"/>
<path d="M451.163 311.509C450.285 311.573 449.409 311.345 448.604 310.842C447.8 310.339 447.088 309.576 446.525 308.613C445.963 307.65 445.565 306.513 445.364 305.293C445.163 304.073 445.164 302.803 445.367 301.583C445.569 300.364 445.968 299.228 446.532 298.266C447.095 297.305 447.808 296.543 448.613 296.043C449.419 295.542 450.295 295.316 451.173 295.382C452.05 295.447 452.905 295.804 453.669 296.423L452.667 300.358L454.727 297.538C455.276 298.248 455.721 299.107 456.036 300.064C456.352 301.021 456.532 302.057 456.566 303.113C456.594 303.86 456.546 304.609 456.424 305.337C456.135 307.041 455.466 308.565 454.517 309.678C453.568 310.792 452.391 311.434 451.163 311.509V311.509Z" fill="#6C63FF"/>
<path opacity="0.1" d="M449.553 287.725C448.247 287.934 446.974 288.512 445.663 288.63C444.352 288.748 442.904 288.295 442.081 286.839C441.696 285.995 441.348 285.119 441.037 284.215C440.678 283.421 440.189 282.763 439.611 282.3C439.244 283.323 439.035 284.447 438.997 285.595C438.959 286.744 439.093 287.891 439.391 288.959C439.689 290.027 440.143 290.993 440.724 291.79C441.304 292.588 441.997 293.2 442.757 293.585C443.516 293.97 444.325 294.119 445.128 294.022C445.931 293.925 446.71 293.585 447.414 293.024C448.117 292.463 448.729 291.694 449.207 290.769C449.686 289.844 450.02 288.783 450.188 287.659C449.977 287.672 449.765 287.692 449.553 287.725Z" fill="black"/>
<path opacity="0.1" d="M451.163 311.509C450.187 311.573 449.217 311.276 448.345 310.647C447.474 310.019 446.731 309.079 446.189 307.92C445.647 306.761 445.325 305.422 445.252 304.032C445.18 302.643 445.361 301.251 445.778 299.991C446.228 300.421 446.615 300.971 446.918 301.611C447.254 302.532 447.629 303.424 448.04 304.281C448.919 305.763 450.427 306.248 451.793 306.157C453.159 306.065 454.478 305.501 455.839 305.337C456.028 305.337 456.221 305.291 456.41 305.284C456.129 306.995 455.465 308.528 454.518 309.651C453.571 310.775 452.393 311.427 451.163 311.509V311.509Z" fill="black"/>
<path opacity="0.1" d="M437.422 324.549C436.455 324.617 435.491 324.329 434.624 323.713C433.757 323.097 433.015 322.173 432.47 321.031C431.925 319.889 431.595 318.566 431.511 317.189C431.427 315.812 431.593 314.428 431.991 313.169C432.455 313.609 432.86 314.165 433.187 314.809C433.647 315.694 433.9 316.717 434.415 317.531C435.371 319.053 436.976 319.584 438.425 319.538C439.873 319.492 441.184 319 442.564 318.849C442.222 320.439 441.545 321.839 440.625 322.859C439.705 323.88 438.586 324.47 437.422 324.549V324.549Z" fill="black"/>
<path opacity="0.1" d="M440.218 340.233C439.543 342.035 438.415 343.405 437.06 344.068C435.705 344.731 434.225 344.637 432.917 343.806C431.608 342.975 430.569 341.467 430.009 339.588C429.448 337.708 429.407 335.595 429.895 333.674C430.362 334.109 430.78 334.642 431.136 335.255C431.679 336.193 432.033 337.222 432.654 338.128C433.812 339.748 435.679 340.41 437.344 340.476C438.305 340.475 439.264 340.394 440.218 340.233V340.233Z" fill="black"/>
<path d="M507.734 455.51C508.934 452.342 507.573 448.452 506.005 445.625C504.437 442.797 502.533 439.859 502.575 436.251C502.63 431.076 506.483 428.019 509.564 425.271C511.848 423.229 513.954 420.807 515.837 418.055C516.628 417.001 517.282 415.755 517.768 414.375C518.403 412.348 518.384 410.046 518.348 407.816C518.216 400.425 517.96 393.044 517.58 385.671" stroke="#3F3D56" stroke-width="4" stroke-miterlimit="10"/>
<path d="M523.429 385.277C523.385 383.926 523.103 382.612 522.61 381.456C522.117 380.301 521.427 379.341 520.605 378.665L519.336 382.24L519.373 377.911C518.777 377.658 518.155 377.549 517.534 377.59C516.415 377.664 515.337 378.21 514.436 379.158C513.535 380.106 512.852 381.414 512.472 382.917C512.092 384.419 512.033 386.049 512.303 387.599C512.572 389.149 513.158 390.55 513.986 391.626C514.814 392.701 515.846 393.402 516.954 393.64C518.061 393.878 519.193 393.642 520.206 392.963C521.219 392.283 522.068 391.19 522.646 389.822C523.224 388.454 523.504 386.873 523.452 385.277H523.429Z" fill="#6C63FF"/>
<path d="M513.335 439.938C512.741 441.585 511.769 442.891 510.58 443.637C509.391 444.383 508.059 444.523 506.806 444.034C505.554 443.545 504.457 442.456 503.7 440.951C502.944 439.446 502.573 437.615 502.65 435.766C502.727 433.917 503.247 432.162 504.124 430.795C505 429.428 506.18 428.533 507.464 428.259C508.748 427.986 510.06 428.35 511.178 429.292C512.296 430.233 513.154 431.694 513.606 433.431L510.07 437.537L513.96 436.225C513.964 437.516 513.75 438.79 513.335 439.938V439.938Z" fill="#6C63FF"/>
<path d="M510.539 424.254C509.149 424.349 507.784 423.711 506.703 422.461C505.622 421.212 504.902 419.438 504.679 417.479C504.457 415.52 504.748 413.512 505.497 411.84C506.247 410.168 507.401 408.948 508.741 408.413L508.714 411.738L509.997 408.124C511.496 408.026 512.962 408.781 514.072 410.224C515.182 411.667 515.845 413.679 515.915 415.818C515.95 416.877 515.839 417.936 515.587 418.934C515.335 419.932 514.948 420.849 514.447 421.633C513.946 422.417 513.342 423.053 512.67 423.503C511.997 423.954 511.268 424.211 510.525 424.26L510.539 424.254Z" fill="#6C63FF"/>
<path d="M524.28 411.213C523.402 411.277 522.526 411.049 521.721 410.546C520.916 410.043 520.204 409.28 519.642 408.317C519.08 407.354 518.682 406.217 518.481 404.997C518.28 403.777 518.281 402.507 518.483 401.287C518.686 400.068 519.085 398.932 519.648 397.97C520.212 397.009 520.925 396.247 521.73 395.747C522.536 395.246 523.412 395.02 524.289 395.086C525.167 395.152 526.022 395.508 526.786 396.127L525.783 400.062L527.843 397.242C528.392 397.953 528.837 398.811 529.153 399.768C529.469 400.725 529.649 401.761 529.683 402.817C529.71 403.564 529.662 404.313 529.54 405.041C529.252 406.745 528.583 408.269 527.634 409.382C526.685 410.496 525.507 411.138 524.28 411.213V411.213Z" fill="#6C63FF"/>
<path opacity="0.1" d="M522.67 387.429C521.364 387.639 520.09 388.216 518.78 388.334C517.469 388.452 516.021 388 515.197 386.543C514.813 385.699 514.464 384.823 514.154 383.92C513.795 383.125 513.305 382.468 512.728 382.004C512.361 383.028 512.152 384.151 512.114 385.3C512.076 386.448 512.21 387.595 512.508 388.663C512.806 389.732 513.26 390.697 513.84 391.495C514.421 392.293 515.114 392.904 515.873 393.289C516.633 393.674 517.441 393.823 518.244 393.726C519.048 393.63 519.827 393.289 520.53 392.728C521.234 392.167 521.845 391.398 522.324 390.473C522.802 389.548 523.137 388.488 523.305 387.363C523.093 387.376 522.882 387.396 522.67 387.429Z" fill="black"/>
<path opacity="0.1" d="M524.28 411.214C523.304 411.278 522.333 410.981 521.462 410.352C520.59 409.723 519.848 408.783 519.306 407.624C518.764 406.465 518.441 405.126 518.369 403.737C518.297 402.347 518.478 400.955 518.895 399.695C519.345 400.125 519.732 400.675 520.035 401.315C520.371 402.236 520.746 403.128 521.157 403.985C522.036 405.467 523.544 405.953 524.91 405.861C526.275 405.769 527.595 405.205 528.956 405.041C529.145 405.041 529.338 404.995 529.527 404.989C529.246 406.699 528.582 408.232 527.635 409.356C526.688 410.479 525.51 411.131 524.28 411.214Z" fill="black"/>
<path opacity="0.1" d="M510.539 424.254C509.571 424.321 508.608 424.033 507.741 423.417C506.874 422.801 506.132 421.877 505.587 420.735C505.042 419.593 504.711 418.27 504.628 416.893C504.544 415.517 504.709 414.132 505.108 412.873C505.572 413.313 505.977 413.869 506.304 414.513C506.764 415.398 507.017 416.422 507.532 417.235C508.488 418.757 510.093 419.288 511.542 419.242C512.99 419.196 514.301 418.704 515.68 418.554C515.339 420.143 514.662 421.543 513.742 422.564C512.822 423.584 511.703 424.174 510.539 424.254Z" fill="black"/>
<path opacity="0.1" d="M513.335 439.937C512.66 441.739 511.532 443.109 510.177 443.772C508.822 444.435 507.342 444.341 506.034 443.51C504.725 442.679 503.686 441.172 503.126 439.292C502.565 437.412 502.524 435.299 503.011 433.378C503.479 433.813 503.897 434.346 504.253 434.959C504.796 435.897 505.173 436.927 505.771 437.832C506.929 439.452 508.796 440.115 510.461 440.18C511.422 440.179 512.381 440.098 513.335 439.937V439.937Z" fill="black"/>
<path d="M269.81 362.962C269.816 361.956 269.657 360.962 269.344 360.059C269.032 359.157 268.576 358.372 268.012 357.767C268.005 355.988 267.558 354.27 266.749 352.917C265.941 351.563 264.823 350.66 263.593 350.368C263.403 349.075 262.978 347.876 262.36 346.892C261.743 345.907 260.955 345.172 260.075 344.759V344.759C259.861 344.664 259.643 344.592 259.422 344.543H259.358H259.243H259.151H259.05H258.925H258.645C257.423 344.583 256.25 345.239 255.335 346.394C254.419 347.549 253.819 349.128 253.642 350.853C252.028 350.322 250.551 351.011 250.28 352.467C250.212 352.854 250.228 353.261 250.326 353.634C250.602 354.763 251.499 355.845 252.699 356.376L252.855 356.442L253.09 356.527H253.14C252.884 357.305 252.752 358.154 252.754 359.013C252.75 360.068 252.951 361.103 253.333 362.006C253.715 362.909 254.264 363.643 254.92 364.13L254.814 364.221C254.665 364.415 254.546 364.652 254.465 364.917C254.175 365.649 253.948 366.429 253.789 367.239C253.674 367.934 253.656 368.656 253.513 369.344C253.246 370.61 252.566 371.68 252.487 372.998C252.451 373.588 252.52 374.31 252.225 374.69C252.153 374.78 252.074 374.859 251.991 374.927C251.787 375.132 251.614 375.393 251.48 375.694C251.392 375.967 251.271 376.216 251.122 376.429C250.855 376.711 250.418 376.684 250.289 377.124C250.161 377.563 250.496 378.082 250.418 378.56C250.34 379.039 250.055 379.131 249.848 379.4C249.607 379.769 249.438 380.221 249.356 380.712C248.921 380.83 248.473 380.811 248.044 380.654C247.614 380.498 247.215 380.208 246.873 379.807C246.99 380.23 247.076 380.67 247.13 381.119C246.73 380.683 246.276 380.358 245.792 380.161C245.247 379.808 244.761 379.293 244.366 378.652L245.13 378.501L241.759 371.161L240.761 370.866L241.653 373.313C241.579 373.361 241.513 373.433 241.46 373.523C241.408 373.612 241.37 373.718 241.35 373.831C241.302 374.103 241.291 374.386 241.318 374.664C241.363 375.327 241.44 375.984 241.548 376.632L241.805 378.351C241.828 378.508 241.856 378.672 241.888 378.829C241.551 378.806 241.215 378.859 240.89 378.987C240.221 378.632 239.525 378.397 238.816 378.285C238.664 378.241 238.508 378.241 238.356 378.285C238.184 378.401 238.035 378.574 237.919 378.79C237.339 379.751 236.823 380.787 236.379 381.886C234.539 386.386 232.144 390.315 229.876 394.382C228.313 395.287 226.736 396.146 225.158 397.006L221.765 398.855C221.103 399.284 220.385 399.507 219.659 399.511C219.337 399.511 218.937 399.413 218.739 399.807C218.65 400.011 218.58 400.232 218.532 400.463L218.182 400.515C218.021 399.727 217.744 398.998 217.368 398.377C217.286 398.397 217.208 398.446 217.141 398.519C217.075 398.592 217.022 398.687 216.987 398.796C216.904 399.013 216.853 399.249 216.757 399.452C216.577 399.833 216.26 400.017 216.035 400.338C215.81 400.659 215.667 401.158 215.419 401.486C215.08 401.843 214.682 402.069 214.264 402.142C213.634 402.352 213.026 402.68 212.457 403.119C212.249 403.305 212.025 403.453 211.79 403.559C211.531 403.631 211.266 403.644 211.004 403.598L209.211 403.408C209.05 403.379 208.886 403.39 208.728 403.441C208.548 403.545 208.396 403.729 208.293 403.964C208.191 404.2 208.143 404.476 208.158 404.752C208.181 405.03 208.243 405.299 208.341 405.541C208.439 405.784 208.571 405.995 208.728 406.163C209.038 406.49 209.383 406.744 209.749 406.917C211.301 407.779 212.9 408.455 214.531 408.937V409.456C215.672 410.276 216.932 410.703 218.21 410.702C218.305 410.711 218.4 410.686 218.486 410.63C218.603 410.504 218.685 410.323 218.716 410.118C219.097 408.491 219.338 406.804 219.433 405.094V405.094C219.658 405.072 219.877 404.992 220.082 404.857C220.698 404.615 221.314 405.218 221.953 405.317C222.74 405.441 223.466 404.785 224.211 404.385L224.533 404.234C224.321 404.623 224.07 404.966 223.788 405.251C223.48 405.566 223.135 405.802 222.836 406.13C222.583 406.457 222.312 406.755 222.027 407.022C221.825 407.155 221.618 407.269 221.406 407.363C221.092 407.529 220.794 407.75 220.518 408.019C220.274 408.227 220.067 408.515 219.916 408.859C219.84 409.035 219.796 409.234 219.787 409.44C219.779 409.646 219.805 409.852 219.865 410.039C219.929 410.193 220.015 410.324 220.117 410.426C220.22 410.528 220.336 410.598 220.459 410.63C220.701 410.682 220.947 410.682 221.19 410.63C222.165 410.525 223.135 410.4 224.105 410.276C224.515 410.238 224.923 410.155 225.324 410.026C225.535 409.954 225.747 409.856 225.959 409.77C226.322 409.64 226.693 409.561 227.067 409.534C227.175 409.522 227.284 409.538 227.389 409.58C227.614 409.685 227.775 410.013 228.005 410.079C228.161 410.107 228.319 410.077 228.465 409.993C229.173 409.776 229.896 409.666 230.621 409.666C230.939 409.666 231.311 409.554 231.458 409.134C231.606 408.714 231.339 408.039 231.219 407.481C231.158 407.125 231.124 406.759 231.118 406.392C231.063 405.489 230.881 404.61 230.585 403.808C230.425 403.434 230.291 403.038 230.185 402.627C231.575 401.874 232.906 400.91 234.153 399.754C234.836 399.048 235.603 398.522 236.416 398.2C237.376 398.036 238.349 398.198 239.257 398.672C241.468 399.586 243.644 400.667 245.774 401.912C246.79 402.509 247.802 403.139 248.85 403.591C249.156 404.177 249.525 404.688 249.944 405.107C250.669 405.688 251.482 406.005 252.313 406.032C253.421 406.176 254.534 406.235 255.647 406.209C256.499 406.261 257.348 406.037 258.13 405.553C258.317 405.42 258.491 405.254 258.65 405.061C258.95 405.097 259.252 405.039 259.535 404.89C259.818 404.742 260.074 404.507 260.287 404.201C260.89 403.465 261.324 402.487 261.533 401.394C261.804 399.898 261.597 398.114 262.241 396.92C262.411 396.592 262.636 396.33 262.807 396.002C263.013 395.553 263.116 395.023 263.101 394.487C263.108 394.466 263.118 394.446 263.128 394.428C263.27 393.946 263.363 393.438 263.404 392.919C263.483 392.511 263.583 392.112 263.703 391.725C264.03 390.568 264.316 389.388 264.559 388.19C264.725 387.393 264.857 386.582 264.954 385.763C265.023 385.107 265.065 384.451 265.101 383.795C265.15 382.761 265.291 381.741 265.52 380.758C266.095 378.418 266.421 375.968 266.485 373.49V373.346C267.333 373.207 268.113 372.621 268.673 371.703C269.233 370.786 269.532 369.603 269.511 368.387C269.511 367.656 269.403 366.934 269.194 366.268C269.601 365.263 269.813 364.122 269.81 362.962ZM253.357 391.476C253.407 391.732 253.467 391.981 253.527 392.23C253.255 391.857 252.993 391.47 252.722 391.089C252.828 391.142 252.938 391.187 253.039 391.247C253.146 391.308 253.247 391.385 253.343 391.476H253.357ZM252.055 390.217C250.464 388.249 248.625 386.72 246.997 384.812C247.884 385.435 248.749 386.163 249.604 386.858C250.619 387.685 251.647 388.478 252.69 389.239C252.519 389.62 252.299 389.952 252.041 390.217H252.055ZM252.731 385.258L252.809 385.146C252.809 385.428 252.809 385.684 252.809 385.927L252.382 385.717C252.5 385.574 252.612 385.42 252.717 385.258H252.731ZM238.738 390.571C239.391 389.517 239.958 388.362 240.43 387.127C241.06 388.695 242.086 389.83 242.955 391.148C241.552 390.892 240.145 390.676 238.738 390.571Z" fill="url(#paint0_linear)"/>
<path d="M241 371.469L242.003 371.758L245.419 378.967L243.916 379.256L241 371.469Z" fill="#2F2E41"/>
<path d="M216.692 400.712C216.964 401.984 217.299 403.227 217.695 404.431C218.827 404.09 219.941 403.636 221.029 403.073C220.814 402.618 220.583 402.18 220.334 401.761C220.065 401.342 219.746 400.994 219.392 400.731C219.015 400.61 218.624 400.61 218.247 400.731C217.732 400.712 217.212 400.725 216.692 400.712Z" fill="#FBBEBE"/>
<path d="M219.396 402.634C219.125 402.46 218.882 402.205 218.685 401.886C218.488 401.566 218.342 401.191 218.256 400.784C218.081 399.967 217.784 399.213 217.387 398.573C217.303 398.59 217.224 398.636 217.156 398.708C217.089 398.781 217.035 398.876 217.001 398.986C216.918 399.196 216.867 399.433 216.775 399.642C216.591 400.016 216.269 400.2 216.04 400.515C215.81 400.83 215.672 401.322 215.423 401.643C215.082 402.002 214.681 402.228 214.26 402.299C213.62 402.505 213.002 402.829 212.421 403.263C212.208 403.445 211.981 403.59 211.745 403.696C211.482 403.752 211.216 403.752 210.954 403.696L209.142 403.513C208.989 403.477 208.834 403.477 208.682 403.513C208.497 403.608 208.34 403.789 208.236 404.027C208.131 404.265 208.086 404.546 208.107 404.824C208.128 405.101 208.191 405.368 208.29 405.608C208.389 405.847 208.523 406.054 208.682 406.215C208.997 406.537 209.344 406.79 209.712 406.963C211.289 407.81 212.914 408.469 214.568 408.931V409.442C215.72 410.249 216.986 410.669 218.27 410.669C218.364 410.677 218.458 410.655 218.546 410.603C218.663 410.478 218.745 410.296 218.776 410.092C219.212 408.28 219.467 406.39 219.534 404.477C219.564 403.991 219.538 403.501 219.456 403.027C219.355 402.561 219.695 402.758 219.383 402.575" fill="#2F2E41"/>
<path d="M254.143 392.893C248.772 393.352 243.465 391.109 238.085 390.873C237.417 390.81 236.746 390.869 236.089 391.05C235.405 391.314 234.742 391.682 234.112 392.145C231.228 394.06 228.244 395.648 225.264 397.229L221.838 399.046C221.172 399.475 220.449 399.699 219.718 399.702C219.392 399.702 218.992 399.603 218.799 399.99C218.242 401.171 218.504 402.896 218.872 404.221C218.992 404.647 219.194 405.113 219.516 405.159C219.742 405.137 219.963 405.057 220.169 404.923C220.79 404.687 221.411 405.284 222.054 405.382C222.845 405.5 223.581 404.857 224.331 404.464C225.572 403.808 226.924 403.808 228.23 403.519C230.414 403.001 232.442 401.551 234.337 399.905C235.026 399.205 235.797 398.685 236.613 398.37C237.581 398.207 238.561 398.367 239.478 398.836C241.706 399.733 243.9 400.797 246.05 402.024C247.167 402.717 248.313 403.315 249.48 403.814C252.028 404.765 254.723 404.536 257.173 403.158C258.033 402.673 258.967 401.847 259.013 400.495C259.045 399.741 258.631 399.078 258.36 398.429C258.185 398.016 258.006 397.603 257.817 397.202C256.897 395.3 255.775 392.755 254.143 392.893Z" fill="#2F2E41"/>
<path opacity="0.1" d="M254.143 392.893C248.772 393.352 243.465 391.109 238.085 390.873C237.417 390.81 236.746 390.869 236.089 391.05C235.405 391.314 234.742 391.682 234.112 392.145C231.228 394.06 228.244 395.648 225.264 397.229L221.838 399.046C221.172 399.475 220.449 399.699 219.718 399.702C219.392 399.702 218.992 399.603 218.799 399.99C218.242 401.171 218.504 402.896 218.872 404.221C218.992 404.647 219.194 405.113 219.516 405.159C219.742 405.137 219.963 405.057 220.169 404.923C220.79 404.687 221.411 405.284 222.054 405.382C222.845 405.5 223.581 404.857 224.331 404.464C225.572 403.808 226.924 403.808 228.23 403.519C230.414 403.001 232.442 401.551 234.337 399.905C235.026 399.205 235.797 398.685 236.613 398.37C237.581 398.207 238.561 398.367 239.478 398.836C241.706 399.733 243.9 400.797 246.05 402.024C247.167 402.717 248.313 403.315 249.48 403.814C252.028 404.765 254.723 404.536 257.173 403.158C258.033 402.673 258.967 401.847 259.013 400.495C259.045 399.741 258.631 399.078 258.36 398.429C258.185 398.016 258.006 397.603 257.817 397.202C256.897 395.3 255.775 392.755 254.143 392.893Z" fill="black"/>
<path d="M227.007 401.066C227.847 401.473 228.695 401.849 229.55 402.194C230.01 401.073 230.93 400.292 231.127 399.006C231.139 398.951 231.139 398.891 231.127 398.836C231.105 398.781 231.071 398.738 231.031 398.711C230.416 398.23 229.735 397.945 229.035 397.878C228.483 397.832 228.23 398.652 227.982 399.229C227.885 399.485 227.232 401.191 227.007 401.066Z" fill="#FBBEBE"/>
<path d="M228.184 400.266C227.933 400.205 227.693 400.07 227.48 399.871C227.267 399.671 227.086 399.41 226.947 399.105C226.832 398.81 226.703 398.409 226.464 398.449C226.225 398.488 226.147 398.842 226.096 399.151C225.937 400.313 225.705 401.452 225.402 402.555C225.099 403.663 224.584 404.629 223.917 405.343C223.604 405.651 223.259 405.881 222.951 406.209C222.696 406.531 222.424 406.825 222.137 407.088C221.934 407.217 221.725 407.327 221.512 407.416C221.197 407.584 220.898 407.804 220.619 408.072C220.371 408.275 220.162 408.56 220.008 408.905C219.932 409.077 219.888 409.274 219.88 409.477C219.872 409.68 219.9 409.882 219.962 410.066C220.026 410.217 220.112 410.346 220.215 410.446C220.317 410.545 220.433 410.612 220.555 410.643C220.801 410.695 221.05 410.695 221.295 410.643C222.275 410.544 223.254 410.42 224.234 410.295C224.647 410.257 225.057 410.176 225.462 410.052L226.101 409.803C226.466 409.666 226.841 409.586 227.218 409.567C227.328 409.553 227.439 409.568 227.545 409.613C227.77 409.718 227.931 410.039 228.166 410.105C228.322 410.126 228.479 410.097 228.626 410.02C229.34 409.801 230.07 409.693 230.801 409.698C231.123 409.698 231.5 409.58 231.647 409.173C231.831 408.662 231.527 408.091 231.403 407.54C231.344 407.19 231.31 406.831 231.302 406.471C231.247 405.579 231.064 404.713 230.764 403.926C230.516 403.27 230.175 402.548 230.35 401.853C230.437 401.632 230.493 401.389 230.516 401.138C230.447 400.01 228.635 400.41 228.184 400.266Z" fill="#2F2E41"/>
<path d="M246.091 380.6C245.138 380.004 244.374 378.924 243.948 377.57C243.861 377.281 243.787 376.973 243.7 376.684C243.419 375.707 242.981 374.837 242.421 374.146C242.362 374.056 242.291 373.985 242.212 373.937C242.133 373.888 242.048 373.863 241.962 373.864C241.876 373.901 241.799 373.969 241.738 374.063C241.678 374.156 241.636 374.271 241.617 374.395C241.565 374.662 241.553 374.941 241.58 375.215C241.627 375.86 241.703 376.5 241.81 377.13L242.072 378.823C242.107 379.082 242.161 379.334 242.233 379.577C242.345 379.861 242.493 380.112 242.67 380.318C242.909 380.633 243.153 380.935 243.396 381.237C243.537 381.412 243.691 381.563 243.856 381.689C244.113 381.864 244.388 381.979 244.67 382.03C245.767 382.234 246.814 382.81 247.724 383.71C247.724 383.71 247.724 382.575 247.724 382.45C247.712 382.12 247.632 381.803 247.494 381.538C247.072 381.101 246.596 380.782 246.091 380.6V380.6Z" fill="#FBBEBE"/>
<path opacity="0.1" d="M246.091 380.6C245.138 380.004 244.374 378.924 243.948 377.57C243.861 377.281 243.787 376.973 243.7 376.684C243.419 375.707 242.981 374.837 242.421 374.146C242.362 374.056 242.291 373.985 242.212 373.937C242.133 373.888 242.048 373.863 241.962 373.864C241.876 373.901 241.799 373.969 241.738 374.063C241.678 374.156 241.636 374.271 241.617 374.395C241.565 374.662 241.553 374.941 241.58 375.215C241.627 375.86 241.703 376.5 241.81 377.13L242.072 378.823C242.107 379.082 242.161 379.334 242.233 379.577C242.345 379.861 242.493 380.112 242.67 380.318C242.909 380.633 243.153 380.935 243.396 381.237C243.537 381.412 243.691 381.563 243.856 381.689C244.113 381.864 244.388 381.979 244.67 382.03C245.767 382.234 246.814 382.81 247.724 383.71C247.724 383.71 247.724 382.575 247.724 382.45C247.712 382.12 247.632 381.803 247.494 381.538C247.072 381.101 246.596 380.782 246.091 380.6V380.6Z" fill="black"/>
<path d="M257.026 367.652C257.747 367.652 258.332 366.812 258.332 365.776C258.332 364.74 257.747 363.9 257.026 363.9C256.305 363.9 255.72 364.74 255.72 365.776C255.72 366.812 256.305 367.652 257.026 367.652Z" fill="#2F2E41"/>
<path d="M256.217 364.648C255.867 364.528 255.499 364.603 255.187 364.858C255.036 365.049 254.916 365.284 254.833 365.546C254.541 366.264 254.312 367.031 254.152 367.829C254.037 368.485 254.019 369.226 253.872 369.902C253.605 371.148 252.92 372.204 252.842 373.503C252.805 374.087 252.874 374.769 252.575 375.163C252.502 375.253 252.423 375.334 252.34 375.405C252.133 375.602 251.958 375.859 251.825 376.16C251.735 376.427 251.612 376.669 251.462 376.875C251.195 377.157 250.754 377.13 250.625 377.53C250.496 377.931 250.832 378.475 250.754 378.947C250.676 379.42 250.386 379.511 250.179 379.774C249.935 380.141 249.764 380.594 249.683 381.086C249.245 381.206 248.795 381.189 248.363 381.036C247.931 380.883 247.528 380.598 247.181 380.2C247.484 381.515 247.617 382.898 247.572 384.28C247.595 384.501 247.586 384.727 247.547 384.943C247.507 385.16 247.437 385.362 247.342 385.54C248.379 385.65 249.407 385.905 250.409 386.301C250.843 386.507 251.313 386.507 251.747 386.301C251.98 386.122 252.188 385.887 252.363 385.605C252.915 384.805 253.495 383.933 253.628 382.824C253.661 382.198 253.669 381.569 253.651 380.941C253.703 380.163 253.816 379.395 253.987 378.652C254.278 377.11 254.473 375.534 254.571 373.942C254.631 372.959 255.228 372.171 255.541 371.319C256.13 369.659 256.737 367.934 256.778 366.071C256.796 365.468 256.649 364.713 256.217 364.648Z" fill="#2F2E41"/>
<path opacity="0.1" d="M256.217 364.648C255.867 364.528 255.499 364.603 255.187 364.858C255.036 365.049 254.916 365.284 254.833 365.546C254.541 366.264 254.312 367.031 254.152 367.829C254.037 368.485 254.019 369.226 253.872 369.902C253.605 371.148 252.92 372.204 252.842 373.503C252.805 374.087 252.874 374.769 252.575 375.163C252.502 375.253 252.423 375.334 252.34 375.405C252.133 375.602 251.958 375.859 251.825 376.16C251.735 376.427 251.612 376.669 251.462 376.875C251.195 377.157 250.754 377.13 250.625 377.53C250.496 377.931 250.832 378.475 250.754 378.947C250.676 379.42 250.386 379.511 250.179 379.774C249.935 380.141 249.764 380.594 249.683 381.086C249.245 381.206 248.795 381.189 248.363 381.036C247.931 380.883 247.528 380.598 247.181 380.2C247.484 381.515 247.617 382.898 247.572 384.28C247.595 384.501 247.586 384.727 247.547 384.943C247.507 385.16 247.437 385.362 247.342 385.54C248.379 385.65 249.407 385.905 250.409 386.301C250.843 386.507 251.313 386.507 251.747 386.301C251.98 386.122 252.188 385.887 252.363 385.605C252.915 384.805 253.495 383.933 253.628 382.824C253.661 382.198 253.669 381.569 253.651 380.941C253.703 380.163 253.816 379.395 253.987 378.652C254.278 377.11 254.473 375.534 254.571 373.942C254.631 372.959 255.228 372.171 255.541 371.319C256.13 369.659 256.737 367.934 256.778 366.071C256.796 365.468 256.649 364.713 256.217 364.648Z" fill="black"/>
<path d="M254.994 394.507C253.876 393.746 253.058 392.335 252.152 391.122C250.427 388.806 248.317 387.186 246.5 385.002C245.295 383.565 244.201 381.893 242.899 380.686C241.734 379.632 240.414 378.974 239.041 378.764C238.89 378.714 238.733 378.714 238.581 378.764C238.408 378.869 238.257 379.039 238.145 379.256C237.558 380.199 237.036 381.221 236.586 382.306C234.286 387.882 231.017 392.565 228.308 397.747C228.246 397.855 228.201 397.98 228.175 398.114C228.164 398.315 228.199 398.516 228.276 398.685L228.828 400.22C229.136 401.086 229.633 402.089 230.295 401.919C230.593 401.796 230.86 401.552 231.063 401.217L233.537 397.839L236.13 394.303C237.648 392.237 239.193 390.118 240.186 387.468C240.959 389.384 242.334 390.636 243.272 392.388C243.631 393.044 243.925 393.785 244.247 394.493C244.757 395.622 245.341 396.684 245.921 397.773L248.896 403.185C249.273 403.949 249.74 404.615 250.276 405.153C251.009 405.722 251.827 406.035 252.662 406.064C253.78 406.206 254.902 406.263 256.024 406.235C256.883 406.284 257.739 406.06 258.53 405.579C258.924 405.332 259.261 404.93 259.501 404.42C259.741 403.91 259.875 403.313 259.886 402.699C259.841 402.064 259.694 401.452 259.459 400.909C258.383 398.173 256.994 395.864 254.994 394.507Z" fill="#2F2E41"/>
<path d="M257.831 368.518C258.387 368.518 258.838 367.872 258.838 367.075C258.838 366.278 258.387 365.632 257.831 365.632C257.275 365.632 256.824 366.278 256.824 367.075C256.824 367.872 257.275 368.518 257.831 368.518Z" fill="#E8E8F0"/>
<path d="M257.61 365.992C257.835 366.637 257.875 367.38 257.721 368.065C257.562 368.738 257.344 369.379 257.072 369.974C256.839 370.587 256.556 371.159 256.231 371.68C257.785 371.784 259.289 370.919 260.654 369.869C261.758 369.023 262.857 367.98 263.446 366.399C263.27 366.459 263.088 366.465 262.91 366.418C262.733 366.37 262.564 366.27 262.416 366.124C262.119 365.833 261.854 365.481 261.629 365.081L260.852 363.834C260.676 363.56 260.522 363.259 260.392 362.936C260.222 362.494 260.149 361.988 260.185 361.486C259.876 361.947 259.53 362.356 259.155 362.706C258.599 363.224 257.987 363.598 257.426 364.11C257.233 364.294 256.792 364.582 256.907 364.95C257.022 365.317 257.454 365.599 257.61 365.992Z" fill="#FBBEBE"/>
<path opacity="0.1" d="M257.61 365.992C257.835 366.637 257.875 367.38 257.721 368.065C257.562 368.738 257.344 369.379 257.072 369.974C256.839 370.587 256.556 371.159 256.231 371.68C257.785 371.784 259.289 370.919 260.654 369.869C261.758 369.023 262.857 367.98 263.446 366.399C263.27 366.459 263.088 366.465 262.91 366.418C262.733 366.37 262.564 366.27 262.416 366.124C262.119 365.833 261.854 365.481 261.629 365.081L260.852 363.834C260.676 363.56 260.522 363.259 260.392 362.936C260.222 362.494 260.149 361.988 260.185 361.486C259.876 361.947 259.53 362.356 259.155 362.706C258.599 363.224 257.987 363.598 257.426 364.11C257.233 364.294 256.792 364.582 256.907 364.95C257.022 365.317 257.454 365.599 257.61 365.992Z" fill="black"/>
<path d="M257.629 366.209C257.471 366.525 257.387 366.903 257.387 367.291C257.387 367.679 257.471 368.057 257.629 368.374C257.675 368.452 257.84 368.944 257.909 368.951C257.943 368.947 257.976 368.933 258.006 368.911C258.036 368.888 258.062 368.857 258.084 368.82C258.438 368.294 258.766 367.735 259.068 367.147C259.376 366.56 259.819 366.147 260.319 365.979C260.938 365.946 261.547 366.217 262.043 366.747C262.274 366.897 262.477 367.122 262.637 367.403C262.748 367.692 262.813 368.012 262.83 368.341C262.98 370.321 263.038 372.313 263.004 374.303C263.031 375.741 262.965 377.179 262.807 378.6C262.706 379.328 262.558 380.043 262.489 380.784C262.435 381.437 262.414 382.095 262.425 382.752V385.494C262.413 385.997 262.437 386.5 262.499 386.996C262.591 387.593 262.788 388.15 262.922 388.734C263.059 389.405 263.153 390.092 263.202 390.787L263.464 393.621C263.547 394.513 263.611 395.491 263.23 396.245C263.06 396.566 262.834 396.829 262.66 397.15C262.011 398.357 262.2 400.082 261.947 401.558C261.734 402.638 261.294 403.6 260.687 404.313C260.47 404.619 260.209 404.853 259.923 404.999C259.636 405.145 259.33 405.2 259.027 405.159C258.217 404.943 257.734 403.742 257.514 402.608C257.293 401.473 257.215 400.24 256.737 399.282C256.298 398.557 255.779 397.939 255.201 397.452C254.616 396.957 254.186 396.161 254 395.228C253.95 394.815 254 394.389 253.95 393.969C253.907 393.44 253.765 392.938 253.539 392.515C253.313 392.091 253.012 391.762 252.667 391.561C252.253 391.332 251.747 391.247 251.508 390.709C252.1 390.18 252.532 389.354 252.717 388.393C252.9 387.439 252.999 386.456 253.012 385.468L253.15 382.188C253.214 380.712 253.242 379.256 253.697 377.931C253.899 377.34 254.157 376.783 254.364 376.199C254.644 375.379 254.882 374.53 255.077 373.661C255.408 372.309 255.739 370.958 256.033 369.594C256.148 368.931 256.324 368.294 256.557 367.698C256.806 367.081 257.164 366.34 257.629 366.209Z" fill="#E8E8F0"/>
<path d="M252.501 387.619H253.113L253.242 386.307C253.258 386.044 253.302 385.785 253.371 385.54C253.472 385.279 253.59 385.033 253.725 384.805C254.322 383.592 254.281 381.985 254.428 380.509C254.695 378.559 255.147 376.67 255.771 374.894L256.957 371.122C257.065 370.814 257.152 370.491 257.215 370.158C257.265 369.79 257.289 369.417 257.288 369.043C257.288 368.459 257.417 366.334 257.431 365.763C257.431 365.546 257.095 365.665 257.026 365.474C256.879 365.055 256.677 366.189 256.396 366.439C256.133 366.725 255.941 367.126 255.849 367.58C255.592 368.525 255.435 369.548 255.196 370.486C254.988 371.465 254.606 372.351 254.088 373.057C253.844 373.359 253.564 373.602 253.334 373.93C252.598 374.966 252.524 376.612 252.501 378.095C252.483 379 252.363 387.619 252.501 387.619Z" fill="#2F2E41"/>
<path d="M261.303 364.641C261.019 364.853 260.772 365.156 260.583 365.525C260.394 365.895 260.268 366.322 260.213 366.773C260.108 367.677 259.923 368.559 259.661 369.397C258.916 371.246 257.017 371.784 256.488 373.785C256.355 374.458 256.284 375.152 256.277 375.851C256.185 377.288 255.854 378.672 255.752 380.102C255.702 381.215 255.72 382.332 255.808 383.441L256.474 394.736C256.602 396.397 256.535 398.078 256.277 399.708C256.96 399.847 257.657 399.682 258.272 399.236C258.893 398.829 259.463 398.272 260.066 397.799C261.096 396.986 262.236 396.415 263.142 395.333C263.305 395.148 263.445 394.927 263.556 394.677C263.695 394.203 263.788 393.704 263.832 393.194C263.91 392.795 264.01 392.404 264.131 392.027C264.463 390.887 264.751 389.722 264.995 388.537C265.161 387.754 265.293 386.956 265.391 386.15C265.465 385.494 265.506 384.838 265.543 384.182C265.591 383.165 265.733 382.161 265.966 381.197C266.543 378.894 266.87 376.478 266.936 374.034C266.954 373.683 266.937 373.329 266.885 372.985C266.784 372.563 266.649 372.16 266.481 371.784C266.205 371.043 266.021 370.23 265.782 369.475C265.13 367.814 264.195 366.413 263.064 365.402C262.531 364.884 261.905 364.333 261.303 364.641Z" fill="#2F2E41"/>
<path d="M247.411 383.073C246.939 382.72 246.511 382.256 246.146 381.702C245.98 381.427 245.843 381.119 245.686 380.843C245.26 380.189 244.705 379.732 244.095 379.531C243.491 379.342 242.874 379.256 242.256 379.275C241.841 379.236 241.424 379.307 241.028 379.485C240.83 379.58 240.652 379.743 240.51 379.961C240.368 380.179 240.266 380.443 240.214 380.732C240.197 381.088 240.246 381.445 240.354 381.767C240.463 382.089 240.629 382.365 240.835 382.568C241.194 382.989 241.618 383.281 242.072 383.421C242.441 383.515 242.814 383.578 243.189 383.611C245.387 383.939 247.351 385.645 249.278 387.199C250.97 388.572 252.696 389.849 254.456 391.03C254.524 390.28 254.553 389.523 254.543 388.767C254.543 388.203 254.511 387.337 254.138 387.002C253.608 386.686 253.057 386.451 252.492 386.301C251.357 385.772 250.249 385.132 249.176 384.385C248.569 384.011 247.985 383.552 247.411 383.073Z" fill="#FBBEBE"/>
<path d="M257.026 365.349C259.19 365.349 260.944 362.833 260.944 359.728C260.944 356.623 259.19 354.106 257.026 354.106C254.863 354.106 253.108 356.623 253.108 359.728C253.108 362.833 254.863 365.349 257.026 365.349Z" fill="#FBBEBE"/>
<path d="M262.42 371.01C262.108 371.637 261.853 372.318 261.662 373.037C261.202 374.454 260.42 375.661 260.038 377.163C259.657 378.665 259.652 380.594 258.866 381.82C258.708 382.008 258.589 382.253 258.521 382.529C258.518 382.7 258.505 382.871 258.484 383.04C258.369 383.486 257.859 383.506 257.762 383.965C257.735 384.096 257.762 384.241 257.716 384.372C257.638 384.667 257.362 384.713 257.183 384.89C256.801 385.258 256.879 386.11 256.608 386.642C256.49 386.839 256.337 386.989 256.165 387.076C255.993 387.162 255.808 387.182 255.628 387.134C255.272 387.03 254.929 386.846 254.612 386.589C254.498 386.5 254.373 386.444 254.244 386.425C254.092 386.433 253.944 386.506 253.821 386.635C253.474 386.999 253.196 387.481 253.012 388.036C252.827 388.591 252.742 389.203 252.764 389.816C252.816 391.046 253.022 392.252 253.371 393.378C253.409 393.573 253.477 393.754 253.568 393.91C253.705 394.063 253.871 394.155 254.045 394.173C254.218 394.192 254.392 394.137 254.543 394.014C254.843 393.76 255.163 393.556 255.495 393.404C256.102 393.247 256.695 393.844 257.312 393.791C257.76 393.697 258.183 393.432 258.535 393.024C259.154 392.497 259.709 391.833 260.181 391.056C260.448 390.551 260.641 389.98 260.88 389.443C261.184 388.789 261.514 388.16 261.869 387.56L264.131 383.624C264.356 383.25 264.559 382.851 264.738 382.43C264.939 381.856 265.093 381.251 265.198 380.627C265.44 379.587 265.594 378.51 265.658 377.419C265.672 376.517 265.616 375.615 265.492 374.73C265.424 373.848 265.269 372.985 265.032 372.165C264.54 370.682 263.345 369.475 262.42 371.01Z" fill="#2F2E41"/>
<path d="M270.293 363.677C270.296 362.68 270.134 361.697 269.819 360.808C269.504 359.918 269.046 359.148 268.481 358.56C268.463 356.79 268.005 355.087 267.189 353.752C266.373 352.418 265.252 351.54 264.025 351.273C263.789 349.594 263.145 348.089 262.207 347.022C261.269 345.955 260.096 345.395 258.896 345.441C257.697 345.487 256.547 346.137 255.65 347.275C254.754 348.413 254.168 349.966 253.996 351.66C252.368 351.135 250.878 351.817 250.607 353.247C250.335 354.677 251.485 356.527 253.2 357.183C253.741 357.399 254.305 357.479 254.865 357.419C255.264 358.259 255.782 358.969 256.386 359.506C256.989 360.043 257.665 360.393 258.369 360.535C258.578 361.887 259.046 363.13 259.722 364.124C260.398 365.118 261.254 365.824 262.195 366.163C262.457 367.059 262.862 367.857 263.377 368.492C263.377 368.669 263.377 368.852 263.377 369.036C263.377 369.657 263.463 370.272 263.629 370.846C263.796 371.42 264.04 371.941 264.348 372.38C264.656 372.819 265.021 373.168 265.424 373.405C265.826 373.643 266.257 373.765 266.692 373.765C267.128 373.765 267.559 373.643 267.961 373.405C268.363 373.168 268.729 372.819 269.037 372.38C269.345 371.941 269.589 371.42 269.756 370.846C269.922 370.272 270.008 369.657 270.008 369.036C270.008 368.314 269.9 367.601 269.691 366.943C270.095 365.953 270.304 364.823 270.293 363.677V363.677Z" fill="#F86D70"/>
<path opacity="0.1" d="M251.71 353.549C251.982 352.119 253.472 351.437 255.1 351.962C255.293 350.24 255.906 348.672 256.832 347.534C257.758 346.396 258.936 345.762 260.158 345.743H260.494C260.025 345.54 259.539 345.436 259.05 345.435C257.828 345.453 256.65 346.088 255.724 347.226C254.798 348.364 254.184 349.932 253.991 351.653C252.363 351.129 250.873 351.811 250.602 353.241C250.331 354.671 251.48 356.521 253.196 357.177C253.517 357.304 253.847 357.385 254.18 357.419C252.538 356.717 251.439 355.012 251.71 353.549Z" fill="black"/>
<path opacity="0.1" d="M264.462 369.312C264.455 369.132 264.455 368.953 264.462 368.774C263.944 368.142 263.539 367.344 263.28 366.445C262.338 366.108 261.48 365.401 260.804 364.406C260.128 363.41 259.661 362.165 259.454 360.81C258.749 360.671 258.073 360.323 257.468 359.787C256.864 359.252 256.345 358.541 255.946 357.701C255.619 357.74 255.291 357.727 254.966 357.662C255.369 358.434 255.875 359.085 256.455 359.578C257.035 360.07 257.678 360.393 258.346 360.528C258.555 361.881 259.023 363.123 259.699 364.117C260.374 365.111 261.231 365.817 262.172 366.156C262.434 367.053 262.839 367.85 263.354 368.485C263.354 368.662 263.354 368.846 263.354 369.029C263.339 370.301 263.677 371.529 264.295 372.446C264.913 373.363 265.76 373.894 266.651 373.923C266.001 373.563 265.443 372.929 265.052 372.105C264.661 371.281 264.455 370.306 264.462 369.312V369.312Z" fill="black"/>
<path d="M258.823 361.792C259.088 361.505 259.085 360.863 258.816 360.358C258.547 359.853 258.115 359.676 257.85 359.963C257.585 360.25 257.588 360.892 257.857 361.397C258.125 361.902 258.558 362.079 258.823 361.792Z" fill="#FBBEBE"/>
<path d="M211.899 234.323C301.314 234.323 373.799 228.995 373.799 222.424C373.799 215.853 301.314 210.525 211.899 210.525C122.485 210.525 50 215.853 50 222.424C50 228.995 122.485 234.323 211.899 234.323Z" fill="#E6E6E6"/>
<path d="M123.25 228.015C150.041 228.015 171.759 211.894 171.759 192.008C171.759 172.121 150.041 156 123.25 156C96.4593 156 74.741 172.121 74.741 192.008C74.741 211.894 96.4593 228.015 123.25 228.015Z" fill="#3F3D56"/>
<path d="M142.681 176.897H103.819C102.102 176.899 100.455 177.406 99.241 178.307C98.0268 179.209 97.3437 180.431 97.3418 181.705V202.31C97.3437 203.585 98.0267 204.807 99.241 205.708C100.455 206.61 102.102 207.117 103.819 207.118H142.681C144.398 207.117 146.045 206.61 147.259 205.708C148.473 204.807 149.156 203.585 149.158 202.31V181.705C149.156 180.431 148.473 179.209 147.259 178.307C146.045 177.406 144.398 176.899 142.681 176.897V176.897ZM142.681 179.645C142.913 179.645 143.144 179.668 143.369 179.711L123.255 191.622L103.258 179.687C103.443 179.659 103.63 179.645 103.819 179.645H142.681ZM142.681 204.371H103.819C103.083 204.37 102.377 204.153 101.857 203.767C101.337 203.38 101.044 202.857 101.043 202.31V181.89L122.09 194.452C122.418 194.648 122.826 194.755 123.247 194.755C123.667 194.756 124.075 194.65 124.404 194.455L145.457 181.989V202.31C145.456 202.857 145.164 203.38 144.643 203.767C144.123 204.153 143.417 204.37 142.681 204.371V204.371Z" fill="white"/>
<path opacity="0.1" d="M708.458 166.596C709.067 164.817 710.081 163.385 711.333 162.533C712.586 161.681 714.004 161.46 715.356 161.905C716.302 161.072 717.382 160.599 718.493 160.531C719.604 160.463 720.709 160.802 721.702 161.517C722.694 162.232 723.542 163.297 724.164 164.613C724.785 165.928 725.16 167.448 725.252 169.029C725.252 168.773 725.252 168.517 725.252 168.255C725.25 166.605 724.939 164.986 724.351 163.565C723.764 162.144 722.922 160.972 721.911 160.17C720.9 159.368 719.758 158.965 718.602 159.002C717.445 159.04 716.317 159.517 715.333 160.384C713.981 159.938 712.563 160.16 711.31 161.011C710.058 161.863 709.044 163.295 708.435 165.074C707.677 166.097 707.077 167.335 706.674 168.709C706.271 170.082 706.073 171.561 706.095 173.05C706.095 173.312 706.095 173.568 706.095 173.824C706.185 171.065 707.034 168.467 708.458 166.596Z" fill="black"/>
<path d="M802.21 403.7C791.191 419.663 777.213 435.101 759.529 449.073C759.136 449.389 758.739 449.696 758.339 450.009L716.439 435.285C716.695 434.969 716.976 434.614 717.278 434.226C735.277 411.367 843.927 271.925 840.493 240.344C840.893 242.948 853.772 329.089 802.21 403.7Z" fill="#E6E6E6"/>
<path d="M767.612 451.914C767.026 452.162 766.424 452.404 765.819 452.638L734.386 441.592C734.826 441.361 735.338 441.087 735.926 440.78C745.556 435.647 774.191 420.249 802.21 403.7C832.321 385.917 861.726 366.809 866.093 357.688C865.206 359.779 837.646 423.356 767.612 451.914Z" fill="#E6E6E6"/>
<path d="M575.55 444.112C575.55 444.112 576.776 443.726 581.673 448.483C581.673 448.483 597.311 450.645 594.725 455.879C592.138 461.113 572.031 460.949 570.12 460.149C568.209 459.349 553.001 459.366 554.052 455.809C555.103 452.253 561.162 448.278 561.162 448.278C561.162 448.278 563.947 452.468 568.277 452.485C574.074 452.509 576.041 448.858 575.058 445.207C575.048 445.173 575.587 444.134 575.55 444.112Z" fill="#2F2E41"/>
<path d="M803.746 210.842H801.321V161.536C801.321 153.968 797.27 146.71 790.061 141.358C782.851 136.006 773.073 133 762.877 133H622.148C611.952 133 602.174 136.006 594.964 141.358C587.755 146.71 583.704 153.968 583.704 161.536V432.033C583.704 439.601 587.755 446.859 594.964 452.211C602.174 457.562 611.952 460.569 622.148 460.569H762.877C773.072 460.569 782.851 457.562 790.06 452.211C797.27 446.859 801.32 439.601 801.32 432.033V245.939H803.746L803.746 210.842Z" fill="#3F3D56"/>
<path d="M764.428 140.423H746.058C746.904 141.961 747.226 143.629 746.998 145.281C746.77 146.933 745.998 148.518 744.751 149.896C743.503 151.274 741.817 152.404 739.843 153.184C737.869 153.965 735.666 154.374 733.429 154.374H652.807C650.571 154.374 648.368 153.965 646.394 153.184C644.42 152.403 642.735 151.274 641.487 149.896C640.24 148.518 639.468 146.933 639.24 145.282C639.011 143.63 639.334 141.962 640.179 140.425H623.018C615.404 140.425 608.102 142.67 602.717 146.667C597.333 150.663 594.308 156.084 594.308 161.736V431.834C594.308 437.486 597.333 442.907 602.717 446.903C608.102 450.9 615.404 453.145 623.018 453.145H764.423C772.037 453.145 779.34 450.9 784.724 446.903C790.108 442.907 793.133 437.486 793.133 431.834V431.834V161.735C793.133 156.082 790.108 150.662 784.724 146.665C779.34 142.669 772.037 140.423 764.423 140.423H764.428V140.423Z" fill="white"/>
<path d="M693.966 438.051C702.673 438.051 709.732 432.812 709.732 426.349C709.732 419.885 702.673 414.646 693.966 414.646C685.259 414.646 678.201 419.885 678.201 426.349C678.201 432.812 685.259 438.051 693.966 438.051Z" fill="#E6E6E6"/>
<path d="M630.009 318.124C628.519 318.124 627.306 319.151 627.306 320.414C627.306 321.677 628.519 322.704 630.009 322.704H757.432C758.923 322.704 760.135 321.677 760.135 320.414C760.135 319.151 758.923 318.124 757.432 318.124H630.009Z" fill="#E6E6E6"/>
<path d="M630.009 372.135C628.519 372.135 627.306 373.163 627.306 374.426C627.306 375.688 628.519 376.716 630.009 376.716H757.432C758.923 376.716 760.135 375.688 760.135 374.426C760.135 373.163 758.923 372.135 757.432 372.135H630.009Z" fill="#E6E6E6"/>
<path d="M630.009 331.864C628.519 331.864 627.306 332.892 627.306 334.154C627.306 335.417 628.519 336.444 630.009 336.444H684.84C686.33 336.444 687.543 335.417 687.543 334.154C687.543 332.892 686.33 331.864 684.84 331.864H630.009Z" fill="#E6E6E6"/>
<path d="M630.009 344.961C628.519 344.961 627.306 345.989 627.306 347.251C627.306 348.514 628.519 349.541 630.009 349.541H757.432C758.923 349.541 760.135 348.514 760.135 347.251C760.135 345.989 758.923 344.961 757.432 344.961H630.009Z" fill="#E6E6E6"/>
<path d="M630.009 358.702C628.519 358.702 627.306 359.729 627.306 360.992C627.306 362.254 628.519 363.282 630.009 363.282H684.84C686.33 363.282 687.543 362.254 687.543 360.992C687.543 359.729 686.33 358.702 684.84 358.702H630.009Z" fill="#E6E6E6"/>
<path d="M654.064 213.85H733.385C734.261 213.85 735.101 214.109 735.721 214.569C736.34 215.029 736.689 215.652 736.69 216.303V277.623C736.689 278.273 736.34 278.897 735.721 279.357C735.101 279.816 734.261 280.075 733.385 280.076H654.064C653.188 280.075 652.348 279.816 651.728 279.357C651.109 278.897 650.76 278.273 650.759 277.623V216.303C650.76 215.652 651.109 215.029 651.728 214.569C652.348 214.109 653.188 213.85 654.064 213.85Z" fill="#3F3D56"/>
<path d="M716.483 267.431C716.778 267.431 717.071 267.388 717.343 267.305C717.616 267.221 717.864 267.099 718.072 266.944C718.281 266.789 718.447 266.605 718.56 266.403C718.673 266.201 718.731 265.984 718.731 265.765C718.731 265.546 718.673 265.329 718.56 265.127C718.447 264.925 718.281 264.741 718.072 264.586C717.864 264.432 717.616 264.309 717.343 264.226C717.071 264.142 716.778 264.099 716.483 264.1H670.966C670.671 264.099 670.379 264.142 670.106 264.226C669.834 264.309 669.586 264.432 669.377 264.586C669.168 264.741 669.003 264.925 668.89 265.127C668.777 265.329 668.719 265.546 668.719 265.765C668.719 265.984 668.777 266.201 668.89 266.403C669.003 266.605 669.168 266.789 669.377 266.944C669.586 267.099 669.834 267.221 670.106 267.305C670.379 267.388 670.671 267.431 670.966 267.431H716.483Z" fill="white"/>
<path d="M716.483 257.618C717.078 257.618 717.649 257.442 718.07 257.13C718.491 256.818 718.727 256.394 718.727 255.952C718.727 255.51 718.491 255.087 718.07 254.774C717.649 254.462 717.078 254.287 716.483 254.287H670.966C670.671 254.287 670.38 254.33 670.107 254.413C669.835 254.497 669.588 254.62 669.379 254.774C669.171 254.929 669.006 255.113 668.893 255.315C668.78 255.517 668.722 255.733 668.722 255.952C668.722 256.171 668.78 256.387 668.893 256.59C669.006 256.792 669.171 256.975 669.379 257.13C669.588 257.285 669.835 257.407 670.107 257.491C670.38 257.575 670.671 257.618 670.966 257.618H716.483Z" fill="white"/>
<path d="M693.725 226.495C696.518 226.495 699.249 227.11 701.571 228.262C703.894 229.414 705.704 231.051 706.773 232.967C707.842 234.882 708.122 236.99 707.577 239.024C707.032 241.058 705.687 242.926 703.712 244.392C701.736 245.858 699.22 246.857 696.48 247.261C693.74 247.666 690.9 247.458 688.32 246.665C685.739 245.871 683.533 244.527 681.981 242.803C680.429 241.079 679.601 239.052 679.601 236.979C679.605 234.199 681.094 231.534 683.742 229.569C686.39 227.604 689.98 226.498 693.725 226.495V226.495Z" fill="white"/>
<defs>
<filter id="filter0_d" x="171.54" y="259.486" width="44.6596" height="70.7481" filterUnits="userSpaceOnUse" color-interpolation-filters="sRGB">
<feFlood flood-opacity="0" result="BackgroundImageFix"/>
<feColorMatrix in="SourceAlpha" type="matrix" values="0 0 0 0 0 0 0 0 0 0 0 0 0 0 0 0 0 0 127 0"/>
<feOffset dy="4"/>
<feGaussianBlur stdDeviation="2"/>
<feColorMatrix type="matrix" values="0 0 0 0 0 0 0 0 0 0 0 0 0 0 0 0 0 0 0.25 0"/>
<feBlend mode="normal" in2="BackgroundImageFix" result="effect1_dropShadow"/>
<feBlend mode="normal" in="SourceGraphic" in2="effect1_dropShadow" result="shape"/>
</filter>
<linearGradient id="paint0_linear" x1="28749" y1="44055.7" x2="28749" y2="37374.1" gradientUnits="userSpaceOnUse">
<stop stop-color="#808080" stop-opacity="0.25"/>
<stop offset="0.54" stop-color="#808080" stop-opacity="0.12"/>
<stop offset="1" stop-color="#808080" stop-opacity="0.1"/>
</linearGradient>
</defs>
</svg>
