<svg width="1211" height="511" viewBox="0 0 1211 511" fill="none" xmlns="http://www.w3.org/2000/svg">
<g clip-path="url(#clip0)">
<path d="M776.074 308.19C776.074 308.19 955.79 158.282 1059.3 308.19Z" fill="#F2F2F2"/>
<path d="M1119.89 246.039C1121.11 246.483 1122.42 246.637 1123.71 246.489C1125 246.342 1126.24 245.896 1127.33 245.188C1128.42 244.48 1129.33 243.529 1129.99 242.409C1130.65 241.289 1131.04 240.032 1131.13 238.736C1131.22 237.44 1131.01 236.141 1130.51 234.941C1130.01 233.741 1129.24 232.673 1128.26 231.821C1127.28 230.969 1126.11 230.357 1124.85 230.032C1123.6 229.707 1122.28 229.68 1121.01 229.95L1121.22 234.268L1119.17 230.568C1117.17 231.51 1115.62 233.209 1114.86 235.293C1114.6 236.023 1114.43 236.787 1114.38 237.562C1114.25 239.381 1114.72 241.193 1115.71 242.723C1116.71 244.252 1118.17 245.417 1119.89 246.039V246.039Z" fill="#57B894"/>
<path d="M1130 296.117C1129.28 292.445 1132.41 289.19 1135.5 287.074C1138.58 284.958 1142.19 282.879 1143.25 279.288C1144.76 274.127 1140.25 269.401 1136.74 265.325C1134.13 262.3 1131.9 258.978 1130.07 255.427C1129.28 254.032 1128.74 252.508 1128.48 250.926C1128.2 248.638 1128.94 246.362 1129.68 244.18C1132.15 236.911 1134.79 229.703 1137.6 222.555" stroke="#3F3D56" stroke-miterlimit="10"/>
<path d="M1120.23 244.927C1121.46 245.371 1122.76 245.525 1124.06 245.378C1125.35 245.23 1126.59 244.785 1127.68 244.077C1128.77 243.369 1129.68 242.417 1130.34 241.298C1131 240.178 1131.39 238.92 1131.48 237.624C1131.57 236.328 1131.35 235.029 1130.86 233.829C1130.36 232.629 1129.59 231.561 1128.61 230.709C1127.62 229.857 1126.46 229.245 1125.2 228.92C1123.94 228.596 1122.62 228.568 1121.35 228.839L1121.56 233.156L1119.52 229.456C1117.51 230.398 1115.96 232.098 1115.21 234.181C1114.94 234.911 1114.78 235.675 1114.73 236.45C1114.6 238.27 1115.07 240.081 1116.06 241.611C1117.05 243.141 1118.52 244.305 1120.23 244.927V244.927Z" stroke="#3F3D56" stroke-miterlimit="10"/>
<path d="M1128.98 221.064C1129.46 219.742 1130.26 218.562 1131.32 217.632C1132.37 216.703 1133.65 216.054 1135.02 215.745L1135.71 219.85L1136.99 215.538C1138.77 215.565 1140.49 216.156 1141.91 217.225C1143.34 218.295 1144.38 219.789 1144.9 221.49C1145.41 223.192 1145.38 225.013 1144.79 226.692C1144.2 228.371 1143.1 229.819 1141.63 230.829C1140.17 231.839 1138.42 232.358 1136.64 232.31C1134.86 232.262 1133.15 231.651 1131.74 230.565C1130.33 229.478 1129.3 227.972 1128.81 226.264C1128.31 224.557 1128.37 222.736 1128.98 221.064H1128.98Z" fill="#57B894"/>
<path d="M1129.44 219.582C1129.92 218.26 1130.72 217.08 1131.78 216.15C1132.83 215.22 1134.11 214.571 1135.48 214.263L1136.17 218.367L1137.45 214.056C1139.23 214.083 1140.95 214.673 1142.38 215.743C1143.8 216.813 1144.84 218.306 1145.36 220.008C1145.87 221.71 1145.84 223.531 1145.25 225.21C1144.66 226.889 1143.56 228.337 1142.09 229.347C1140.63 230.357 1138.88 230.875 1137.1 230.828C1135.32 230.78 1133.61 230.169 1132.2 229.082C1130.79 227.996 1129.76 226.49 1129.27 224.782C1128.77 223.075 1128.83 221.254 1129.44 219.582V219.582Z" stroke="#3F3D56" stroke-miterlimit="10"/>
<path d="M1135.27 265.408C1137.2 266.11 1139.33 266.076 1141.24 265.311C1143.16 264.545 1144.72 263.103 1145.64 261.259C1146.56 259.415 1146.77 257.298 1146.22 255.311C1145.68 253.324 1144.42 251.606 1142.69 250.485L1141.71 253.798L1141.01 249.645C1141 249.642 1141 249.639 1140.99 249.637C1139.95 249.262 1138.85 249.094 1137.75 249.143C1136.65 249.192 1135.57 249.457 1134.57 249.924C1133.57 250.391 1132.68 251.049 1131.93 251.862C1131.19 252.675 1130.61 253.627 1130.24 254.662C1129.86 255.698 1129.69 256.797 1129.74 257.897C1129.79 258.998 1130.06 260.078 1130.52 261.076C1130.99 262.074 1131.65 262.97 1132.46 263.713C1133.28 264.456 1134.23 265.032 1135.27 265.408V265.408Z" fill="#57B894"/>
<path d="M1135.66 263.907C1137.6 264.609 1139.73 264.575 1141.64 263.809C1143.56 263.044 1145.12 261.602 1146.04 259.758C1146.96 257.914 1147.17 255.796 1146.62 253.809C1146.08 251.822 1144.82 250.105 1143.09 248.984L1142.11 252.297L1141.41 248.144C1141.4 248.141 1141.4 248.138 1141.39 248.136C1139.3 247.377 1136.99 247.48 1134.97 248.423C1132.96 249.365 1131.4 251.069 1130.64 253.161C1129.88 255.252 1129.98 257.559 1130.92 259.574C1131.87 261.59 1133.57 263.148 1135.66 263.907V263.907Z" stroke="#3F3D56" stroke-miterlimit="10"/>
<path d="M1126.53 279.339C1126.86 281.234 1127.84 282.956 1129.29 284.217C1130.74 285.479 1132.58 286.203 1134.51 286.267C1136.43 286.332 1138.32 285.734 1139.85 284.573C1141.39 283.412 1142.48 281.759 1142.94 279.891C1143.4 278.024 1143.2 276.054 1142.38 274.314C1141.56 272.574 1140.16 271.169 1138.43 270.334C1136.7 269.499 1134.73 269.286 1132.86 269.729C1130.98 270.173 1129.32 271.247 1128.14 272.77L1131.88 278.396L1126.77 275.41C1126.38 276.681 1126.29 278.028 1126.53 279.339V279.339Z" fill="#57B894"/>
<path d="M1126.87 278.227C1127.21 280.122 1128.18 281.844 1129.63 283.106C1131.09 284.367 1132.93 285.091 1134.85 285.156C1136.78 285.221 1138.66 284.622 1140.2 283.461C1141.73 282.3 1142.82 280.648 1143.28 278.78C1143.74 276.912 1143.54 274.943 1142.72 273.203C1141.9 271.463 1140.51 270.057 1138.78 269.223C1137.04 268.388 1135.07 268.174 1133.2 268.618C1131.33 269.061 1129.66 270.135 1128.49 271.659L1132.23 277.284L1127.12 274.298C1126.72 275.569 1126.64 276.917 1126.87 278.227V278.227Z" stroke="#3F3D56" stroke-miterlimit="10"/>
<path d="M1118.35 301.091C1118.35 301.091 1125.76 298.19 1127.99 296.601C1130.22 295.013 1139.38 293.116 1139.93 295.664C1140.49 298.211 1151.07 308.335 1142.7 308.403C1134.34 308.47 1123.27 309.774 1121.05 308.418C1118.82 307.061 1118.35 301.091 1118.35 301.091Z" fill="#656380"/>
<path opacity="0.2" d="M1142.85 307.516C1134.49 307.583 1123.42 308.887 1121.2 307.531C1119.5 306.498 1118.82 302.791 1118.6 301.081C1118.44 301.088 1118.35 301.091 1118.35 301.091C1118.35 301.091 1118.82 307.061 1121.05 308.417C1123.27 309.774 1134.34 308.47 1142.7 308.403C1145.12 308.383 1145.95 307.525 1145.91 306.254C1145.57 307.022 1144.65 307.501 1142.85 307.516Z" fill="black"/>
<path d="M796.964 223.107H777.345C773.807 223.107 770.939 225.973 770.939 229.509V302.058C770.939 305.594 773.807 308.46 777.345 308.46H796.964C800.502 308.46 803.369 305.594 803.369 302.058V229.509C803.369 225.973 800.502 223.107 796.964 223.107Z" fill="#6F9A51"/>
<path d="M858.581 171.787H838.962C835.424 171.787 832.556 174.653 832.556 178.189V302.058C832.556 305.594 835.424 308.46 838.962 308.46H858.581C862.119 308.46 864.986 305.594 864.986 302.058V178.189C864.986 174.653 862.119 171.787 858.581 171.787Z" fill="#6F9A51"/>
<path d="M920.198 136.133H900.579C897.041 136.133 894.174 138.999 894.174 142.535V302.058C894.174 305.594 897.041 308.46 900.579 308.46H920.198C923.736 308.46 926.604 305.594 926.604 302.058V142.535C926.604 138.999 923.736 136.133 920.198 136.133Z" fill="#6F9A51"/>
<path d="M981.815 102.1H962.196C958.658 102.1 955.791 104.966 955.791 108.502V302.058C955.791 305.594 958.658 308.46 962.196 308.46H981.815C985.353 308.46 988.221 305.594 988.221 302.058V108.502C988.221 104.966 985.353 102.1 981.815 102.1Z" fill="#6F9A51"/>
<path d="M1043.43 42.6766H1023.81C1020.28 42.6766 1017.41 45.5428 1017.41 49.0784V302.058C1017.41 305.594 1020.28 308.46 1023.81 308.46H1043.43C1046.97 308.46 1049.84 305.594 1049.84 302.058V49.0784C1049.84 45.5428 1046.97 42.6766 1043.43 42.6766Z" fill="#6F9A51"/>
<path d="M801.648 218.595H782.028C778.491 218.595 775.623 221.461 775.623 224.996V297.546C775.623 301.082 778.491 303.948 782.028 303.948H801.648C805.185 303.948 808.053 301.082 808.053 297.546V224.996C808.053 221.461 805.185 218.595 801.648 218.595Z" fill="#488744" stroke="#3F3D56" stroke-miterlimit="10"/>
<path d="M863.265 167.275H843.645C840.107 167.275 837.24 170.141 837.24 173.676V297.546C837.24 301.082 840.107 303.948 843.645 303.948H863.265C866.802 303.948 869.67 301.082 869.67 297.546V173.676C869.67 170.141 866.802 167.275 863.265 167.275Z" fill="#488744" stroke="#3F3D56" stroke-miterlimit="10"/>
<path d="M924.881 131.621H905.262C901.724 131.621 898.857 134.487 898.857 138.023V297.546C898.857 301.082 901.724 303.948 905.262 303.948H924.881C928.419 303.948 931.287 301.082 931.287 297.546V138.023C931.287 134.487 928.419 131.621 924.881 131.621Z" fill="#488744" stroke="#3F3D56" stroke-miterlimit="10"/>
<path d="M986.499 97.5875H966.879C963.342 97.5875 960.474 100.454 960.474 103.989V297.546C960.474 301.082 963.342 303.948 966.879 303.948H986.499C990.036 303.948 992.904 301.082 992.904 297.546V103.989C992.904 100.454 990.036 97.5875 986.499 97.5875Z" fill="#488744" stroke="#3F3D56" stroke-miterlimit="10"/>
<path d="M1048.12 38.1644H1028.5C1024.96 38.1644 1022.09 41.0306 1022.09 44.5662V297.546C1022.09 301.082 1024.96 303.948 1028.5 303.948H1048.12C1051.65 303.948 1054.52 301.082 1054.52 297.546V44.5662C1054.52 41.0306 1051.65 38.1644 1048.12 38.1644Z" fill="#488744" stroke="#3F3D56" stroke-miterlimit="10"/>
<path d="M1150.37 308.73H685" stroke="#3F3D56" stroke-miterlimit="10"/>
<path d="M791.208 186.102L852.825 134.782L914.983 99.6688L976.6 65.6356L1038.22 6.21242" stroke="#3F3D56" stroke-miterlimit="10"/>
<path d="M789.587 194.746C792.87 194.746 795.532 192.085 795.532 188.804C795.532 185.522 792.87 182.861 789.587 182.861C786.303 182.861 783.641 185.522 783.641 188.804C783.641 192.085 786.303 194.746 789.587 194.746Z" fill="#F2F2F2"/>
<path d="M851.204 143.426C854.487 143.426 857.149 140.765 857.149 137.484C857.149 134.202 854.487 131.541 851.204 131.541C847.92 131.541 845.258 134.202 845.258 137.484C845.258 140.765 847.92 143.426 851.204 143.426Z" fill="#F2F2F2"/>
<path d="M913.361 108.312C916.645 108.312 919.307 105.652 919.307 102.37C919.307 99.088 916.645 96.4276 913.361 96.4276C910.078 96.4276 907.416 99.088 907.416 102.37C907.416 105.652 910.078 108.312 913.361 108.312Z" fill="#F2F2F2"/>
<path d="M974.978 74.2789C978.262 74.2789 980.924 71.6185 980.924 68.3366C980.924 65.0548 978.262 62.3943 974.978 62.3943C971.695 62.3943 969.033 65.0548 969.033 68.3366C969.033 71.6185 971.695 74.2789 974.978 74.2789Z" fill="#F2F2F2"/>
<path d="M1036.6 14.8558C1039.88 14.8558 1042.54 12.1953 1042.54 8.91347C1042.54 5.63162 1039.88 2.97115 1036.6 2.97115C1033.31 2.97115 1030.65 5.63162 1030.65 8.91347C1030.65 12.1953 1033.31 14.8558 1036.6 14.8558Z" fill="#F2F2F2"/>
<path d="M791.208 192.045C794.492 192.045 797.154 189.384 797.154 186.102C797.154 182.821 794.492 180.16 791.208 180.16C787.925 180.16 785.263 182.821 785.263 186.102C785.263 189.384 787.925 192.045 791.208 192.045Z" stroke="#3F3D56" stroke-miterlimit="10"/>
<path d="M852.825 140.725C856.109 140.725 858.771 138.064 858.771 134.782C858.771 131.501 856.109 128.84 852.825 128.84C849.542 128.84 846.88 131.501 846.88 134.782C846.88 138.064 849.542 140.725 852.825 140.725Z" stroke="#3F3D56" stroke-miterlimit="10"/>
<path d="M914.983 105.611C918.266 105.611 920.928 102.951 920.928 99.6688C920.928 96.387 918.266 93.7265 914.983 93.7265C911.699 93.7265 909.037 96.387 909.037 99.6688C909.037 102.951 911.699 105.611 914.983 105.611Z" stroke="#3F3D56" stroke-miterlimit="10"/>
<path d="M976.6 71.5779C979.883 71.5779 982.545 68.9174 982.545 65.6356C982.545 62.3537 979.883 59.6933 976.6 59.6933C973.316 59.6933 970.654 62.3537 970.654 65.6356C970.654 68.9174 973.316 71.5779 976.6 71.5779Z" stroke="#3F3D56" stroke-miterlimit="10"/>
<path d="M1038.22 12.1554C1041.5 12.1554 1044.16 9.49489 1044.16 6.21304C1044.16 2.93119 1041.5 0.270729 1038.22 0.270729C1034.93 0.270729 1032.27 2.93119 1032.27 6.21304C1032.27 9.49489 1034.93 12.1554 1038.22 12.1554Z" stroke="#3F3D56" stroke-miterlimit="10"/>
<path d="M756.391 304.357L727.895 304.359L727.895 293.91L745.381 293.909C748.301 293.909 751.101 295.009 753.166 296.969C755.231 298.928 756.391 301.586 756.391 304.357V304.357V304.357Z" fill="#2F2E41"/>
<path d="M792.916 176.31C793.054 175.298 792.952 174.269 792.617 173.297C792.282 172.325 791.723 171.433 790.978 170.684C790.233 169.936 789.321 169.348 788.306 168.963C787.292 168.578 786.199 168.406 785.104 168.457L771.855 145.811L768.874 155.534L777.951 176.288C778.166 177.995 779.045 179.57 780.422 180.714C781.799 181.857 783.579 182.49 785.423 182.493C787.268 182.496 789.05 181.868 790.431 180.728C791.812 179.589 792.696 178.017 792.916 176.31V176.31Z" fill="#A0616A"/>
<path d="M691.749 266.339L698.936 271.447L722.599 246.889L711.99 239.35L691.749 266.339Z" fill="#A0616A"/>
<path d="M708.015 287.927L685 271.981L691.492 263.542L705.615 273.327C707.973 274.961 709.551 277.417 710.001 280.155C710.451 282.893 709.737 285.689 708.015 287.927V287.927L708.015 287.927Z" fill="#2F2E41"/>
<path d="M730.313 293.456L739.458 293.456L743.808 260.442L730.311 260.443L730.313 293.456Z" fill="#A0616A"/>
<path d="M757.384 164.264C757.384 164.264 761.865 204.883 750.663 232.895L742.449 286.12H728.261L729.754 223.091L724.527 167.065C724.527 167.065 734.982 141.854 757.384 164.264Z" fill="#2F2E41"/>
<path d="M709.629 167.221L724.391 215.548L695.605 258.973L709.998 270.53L742.844 221.852L733.249 162.318L709.629 167.221Z" fill="#2F2E41"/>
<path d="M747.183 57.7742C757.565 57.7742 765.982 50.1785 765.982 40.8088C765.982 31.439 757.565 23.8433 747.183 23.8433C736.8 23.8433 728.383 31.439 728.383 40.8088C728.383 50.1785 736.8 57.7742 747.183 57.7742Z" fill="#A0616A"/>
<path d="M732.003 65.3592L732.126 65.3499L732.229 65.2854L732.23 65.2852L732.23 65.2852L732.23 65.2849L732.233 65.283L732.252 65.2716C732.27 65.2609 732.299 65.2444 732.338 65.2228C732.415 65.1796 732.534 65.1164 732.691 65.0401C733.004 64.8876 733.471 64.6834 734.073 64.4837C735.276 64.0842 737.013 63.7039 739.136 63.7884C743.339 63.9556 749.146 65.9478 755.378 73.4317L758.688 168.686C758.421 168.431 758.097 168.141 757.716 167.832C756.453 166.808 754.557 165.574 752.015 164.722C746.911 163.011 739.291 162.868 729.097 168.87C719.089 174.762 713.115 174.336 709.685 172.609C707.956 171.738 706.824 170.515 706.124 169.507C705.774 169.003 705.533 168.555 705.381 168.235C705.305 168.076 705.251 167.949 705.217 167.864C705.204 167.83 705.193 167.803 705.186 167.783L705.183 167.762C705.176 167.715 705.167 167.644 705.154 167.55C705.128 167.362 705.091 167.082 705.044 166.717C704.951 165.987 704.819 164.915 704.666 163.549C704.359 160.817 703.967 156.909 703.626 152.209C702.945 142.807 702.467 130.246 703.282 117.593C704.098 104.931 706.206 92.2207 710.668 82.4958C715.125 72.7816 721.886 66.1263 732.003 65.3592Z" fill="#488744" fill-opacity="0.3" stroke="black"/>
<path d="M769.023 126.864L769.027 126.944L769.056 127.018L784.663 167.001L776.403 173.498L747.513 125.955L741.543 86.5093C741.28 84.7744 741.428 83.0059 741.977 81.3306C742.525 79.6552 743.462 78.1131 744.72 76.8161C745.978 75.519 747.528 74.4994 749.258 73.8327C750.988 73.1659 752.854 72.8691 754.722 72.9644C757.84 73.1235 760.782 74.3655 762.981 76.4442C765.18 78.5223 766.481 81.2888 766.644 84.2094L769.023 126.864Z" fill="white" stroke="black"/>
<path d="M733.943 53.4946C736.867 56.4589 742.298 54.8676 742.679 50.818C742.708 50.5036 742.706 50.1872 742.672 49.8731C742.475 48.0793 741.386 46.4508 741.647 44.5568C741.706 44.0854 741.891 43.6362 742.183 43.2517C744.514 40.2822 749.984 44.5798 752.183 41.8917C753.531 40.2434 751.946 37.6482 752.981 35.8059C754.347 33.3744 758.392 34.5738 760.929 33.2422C763.751 31.7606 763.583 27.6394 761.725 25.1327C759.459 22.0756 755.486 20.4443 751.562 20.2092C747.639 19.9741 743.743 20.9834 740.08 22.3419C735.918 23.8853 731.791 26.0184 729.23 29.5008C726.116 33.7359 725.816 39.4295 727.374 44.3816C728.321 47.394 731.555 51.074 733.943 53.4946Z" fill="#2F2E41"/>
<path d="M778.515 3.27123C772.658 3.27123 767.91 8.03088 767.91 13.9027C767.91 16.4359 768.797 18.759 770.272 20.5853C769.752 23.1567 768.022 25.4527 768.001 25.4798C767.957 25.5378 767.927 25.6106 767.915 25.6893C767.904 25.768 767.912 25.8491 767.937 25.9225C767.963 25.996 768.005 26.0585 768.059 26.1025C768.113 26.1465 768.177 26.1699 768.242 26.1699C770.986 26.1699 773.046 24.547 774.066 23.5437C775.42 24.1729 776.924 24.5342 778.515 24.5342C784.372 24.5342 789.12 19.7746 789.12 13.9027C789.12 8.03088 784.372 3.27123 778.515 3.27123ZM779.509 18.7299V19.6274C779.509 20.0792 779.213 20.4452 778.846 20.4452H778.184C777.817 20.4452 777.521 20.0792 777.521 19.6274V18.7212C777.048 18.6522 776.598 18.4559 776.204 18.1354C775.947 17.9253 775.922 17.4653 776.14 17.196L776.866 16.3005C777.021 16.1093 777.251 16.0837 777.45 16.1967C777.582 16.2713 777.726 16.3102 777.875 16.3102H779.233C779.426 16.3102 779.583 16.117 779.583 15.8798C779.583 15.6881 779.478 15.5179 779.329 15.4653L777.255 14.7343C776.334 14.4098 775.598 13.4713 775.478 12.2978C775.31 10.6586 776.266 9.26014 777.521 9.07512V8.17808C777.521 7.72624 777.817 7.36027 778.184 7.36027H778.846C779.213 7.36027 779.509 7.72624 779.509 8.17808V9.08432C779.982 9.15332 780.432 9.34959 780.826 9.67007C781.083 9.88015 781.108 10.3402 780.89 10.6095L780.164 11.505C780.009 11.6962 779.778 11.7217 779.58 11.6088C779.446 11.5335 779.301 11.4948 779.155 11.4953H777.797C777.604 11.4953 777.447 11.6885 777.447 11.9257C777.447 12.1174 777.551 12.2876 777.701 12.3402L779.775 13.0711C780.696 13.3962 781.432 14.3341 781.552 15.5077C781.72 17.1464 780.764 18.5448 779.509 18.7299V18.7299Z" fill="black"/>
</g>
<path d="M596.5 431.362L904 447.447H1083H1159L1200 340.213V510H0L596.5 431.362Z" fill="#488744"/>
<path d="M821.65 482.469C578.761 489.978 287.024 457.339 299.33 408.093C311.637 358.847 589.647 299.671 832.536 292.162C1075.43 284.652 1219.64 368.323 1207.33 417.569C1195.03 466.815 1064.54 474.96 821.65 482.469Z" fill="#488744"/>
<path d="M817.331 451.362C579.784 447.803 296.028 392.11 309.901 331.974C323.773 271.839 597.569 213.479 835.117 217.037C1072.66 220.595 1210.4 331.487 1196.52 391.622C1182.65 451.758 1054.88 454.92 817.331 451.362Z" fill="#488744" fill-opacity="0.5"/>
<defs>
<clipPath id="clip0">
<rect width="483" height="398" fill="white" transform="translate(685)"/>
</clipPath>
</defs>
</svg>
