<svg width="1890" height="779" viewBox="0 0 1890 779" fill="none" xmlns="http://www.w3.org/2000/svg">
<path d="M0 0H1890L1631.24 254.5L0 492V0Z" fill="#3F3D56"/>
<path d="M878.29 777.019C636.413 773.461 347.486 717.767 361.611 657.632C375.736 597.496 654.523 539.136 896.4 542.695C1138.28 546.253 1278.52 657.144 1264.39 717.28C1250.27 777.415 1120.17 780.577 878.29 777.019Z" fill="#B7B7B7" fill-opacity="0.99"/>
<path d="M101.953 737L101.315 736.789C108.433 690.306 126.321 648.095 151.684 617.932C170.86 595.163 193.666 579.935 217.955 573.682C242.245 567.428 267.218 570.356 290.525 582.188C313.831 594.02 334.703 614.368 351.176 641.315C367.649 668.263 379.18 700.923 384.685 736.222L384.047 736.435C368.979 639.285 310.997 571.434 243.044 571.434C175.981 571.434 116.644 641.065 101.953 737Z" fill="#3F3D56"/>
<path d="M193.476 463.44C203.291 463.44 211.247 451.756 211.247 437.344C211.247 422.932 203.291 411.249 193.476 411.249C183.662 411.249 175.706 422.932 175.706 437.344C175.706 451.756 183.662 463.44 193.476 463.44Z" fill="#FF6584"/>
<path d="M116.916 731.072C117.47 734.08 119.368 735.944 119.368 735.944C119.368 735.944 120.368 732.929 119.814 729.921C119.26 726.912 117.361 725.049 117.361 725.049C117.361 725.049 116.362 728.063 116.916 731.072Z" fill="#3F3D56"/>
<path d="M117.73 730.425C119.251 732.599 119.437 735.941 119.437 735.941C119.437 735.941 117.157 735.758 115.636 733.584C114.115 731.41 113.93 728.069 113.93 728.069C113.93 728.069 116.21 728.251 117.73 730.425Z" fill="#6C63FF"/>
<path d="M159.122 731.072C159.676 734.08 161.574 735.944 161.574 735.944C161.574 735.944 162.574 732.929 162.02 729.921C161.466 726.912 159.567 725.049 159.567 725.049C159.567 725.049 158.568 728.063 159.122 731.072Z" fill="#3F3D56"/>
<path d="M159.936 730.425C161.457 732.599 161.643 735.941 161.643 735.941C161.643 735.941 159.363 735.758 157.842 733.584C156.322 731.41 156.136 728.069 156.136 728.069C156.136 728.069 158.416 728.251 159.936 730.425Z" fill="#6C63FF"/>
<path d="M167.491 491.435L160.809 483.584L198.229 434.522H293.117V477.697L231.64 538.534L167.491 491.435Z" fill="#3F3D56"/>
<path d="M310.417 462.043V435.502H297.819V442.002L293.117 434.522L262.378 483.584L250.35 495.359L231.701 695.446L259.827 736.747H325.191V485.547L310.417 462.043Z" fill="#CCCCCC"/>
<path d="M262.378 483.585H160.809V736.747H262.378V483.585Z" fill="#F2F2F2"/>
<path d="M218.944 674.928H200.234V736.747H218.944V674.928Z" fill="#CCCCCC"/>
<path d="M180.187 692.59V682.778H172.168V692.59H179.519H180.187Z" fill="#3F3D56"/>
<path d="M179.519 700.44H172.168V710.253H180.187V700.44H179.519Z" fill="#3F3D56"/>
<path d="M193.552 682.778H185.533V692.591H193.552V682.778Z" fill="#3F3D56"/>
<path d="M193.552 700.441H185.533V710.253H193.552V700.441Z" fill="#3F3D56"/>
<path d="M234.981 692.59V682.778H226.963V692.59H234.313H234.981Z" fill="#3F3D56"/>
<path d="M234.313 700.44H226.963V710.253H234.981V700.44H234.313Z" fill="#3F3D56"/>
<path d="M248.346 682.778H240.327V692.591H248.346V682.778Z" fill="#3F3D56"/>
<path d="M248.346 700.441H240.327V710.253H248.346V700.441Z" fill="#3F3D56"/>
<path d="M291.112 496.341V486.528H283.093V496.341H290.444H291.112Z" fill="#3F3D56"/>
<path d="M290.444 504.191H283.093V514.003H291.112V504.191H290.444Z" fill="#3F3D56"/>
<path d="M304.477 486.528H296.458V496.341H304.477V486.528Z" fill="#3F3D56"/>
<path d="M304.477 504.191H296.458V514.003H304.477V504.191Z" fill="#3F3D56"/>
<path d="M291.112 551.291V541.478H283.093V551.291H290.444H291.112Z" fill="#3F3D56"/>
<path d="M290.444 559.141H283.093V568.953H291.112V559.141H290.444Z" fill="#3F3D56"/>
<path d="M304.477 541.478H296.458V551.291H304.477V541.478Z" fill="#3F3D56"/>
<path d="M304.477 559.141H296.458V568.953H304.477V559.141Z" fill="#3F3D56"/>
<path d="M291.112 606.241V596.428H283.093V606.241H290.444H291.112Z" fill="#3F3D56"/>
<path d="M290.444 614.091H283.093V623.903H291.112V614.091H290.444Z" fill="#3F3D56"/>
<path d="M304.477 596.428H296.458V606.241H304.477V596.428Z" fill="#3F3D56"/>
<path d="M304.477 614.091H296.458V623.903H304.477V614.091Z" fill="#3F3D56"/>
<path d="M291.112 661.191V651.378H283.093V661.191H290.444H291.112Z" fill="#3F3D56"/>
<path d="M290.444 669.041H283.093V678.853H291.112V669.041H290.444Z" fill="#3F3D56"/>
<path d="M304.477 651.378H296.458V661.191H304.477V651.378Z" fill="#3F3D56"/>
<path d="M304.477 669.041H296.458V678.853H304.477V669.041Z" fill="#3F3D56"/>
<path d="M249.682 496.341H172.168V519.891H249.682V496.341Z" fill="#3F3D56"/>
<path d="M249.682 543.441H172.168V566.991H249.682V543.441Z" fill="#3F3D56"/>
<path d="M249.682 590.541H172.168V614.091H249.682V590.541Z" fill="#3F3D56"/>
<path d="M249.682 637.641H172.168V661.191H249.682V637.641Z" fill="#3F3D56"/>
<path d="M429 735.759H57V736.72H429V735.759Z" fill="#3F3D56"/>
<path d="M121.218 624.818H119.296V736.307H121.218V624.818Z" fill="#3F3D56"/>
<path d="M138.957 639.026C139.079 678.011 120.401 709.741 120.401 709.741C120.401 709.741 101.525 678.265 101.402 639.28C101.28 600.296 119.958 568.565 119.958 568.565C119.958 568.565 138.835 600.041 138.957 639.026Z" fill="#6C63FF"/>
<path opacity="0.1" d="M138.957 639.026C139.079 678.011 120.401 709.741 120.401 709.741C120.401 709.741 101.525 678.265 101.402 639.28C101.28 600.296 119.958 568.565 119.958 568.565C119.958 568.565 138.835 600.041 138.957 639.026Z" fill="black"/>
<path d="M96.2312 624.818H94.3091V736.307H96.2312V624.818Z" fill="#3F3D56"/>
<path d="M113.97 639.026C114.092 678.011 95.414 709.741 95.414 709.741C95.414 709.741 76.5375 678.265 76.4151 639.28C76.2928 600.296 94.9709 568.565 94.9709 568.565C94.9709 568.565 113.847 600.041 113.97 639.026Z" fill="#488744"/>
<path d="M366.363 483.427C351.223 483.529 338.899 483.858 338.899 483.858C338.899 483.858 353.548 455.364 366.309 465.921C379.069 476.478 393.728 483.487 393.728 483.487C393.728 483.487 381.504 483.324 366.363 483.427Z" fill="#F2F2F2"/>
<path d="M114.11 538.197C98.9694 538.3 86.6455 538.628 86.6455 538.628C86.6455 538.628 101.294 510.135 114.055 520.691C126.816 531.248 141.475 538.257 141.475 538.257C141.475 538.257 129.251 538.095 114.11 538.197Z" fill="#F2F2F2"/>
<path d="M169.076 423.852C153.935 423.954 141.611 424.283 141.611 424.283C141.611 424.283 156.26 395.789 169.021 406.346C181.782 416.903 196.441 423.912 196.441 423.912C196.441 423.912 184.217 423.75 169.076 423.852Z" fill="#F2F2F2"/>
<path d="M397.561 624.818H395.639V736.307H397.561V624.818Z" fill="#3F3D56"/>
<path d="M415.299 639.026C415.422 678.011 396.744 709.741 396.744 709.741C396.744 709.741 377.867 678.265 377.745 639.28C377.622 600.296 396.3 568.565 396.3 568.565C396.3 568.565 415.177 600.041 415.299 639.026Z" fill="#488744"/>
<path d="M326.812 667.104H346.21V660.228H356.912V667.104H376.979V697.553H356.912V735.86H346.21V697.553H326.812L316.778 680.855L326.812 667.104Z" fill="#3F3D56"/>
<path d="M669.279 174.965H599.661V157.464C599.661 156.354 599.281 155.289 598.606 154.504C597.93 153.719 597.014 153.278 596.059 153.278H575.616V134.635C575.616 133.936 575.377 133.266 574.952 132.772C574.527 132.278 573.95 132 573.349 132H547.015C546.413 132 545.837 132.278 545.412 132.772C544.986 133.266 544.748 133.936 544.748 134.635V153.284H520.714C519.758 153.284 518.842 153.725 518.167 154.51C517.491 155.295 517.112 156.36 517.112 157.47V174.971H450.727C450.534 174.973 450.349 175.063 450.213 175.223C450.076 175.382 450 175.598 450 175.822V408.149C450 408.374 450.076 408.589 450.213 408.749C450.349 408.908 450.534 408.998 450.727 409H494.846C495.04 409 495.227 408.91 495.364 408.751C495.501 408.591 495.578 408.375 495.578 408.149V376.891C495.58 376.666 495.657 376.451 495.794 376.291C495.931 376.132 496.117 376.042 496.311 376.04H514.948C515.141 376.042 515.327 376.132 515.464 376.291C515.601 376.451 515.679 376.666 515.68 376.891V408.149C515.68 408.374 515.756 408.589 515.893 408.749C516.029 408.908 516.214 408.998 516.407 409H603.588C603.782 408.998 603.967 408.908 604.104 408.749C604.241 408.59 604.319 408.374 604.32 408.149V376.891C604.32 376.667 604.396 376.451 604.533 376.292C604.669 376.132 604.854 376.042 605.047 376.04H623.684C623.878 376.04 624.064 376.13 624.202 376.289C624.339 376.449 624.416 376.666 624.416 376.891V408.149C624.418 408.374 624.495 408.59 624.632 408.749C624.769 408.908 624.955 408.998 625.148 409H669.268C669.462 408.998 669.647 408.908 669.784 408.749C669.921 408.59 669.999 408.374 670 408.149V175.816C669.999 175.593 669.923 175.379 669.788 175.22C669.653 175.062 669.47 174.97 669.279 174.965ZM487.681 365.184C487.681 365.408 487.604 365.623 487.468 365.781C487.332 365.94 487.147 366.029 486.954 366.029H459.704C459.608 366.03 459.513 366.008 459.424 365.966C459.335 365.924 459.254 365.862 459.186 365.783C459.118 365.705 459.064 365.612 459.027 365.509C458.99 365.406 458.971 365.295 458.971 365.184V354.397C458.971 354.285 458.99 354.174 459.027 354.071C459.064 353.968 459.118 353.874 459.186 353.795C459.254 353.716 459.335 353.653 459.423 353.611C459.512 353.568 459.607 353.546 459.704 353.546H486.97C487.164 353.547 487.349 353.638 487.485 353.797C487.621 353.957 487.697 354.172 487.697 354.397L487.681 365.184ZM487.681 337.23C487.682 337.341 487.663 337.452 487.627 337.555C487.591 337.658 487.538 337.752 487.47 337.831C487.402 337.91 487.322 337.973 487.234 338.016C487.145 338.059 487.05 338.081 486.954 338.081H459.704C459.607 338.082 459.512 338.06 459.423 338.018C459.333 337.975 459.252 337.913 459.184 337.833C459.116 337.754 459.062 337.66 459.026 337.556C458.989 337.453 458.971 337.342 458.971 337.23V326.418C458.971 326.306 458.989 326.195 459.026 326.091C459.062 325.987 459.116 325.893 459.184 325.814C459.252 325.735 459.333 325.672 459.423 325.63C459.512 325.587 459.607 325.566 459.704 325.567H486.97C487.066 325.567 487.161 325.589 487.25 325.631C487.338 325.674 487.419 325.737 487.486 325.816C487.554 325.895 487.607 325.989 487.643 326.092C487.68 326.196 487.698 326.306 487.697 326.418L487.681 337.23ZM487.681 309.282C487.681 309.507 487.605 309.722 487.468 309.882C487.332 310.041 487.147 310.131 486.954 310.133H459.704C459.607 310.133 459.512 310.111 459.423 310.068C459.335 310.026 459.254 309.963 459.186 309.884C459.118 309.805 459.064 309.711 459.027 309.608C458.99 309.504 458.971 309.394 458.971 309.282V298.464C458.971 298.352 458.99 298.241 459.027 298.138C459.064 298.035 459.118 297.941 459.186 297.862C459.254 297.783 459.335 297.72 459.423 297.677C459.512 297.634 459.607 297.612 459.704 297.612H486.97C487.164 297.614 487.349 297.704 487.485 297.864C487.621 298.023 487.697 298.239 487.697 298.464L487.681 309.282ZM487.681 281.328C487.682 281.439 487.663 281.55 487.627 281.653C487.591 281.756 487.538 281.85 487.47 281.929C487.402 282.009 487.322 282.071 487.234 282.114C487.145 282.157 487.05 282.179 486.954 282.179H459.704C459.607 282.18 459.512 282.158 459.423 282.116C459.333 282.073 459.252 282.011 459.184 281.932C459.116 281.852 459.062 281.758 459.026 281.655C458.989 281.551 458.971 281.44 458.971 281.328V270.547C458.971 270.435 458.989 270.324 459.026 270.221C459.062 270.117 459.116 270.023 459.184 269.944C459.252 269.864 459.333 269.802 459.423 269.759C459.512 269.717 459.607 269.695 459.704 269.696H486.97C487.066 269.696 487.161 269.718 487.25 269.761C487.338 269.804 487.419 269.867 487.486 269.946C487.554 270.025 487.607 270.119 487.643 270.222C487.68 270.325 487.698 270.436 487.697 270.547L487.681 281.328ZM487.681 253.38C487.681 253.605 487.605 253.82 487.468 253.98C487.332 254.139 487.147 254.23 486.954 254.231H459.704C459.607 254.231 459.512 254.209 459.423 254.167C459.335 254.124 459.254 254.061 459.186 253.982C459.118 253.903 459.064 253.809 459.027 253.706C458.99 253.603 458.971 253.492 458.971 253.38V242.562C458.971 242.45 458.99 242.34 459.027 242.237C459.064 242.134 459.118 242.041 459.186 241.962C459.254 241.884 459.335 241.821 459.424 241.779C459.513 241.737 459.608 241.716 459.704 241.717H486.97C487.163 241.717 487.348 241.806 487.484 241.964C487.621 242.123 487.697 242.338 487.697 242.562L487.681 253.38ZM487.681 225.432C487.681 225.656 487.604 225.871 487.468 226.03C487.332 226.188 487.147 226.277 486.954 226.277H459.704C459.608 226.278 459.513 226.257 459.424 226.215C459.335 226.173 459.254 226.111 459.186 226.032C459.118 225.953 459.064 225.86 459.027 225.757C458.99 225.654 458.971 225.544 458.971 225.432V214.614C458.971 214.502 458.99 214.391 459.027 214.288C459.064 214.185 459.118 214.091 459.186 214.012C459.254 213.933 459.335 213.87 459.423 213.828C459.512 213.785 459.607 213.763 459.704 213.763H486.97C487.164 213.764 487.349 213.855 487.485 214.014C487.621 214.174 487.697 214.389 487.697 214.614L487.681 225.432ZM487.681 197.478C487.682 197.59 487.663 197.7 487.627 197.804C487.591 197.907 487.538 198.001 487.47 198.08C487.402 198.159 487.322 198.222 487.234 198.265C487.145 198.307 487.05 198.329 486.954 198.329H459.704C459.607 198.33 459.512 198.309 459.423 198.266C459.333 198.224 459.252 198.161 459.184 198.082C459.116 198.003 459.062 197.909 459.026 197.805C458.989 197.701 458.971 197.59 458.971 197.478V186.698C458.971 186.586 458.989 186.475 459.026 186.371C459.062 186.267 459.116 186.173 459.184 186.094C459.252 186.015 459.333 185.952 459.423 185.91C459.512 185.867 459.607 185.846 459.704 185.847H486.97C487.066 185.847 487.161 185.869 487.25 185.911C487.338 185.954 487.419 186.017 487.486 186.096C487.554 186.175 487.607 186.269 487.643 186.372C487.68 186.476 487.698 186.586 487.697 186.698L487.681 197.478ZM552.287 365.178C552.287 365.289 552.268 365.399 552.231 365.502C552.194 365.605 552.14 365.699 552.072 365.777C552.004 365.856 551.923 365.918 551.835 365.96C551.746 366.002 551.651 366.023 551.555 366.022H524.304C524.111 366.022 523.926 365.934 523.788 365.775C523.651 365.617 523.573 365.402 523.572 365.178V354.397C523.573 354.172 523.651 353.956 523.788 353.797C523.925 353.638 524.11 353.547 524.304 353.546H551.555C551.651 353.546 551.746 353.568 551.835 353.611C551.924 353.653 552.005 353.716 552.073 353.795C552.141 353.874 552.194 353.968 552.231 354.071C552.268 354.174 552.287 354.285 552.287 354.397V365.178ZM552.287 337.223C552.288 337.336 552.269 337.447 552.233 337.55C552.196 337.654 552.142 337.748 552.074 337.827C552.006 337.906 551.925 337.969 551.836 338.012C551.747 338.054 551.651 338.075 551.555 338.075H524.304C524.11 338.075 523.924 337.985 523.786 337.825C523.649 337.666 523.572 337.449 523.572 337.223V326.418C523.572 326.192 523.649 325.975 523.786 325.816C523.924 325.656 524.11 325.567 524.304 325.567H551.555C551.651 325.566 551.747 325.587 551.836 325.63C551.925 325.672 552.006 325.735 552.074 325.814C552.142 325.893 552.196 325.987 552.233 326.091C552.269 326.195 552.288 326.306 552.287 326.418V337.223ZM552.287 309.276C552.287 309.387 552.268 309.498 552.231 309.601C552.194 309.705 552.141 309.799 552.073 309.878C552.005 309.957 551.924 310.019 551.835 310.062C551.746 310.105 551.651 310.127 551.555 310.127H524.304C524.11 310.125 523.925 310.035 523.788 309.876C523.651 309.716 523.573 309.501 523.572 309.276V298.464C523.573 298.238 523.651 298.023 523.788 297.864C523.925 297.704 524.11 297.614 524.304 297.612H551.555C551.651 297.612 551.746 297.634 551.835 297.677C551.924 297.72 552.005 297.783 552.073 297.862C552.141 297.941 552.194 298.035 552.231 298.138C552.268 298.241 552.287 298.352 552.287 298.464V309.276ZM552.287 281.322C552.288 281.434 552.269 281.545 552.233 281.648C552.196 281.752 552.142 281.846 552.074 281.925C552.006 282.005 551.925 282.067 551.836 282.11C551.747 282.152 551.651 282.174 551.555 282.173H524.304C524.11 282.173 523.924 282.083 523.786 281.923C523.649 281.764 523.572 281.547 523.572 281.322V270.547C523.572 270.322 523.649 270.105 523.786 269.945C523.924 269.786 524.11 269.696 524.304 269.696H551.555C551.651 269.695 551.747 269.717 551.836 269.759C551.925 269.802 552.006 269.864 552.074 269.944C552.142 270.023 552.196 270.117 552.233 270.221C552.269 270.324 552.288 270.435 552.287 270.547V281.322ZM552.287 253.374C552.287 253.486 552.268 253.596 552.231 253.7C552.194 253.803 552.141 253.897 552.073 253.976C552.005 254.055 551.924 254.117 551.835 254.16C551.746 254.203 551.651 254.225 551.555 254.225H524.304C524.11 254.223 523.925 254.133 523.788 253.974C523.651 253.815 523.573 253.599 523.572 253.374V242.562C523.573 242.337 523.651 242.122 523.788 241.964C523.926 241.806 524.111 241.717 524.304 241.717H551.555C551.651 241.716 551.746 241.737 551.835 241.779C551.923 241.821 552.004 241.884 552.072 241.962C552.14 242.041 552.194 242.134 552.231 242.237C552.268 242.34 552.287 242.45 552.287 242.562V253.374ZM552.287 225.426C552.287 225.538 552.268 225.648 552.231 225.751C552.194 225.854 552.14 225.947 552.072 226.026C552.004 226.104 551.923 226.166 551.835 226.208C551.746 226.25 551.651 226.272 551.555 226.271H524.304C524.111 226.271 523.926 226.182 523.788 226.024C523.651 225.866 523.573 225.651 523.572 225.426V214.614C523.573 214.389 523.651 214.173 523.788 214.014C523.925 213.855 524.11 213.764 524.304 213.763H551.555C551.651 213.763 551.746 213.785 551.835 213.828C551.924 213.87 552.005 213.933 552.073 214.012C552.141 214.091 552.194 214.185 552.231 214.288C552.268 214.391 552.287 214.502 552.287 214.614V225.426ZM552.287 197.472C552.288 197.584 552.269 197.695 552.233 197.799C552.196 197.902 552.142 197.997 552.074 198.076C552.006 198.155 551.925 198.218 551.836 198.26C551.747 198.303 551.651 198.324 551.555 198.323H524.304C524.11 198.323 523.924 198.233 523.786 198.074C523.649 197.914 523.572 197.698 523.572 197.472V186.698C523.572 186.472 523.649 186.255 523.786 186.096C523.924 185.936 524.11 185.847 524.304 185.847H551.555C551.651 185.846 551.747 185.867 551.836 185.91C551.925 185.952 552.006 186.015 552.074 186.094C552.142 186.173 552.196 186.267 552.233 186.371C552.269 186.475 552.288 186.586 552.287 186.698V197.472ZM596.433 365.171C596.433 365.283 596.414 365.393 596.378 365.496C596.341 365.599 596.287 365.692 596.219 365.771C596.151 365.849 596.07 365.911 595.981 365.954C595.892 365.996 595.797 366.017 595.701 366.016H568.451C568.257 366.016 568.072 365.927 567.935 365.769C567.798 365.611 567.72 365.396 567.718 365.171V354.397C567.72 354.172 567.797 353.956 567.934 353.797C568.072 353.638 568.257 353.547 568.451 353.546H595.701C595.895 353.546 596.082 353.635 596.219 353.795C596.356 353.955 596.433 354.171 596.433 354.397V365.171ZM596.433 337.217C596.434 337.329 596.416 337.44 596.379 337.544C596.343 337.648 596.289 337.742 596.221 337.821C596.152 337.9 596.071 337.963 595.982 338.005C595.893 338.048 595.798 338.069 595.701 338.068H568.451C568.256 338.068 568.07 337.979 567.933 337.819C567.796 337.659 567.718 337.443 567.718 337.217V326.418C567.718 326.192 567.796 325.975 567.933 325.816C568.07 325.656 568.256 325.567 568.451 325.567H595.701C595.798 325.566 595.893 325.587 595.982 325.63C596.071 325.672 596.152 325.735 596.221 325.814C596.289 325.893 596.343 325.987 596.379 326.091C596.416 326.195 596.434 326.306 596.433 326.418V337.217ZM596.433 309.269C596.433 309.495 596.356 309.712 596.219 309.871C596.082 310.031 595.895 310.12 595.701 310.12H568.451C568.257 310.119 568.072 310.029 567.934 309.869C567.797 309.71 567.72 309.495 567.718 309.269V298.464C567.72 298.238 567.797 298.023 567.934 297.864C568.072 297.704 568.257 297.614 568.451 297.612H595.701C595.895 297.612 596.082 297.702 596.219 297.862C596.356 298.021 596.433 298.238 596.433 298.464V309.269ZM596.433 281.315C596.434 281.427 596.416 281.538 596.379 281.642C596.343 281.746 596.289 281.84 596.221 281.919C596.152 281.998 596.071 282.061 595.982 282.103C595.893 282.146 595.798 282.167 595.701 282.166H568.451C568.256 282.166 568.07 282.077 567.933 281.917C567.796 281.758 567.718 281.541 567.718 281.315V270.547C567.718 270.322 567.796 270.105 567.933 269.945C568.07 269.786 568.256 269.696 568.451 269.696H595.701C595.798 269.695 595.893 269.717 595.982 269.759C596.071 269.802 596.152 269.864 596.221 269.944C596.289 270.023 596.343 270.117 596.379 270.221C596.416 270.324 596.434 270.435 596.433 270.547V281.315ZM596.433 253.368C596.433 253.593 596.356 253.81 596.219 253.969C596.082 254.129 595.895 254.219 595.701 254.219H568.451C568.257 254.217 568.072 254.127 567.934 253.968C567.797 253.808 567.72 253.593 567.718 253.368V242.562C567.72 242.337 567.798 242.122 567.935 241.964C568.072 241.806 568.257 241.717 568.451 241.717H595.701C595.797 241.716 595.892 241.737 595.981 241.779C596.07 241.821 596.151 241.884 596.219 241.962C596.287 242.041 596.341 242.134 596.378 242.237C596.414 242.34 596.433 242.45 596.433 242.562V253.368ZM596.433 225.42C596.433 225.531 596.414 225.642 596.378 225.745C596.341 225.847 596.287 225.941 596.219 226.019C596.151 226.098 596.07 226.16 595.981 226.202C595.892 226.244 595.797 226.265 595.701 226.265H568.451C568.257 226.265 568.072 226.176 567.935 226.018C567.798 225.859 567.72 225.644 567.718 225.42V214.614C567.72 214.389 567.797 214.173 567.934 214.014C568.072 213.855 568.257 213.764 568.451 213.763H595.701C595.895 213.763 596.082 213.852 596.219 214.012C596.356 214.172 596.433 214.388 596.433 214.614V225.42ZM596.433 197.466C596.434 197.578 596.416 197.689 596.379 197.792C596.343 197.896 596.289 197.99 596.221 198.069C596.152 198.149 596.071 198.211 595.982 198.254C595.893 198.296 595.798 198.318 595.701 198.317H568.451C568.256 198.317 568.07 198.227 567.933 198.068C567.796 197.908 567.718 197.691 567.718 197.466V186.698C567.718 186.472 567.796 186.255 567.933 186.096C568.07 185.936 568.256 185.847 568.451 185.847H595.701C595.798 185.846 595.893 185.867 595.982 185.91C596.071 185.952 596.152 186.015 596.221 186.094C596.289 186.173 596.343 186.267 596.379 186.371C596.416 186.475 596.434 186.586 596.433 186.698V197.466ZM661.039 365.165C661.038 365.39 660.96 365.604 660.823 365.763C660.686 365.921 660.5 366.01 660.307 366.01H633.057C632.961 366.011 632.866 365.989 632.777 365.947C632.688 365.905 632.607 365.843 632.539 365.765C632.471 365.686 632.417 365.593 632.38 365.49C632.343 365.387 632.324 365.276 632.324 365.165V354.397C632.324 354.171 632.402 353.955 632.539 353.795C632.676 353.635 632.863 353.546 633.057 353.546H660.307C660.501 353.547 660.686 353.638 660.823 353.797C660.96 353.956 661.038 354.172 661.039 354.397V365.165ZM661.039 337.211C661.039 337.437 660.962 337.653 660.825 337.813C660.688 337.972 660.501 338.062 660.307 338.062H633.057C632.96 338.063 632.865 338.041 632.776 337.999C632.686 337.956 632.605 337.894 632.537 337.815C632.469 337.735 632.415 337.641 632.379 337.538C632.342 337.434 632.324 337.323 632.324 337.211V326.418C632.324 326.306 632.342 326.195 632.379 326.091C632.415 325.987 632.469 325.893 632.537 325.814C632.605 325.735 632.686 325.672 632.776 325.63C632.865 325.587 632.96 325.566 633.057 325.567H660.307C660.501 325.567 660.688 325.656 660.825 325.816C660.962 325.975 661.039 326.192 661.039 326.418V337.211ZM661.039 309.263C661.038 309.488 660.96 309.704 660.823 309.863C660.686 310.022 660.501 310.113 660.307 310.114H633.057C632.863 310.114 632.676 310.025 632.539 309.865C632.402 309.705 632.324 309.489 632.324 309.263V298.464C632.324 298.238 632.402 298.021 632.539 297.862C632.676 297.702 632.863 297.612 633.057 297.612H660.307C660.501 297.614 660.686 297.704 660.823 297.864C660.96 298.023 661.038 298.238 661.039 298.464V309.263ZM661.039 281.309C661.039 281.535 660.962 281.751 660.825 281.911C660.688 282.07 660.501 282.16 660.307 282.16H633.057C632.867 282.159 632.685 282.071 632.55 281.915C632.415 281.759 632.338 281.549 632.335 281.328V270.547C632.335 270.435 632.353 270.324 632.39 270.221C632.426 270.117 632.48 270.023 632.548 269.944C632.616 269.864 632.697 269.802 632.786 269.759C632.876 269.717 632.971 269.695 633.068 269.696H660.318C660.512 269.696 660.699 269.786 660.836 269.945C660.973 270.105 661.05 270.322 661.05 270.547L661.039 281.309ZM661.039 253.361C661.038 253.586 660.96 253.802 660.823 253.961C660.686 254.121 660.501 254.211 660.307 254.212H633.057C632.863 254.212 632.676 254.123 632.539 253.963C632.402 253.803 632.324 253.587 632.324 253.361V242.562C632.324 242.45 632.343 242.34 632.38 242.237C632.417 242.134 632.471 242.041 632.539 241.962C632.607 241.884 632.688 241.821 632.777 241.779C632.866 241.737 632.961 241.716 633.057 241.717H660.307C660.5 241.717 660.686 241.806 660.823 241.964C660.96 242.122 661.038 242.337 661.039 242.562V253.361ZM661.039 225.414C661.038 225.638 660.96 225.853 660.823 226.011C660.686 226.169 660.5 226.258 660.307 226.258H633.057C632.961 226.259 632.866 226.238 632.777 226.196C632.688 226.154 632.607 226.092 632.539 226.013C632.471 225.935 632.417 225.841 632.38 225.738C632.343 225.635 632.324 225.525 632.324 225.414V214.614C632.324 214.388 632.402 214.172 632.539 214.012C632.676 213.852 632.863 213.763 633.057 213.763H660.307C660.501 213.764 660.686 213.855 660.823 214.014C660.96 214.173 661.038 214.389 661.039 214.614V225.414ZM661.039 197.459C661.039 197.571 661.021 197.682 660.984 197.785C660.947 197.888 660.893 197.982 660.825 198.061C660.757 198.14 660.676 198.203 660.587 198.246C660.499 198.289 660.403 198.311 660.307 198.311H633.057C632.867 198.309 632.685 198.221 632.55 198.065C632.415 197.91 632.338 197.699 632.335 197.478V186.698C632.335 186.586 632.353 186.475 632.39 186.371C632.426 186.267 632.48 186.173 632.548 186.094C632.616 186.015 632.697 185.952 632.786 185.91C632.876 185.867 632.971 185.846 633.068 185.847H660.318C660.512 185.847 660.699 185.936 660.836 186.096C660.973 186.255 661.05 186.472 661.05 186.698L661.039 197.459Z" fill="#F2F2F2"/>
<path d="M458.784 78.8111L450.381 85.0994L455.481 74.146C454.037 72.7859 452.25 72.0326 450.402 72.0051H450.267C449.683 72.0154 449.099 71.9641 448.523 71.8517L445.675 73.9798L446.893 71.3597C444.874 70.5285 443.129 68.9622 441.912 66.8862L436.817 70.7206L440.033 63.8124C437.055 59.5882 433.037 57 428.613 57C423.312 57 418.59 60.7193 415.542 66.5156C414.64 68.256 413.363 69.6822 411.841 70.6479C410.318 71.6137 408.606 72.0843 406.878 72.0115H406.597C400.743 72.0115 396 79.8464 396 89.5026C396 99.1587 400.765 107 406.618 107C407.904 106.992 409.169 106.617 410.306 105.907C412.298 104.763 414.477 104.144 416.692 104.094C418.907 104.043 421.105 104.561 423.133 105.613C424.849 106.519 426.707 106.987 428.586 106.987C430.465 106.987 432.323 106.519 434.039 105.613C436.051 104.583 438.227 104.077 440.42 104.127C442.613 104.178 444.771 104.785 446.747 105.907C447.874 106.611 449.127 106.986 450.402 107C456.256 107 460.999 99.1651 460.999 89.5026C461.034 85.7757 460.272 82.0986 458.784 78.8111Z" fill="#F2F2F2"/>
<path opacity="0.03" d="M443 104.465C439.938 103.782 436.771 104.185 433.905 105.621C432.187 106.52 430.327 106.984 428.446 106.984C426.565 106.984 424.705 106.52 422.987 105.621C420.955 104.579 418.754 104.065 416.536 104.115C414.318 104.166 412.135 104.779 410.139 105.914C409 106.623 407.73 106.996 406.44 107C401.234 107 396.9 100.857 396 92.7504C397.041 91.8602 397.925 90.7428 398.603 89.4595C401.657 83.6974 406.386 80 411.696 80C417.005 80 421.675 83.6529 424.712 89.3579C425.621 91.0809 426.896 92.4989 428.412 93.4741C429.928 94.4493 431.633 94.9485 433.362 94.9231H433.498C437.663 94.8913 441.254 98.7857 443 104.465Z" fill="black"/>
<path d="M754.893 61.9111L750.744 65.0569L753.257 59.5789C752.545 58.8994 751.665 58.523 750.755 58.509H750.691C750.402 58.5157 750.114 58.49 749.83 58.4321L748.429 59.502L749.028 58.2207C748.035 57.8035 747.177 57.0237 746.574 55.991L744.066 57.9131L745.67 54.4598C745.008 53.4175 744.16 52.5658 743.187 51.9672C742.215 51.3686 741.143 51.0381 740.051 51C737.442 51 735.116 52.8644 733.635 55.7604C733.189 56.6316 732.558 57.3453 731.806 57.8282C731.055 58.3112 730.21 58.5461 729.357 58.509H729.218C726.337 58.509 724 62.4236 724 67.2545C724 72.0853 726.337 76 729.218 76C729.852 75.9975 730.476 75.8107 731.036 75.4554C732.017 74.8843 733.09 74.5753 734.18 74.5499C735.27 74.5244 736.352 74.7831 737.351 75.308C738.196 75.7602 739.112 75.9939 740.037 75.9939C740.963 75.9939 741.879 75.7602 742.724 75.308C743.716 74.794 744.788 74.5411 745.868 74.5665C746.948 74.5919 748.011 74.8951 748.985 75.4554C749.54 75.8029 750.156 75.9853 750.782 75.9872C753.663 75.9872 756 72.0725 756 67.2417C756.008 65.3819 755.628 63.5493 754.893 61.9111V61.9111Z" fill="#F2F2F2"/>
<path opacity="0.03" d="M748 74.792C746.434 74.467 744.815 74.6612 743.349 75.35C742.474 75.7793 741.528 76.0008 740.571 76C739.613 75.9946 738.666 75.769 737.792 75.3377C736.753 74.8352 735.628 74.5876 734.494 74.6119C733.36 74.6363 732.244 74.932 731.224 75.4788C730.642 75.8195 729.993 75.9984 729.335 76C726.673 76 724.461 73.0443 724 69.1382C724.532 68.7099 724.985 68.1728 725.334 67.5561C726.89 64.7844 729.307 63 732.002 63C734.697 63 737.103 64.7599 738.67 67.5071C739.137 68.3406 739.792 69.0258 740.572 69.4956C741.351 69.9654 742.228 70.2036 743.116 70.1868H743.188C745.272 70.1868 747.105 72.0632 748 74.792Z" fill="black"/>
<path d="M649.683 118.648L644.773 122.302L647.751 115.969C646.91 115.17 645.865 114.724 644.783 114.702H644.703C644.361 114.708 644.02 114.678 643.683 114.613L642.021 115.88L642.733 114.354C641.554 113.871 640.534 112.965 639.819 111.763L636.84 113.98L638.724 109.965C637.932 108.764 636.922 107.785 635.767 107.099C634.612 106.413 633.342 106.038 632.049 106C628.951 106 626.188 108.166 624.408 111.535C623.879 112.539 623.133 113.361 622.246 113.917C621.359 114.473 620.362 114.744 619.357 114.702H619.189C615.768 114.702 613 119.256 613 124.835C613 130.415 615.768 135 619.189 135C619.942 134.998 620.683 134.781 621.348 134.367C622.512 133.703 623.785 133.344 625.08 133.314C626.374 133.285 627.658 133.585 628.843 134.196C629.846 134.72 630.932 134.99 632.03 134.99C633.127 134.99 634.213 134.72 635.216 134.196C636.393 133.598 637.665 133.303 638.947 133.333C640.229 133.362 641.491 133.715 642.647 134.367C643.312 134.778 644.053 134.995 644.805 135C648.226 135 651 130.453 651 124.835C651.008 122.676 650.556 120.549 649.683 118.648V118.648Z" fill="#F2F2F2"/>
<path opacity="0.03" d="M641 133.495C639.175 133.092 637.288 133.331 635.58 134.183C634.556 134.715 633.448 134.99 632.327 134.99C631.206 134.99 630.098 134.715 629.074 134.183C627.864 133.564 626.553 133.258 625.232 133.288C623.911 133.318 622.611 133.683 621.423 134.357C620.744 134.777 619.987 134.998 619.219 135C616.118 135 613.534 131.354 613 126.543C613.617 126.023 614.143 125.367 614.548 124.614C616.366 121.193 619.186 119 622.348 119C625.51 119 628.297 121.167 630.115 124.55C630.656 125.573 631.414 126.416 632.317 126.995C633.22 127.575 634.236 127.871 635.266 127.855H635.326C637.816 127.81 639.959 130.125 641 133.495Z" fill="black"/>
<path d="M454 285C454 285 431.963 286.291 433.038 300.497C434.113 314.704 451.85 304.372 451.85 304.372L454 285Z" fill="#36334A"/>
<path opacity="0.2" d="M558 310.582L562.557 290.065C562.557 290.065 558.207 261.64 578.328 261.007C598.45 260.374 591.924 302.166 591.924 302.166C591.924 302.166 605.792 305.63 608 312L558 310.582Z" fill="#6C63FF"/>
<path opacity="0.1" d="M522.529 367.926C536.823 361.242 545.491 347.395 541.89 336.997C538.289 326.598 523.782 323.587 509.488 330.27C495.194 336.954 486.526 350.801 490.127 361.199C493.728 371.598 508.235 374.609 522.529 367.926Z" fill="black"/>
<path d="M521.446 365.404C535.74 358.721 544.408 344.873 540.807 334.475C537.206 324.077 522.699 321.066 508.406 327.749C494.112 334.432 485.444 348.28 489.045 358.678C492.646 369.076 507.152 372.088 521.446 365.404Z" fill="#F2F2F2"/>
<path opacity="0.1" d="M359 323C358.72 329.977 356.018 338.781 351.156 347.261C343.333 360.91 332.605 368.946 326 366.593C326.987 364.056 327.842 362.299 327.842 362.299C332.605 331.042 357.339 323.476 359 323Z" fill="black"/>
<path d="M357 321C356.72 327.977 354.018 336.781 349.156 345.261C341.333 358.91 330.605 366.946 324 364.593C324.987 362.056 325.842 360.299 325.842 360.299C330.605 329.042 355.339 321.476 357 321Z" fill="#F2F2F2"/>
<path d="M432.958 340H390.167L388 334H440L432.958 340Z" fill="#36334A"/>
<path d="M423 391H353V415H423V391Z" fill="#36334A"/>
<path opacity="0.1" d="M499 439C504.523 439 509 433.851 509 427.5C509 421.149 504.523 416 499 416C493.477 416 489 421.149 489 427.5C489 433.851 493.477 439 499 439Z" fill="black"/>
<path d="M498 437C503.523 437 508 431.851 508 425.5C508 419.149 503.523 414 498 414C492.477 414 488 419.149 488 425.5C488 431.851 492.477 437 498 437Z" fill="#F2F2F2"/>
<path opacity="0.1" d="M321.5 430C323.985 430 326 424.851 326 418.5C326 412.149 323.985 407 321.5 407C319.015 407 317 412.149 317 418.5C317 424.851 319.015 430 321.5 430Z" fill="black"/>
<path d="M320 430C322.761 430 325 424.627 325 418C325 411.373 322.761 406 320 406C317.239 406 315 411.373 315 418C315 424.627 317.239 430 320 430Z" fill="#F2F2F2"/>
<path d="M725.548 328.657C725.169 328.685 724.799 328.8 724.462 328.995C724.125 329.19 723.829 329.461 723.592 329.79C723.356 330.118 723.184 330.498 723.088 330.905C722.992 331.311 722.974 331.735 723.036 332.149C723.088 332.496 723.217 332.824 723.411 333.103C723.605 333.382 723.858 333.605 724.147 333.751C725.943 334.739 737.895 332.524 742.425 331.64C743.096 331.52 743.712 331.158 744.177 330.61C744.641 330.063 744.929 329.361 744.994 328.614C745.049 327.743 744.76 327 743.604 327L725.548 328.657Z" fill="#F2F2F2"/>
<path d="M632 305.71C632 305.71 634.703 319.535 647.676 315.136L652 295.656L643.351 290L632 305.71Z" fill="#36334A"/>
<path d="M583 448C589.075 448 594 442.18 594 435C594 427.82 589.075 422 583 422C576.925 422 572 427.82 572 435C572 442.18 576.925 448 583 448Z" fill="#F2F2F2"/>
<path d="M806.5 425C809.538 425 812 419.404 812 412.5C812 405.596 809.538 400 806.5 400C803.462 400 801 405.596 801 412.5C801 419.404 803.462 425 806.5 425Z" fill="#F2F2F2"/>
<path d="M583.077 396H581.923C578.1 396 575 399.531 575 403.886V411.114C575 415.469 578.1 419 581.923 419H583.077C586.9 419 590 415.469 590 411.114V403.886C590 399.531 586.9 396 583.077 396Z" fill="#36334A"/>
<path d="M806.316 372C806.8 372 807.279 372.114 807.726 372.335C808.173 372.556 808.579 372.88 808.921 373.289C809.263 373.697 809.534 374.182 809.72 374.716C809.905 375.25 810 375.822 810 376.4V386.457C810 388.458 809.335 390.376 808.15 391.791C806.966 393.205 805.359 394 803.684 394C802.707 394 801.77 393.536 801.079 392.711C800.388 391.886 800 390.767 800 389.6V379.543C800 377.542 800.665 375.624 801.85 374.209C803.034 372.795 804.641 372 806.316 372V372Z" fill="#36334A"/>
<path d="M806.661 453C804.895 453 803.2 452.205 801.951 450.791C800.702 449.376 800 447.458 800 445.457V438.543C800 436.542 800.702 434.624 801.951 433.209C803.2 431.795 804.895 431 806.661 431V431C810.325 431 809.992 434.394 809.992 438.543V445.457C809.987 449.606 810.336 453 806.661 453Z" fill="#36334A"/>
<path d="M790.4 402C792.15 402 793.829 402.759 795.067 404.109C796.305 405.459 797 407.29 797 409.2V418.2C797 419.473 796.536 420.694 795.711 421.594C794.886 422.494 793.767 423 792.6 423C790.85 423 789.171 422.241 787.933 420.891C786.695 419.541 786 417.71 786 415.8V406.8C786 405.527 786.464 404.306 787.289 403.406C788.114 402.506 789.233 402 790.4 402Z" fill="#36334A"/>
<path d="M827 409.286C827 410.367 827 411.448 826.94 412.517C826.8 416.676 826.366 420.815 825.641 424.893C825.28 424.963 824.915 424.999 824.549 425C822.812 425 821.147 424.205 819.918 422.791C818.69 421.376 818 419.458 818 417.457V410.543C818 408.542 818.69 406.624 819.918 405.209C821.147 403.795 822.812 403 824.549 403C825.121 402.998 825.69 403.085 826.241 403.258C826.438 403.321 826.634 403.39 826.82 403.471C826.94 405.382 827 407.325 827 409.286Z" fill="#36334A"/>
<path d="M610.538 423H609.462C605.893 423 603 426.531 603 430.886V438.114C603 442.469 605.893 446 609.462 446H610.538C614.107 446 617 442.469 617 438.114V430.886C617 426.531 614.107 423 610.538 423Z" fill="#36334A"/>
<path d="M557.538 423H556.462C552.893 423 550 426.531 550 430.886V438.114C550 442.469 552.893 446 556.462 446H557.538C561.107 446 564 442.469 564 438.114V430.886C564 426.531 561.107 423 557.538 423Z" fill="#36334A"/>
<path d="M583.077 456H581.923C578.1 456 575 459.377 575 463.543V470.457C575 474.623 578.1 478 581.923 478H583.077C586.9 478 590 474.623 590 470.457V463.543C590 459.377 586.9 456 583.077 456Z" fill="#36334A"/>
<path d="M713.35 354C713.35 354 710.774 362.14 704.653 363.28C698.533 364.42 695 366.236 695 366.236L709.502 377L717.236 375.885C717.236 375.885 718.198 364.376 721.421 361.777C724.645 359.179 713.35 354 713.35 354Z" fill="#FBBEBE"/>
<path d="M813.019 373.495C815.531 374.641 818.261 375.028 820.943 374.617C823.625 374.207 826.168 373.013 828.324 371.153C830.418 369.325 832.713 367.815 835.149 366.659C838.554 365.093 842.636 363.928 843.878 366.554C846.128 371.301 816.554 383 816.554 383C816.554 383 812.699 380.436 813.019 373.495Z" fill="#696880"/>
<path d="M863.835 490C865.657 486.369 863.589 481.913 861.215 478.676C858.841 475.438 855.941 472.065 856.001 467.932C856.094 462.001 861.94 458.499 866.642 455.354C870.109 453.018 873.308 450.249 876.171 447.103C877.367 445.891 878.358 444.463 879.098 442.884C880.062 440.563 880.035 437.92 879.976 435.377C879.776 426.911 879.388 418.452 878.812 410" stroke="#3F3D56" stroke-width="4" stroke-miterlimit="10"/>
<path d="M886.991 409.062C886.926 407.47 886.503 405.922 885.761 404.561C885.02 403.2 883.983 402.07 882.748 401.275L880.846 405.481L880.905 400.385C879.996 400.088 879.049 399.962 878.103 400.01C876.424 400.098 874.806 400.74 873.453 401.856C872.101 402.971 871.074 404.51 870.504 406.277C869.934 408.044 869.845 409.961 870.249 411.784C870.654 413.608 871.533 415.257 872.775 416.522C874.018 417.787 875.568 418.613 877.23 418.893C878.892 419.174 880.591 418.898 882.113 418.099C883.634 417.301 884.91 416.016 885.778 414.407C886.646 412.799 887.068 410.938 886.991 409.062Z" fill="#6C63FF"/>
<path d="M872.059 472.12C871.202 473.882 869.82 475.295 868.127 476.14C866.434 476.986 864.526 477.216 862.697 476.795C860.869 476.374 859.222 475.326 858.013 473.813C856.804 472.3 856.101 470.406 856.011 468.427C855.951 467.179 856.139 465.933 856.564 464.768C857.185 463.062 858.282 461.596 859.709 460.566C861.135 459.536 862.824 458.99 864.55 459C866.277 459.011 867.96 459.577 869.375 460.625C870.79 461.673 871.871 463.152 872.474 464.865L867.164 469.444L873 468.009C873.002 469.439 872.68 470.85 872.059 472.12V472.12Z" fill="#6C63FF"/>
<path d="M867.911 453.99C866.794 454.048 865.678 453.86 864.626 453.437C863.574 453.014 862.607 452.363 861.78 451.523C860.953 450.683 860.283 449.669 859.808 448.539C859.333 447.41 859.062 446.187 859.01 444.941C858.945 443.455 859.198 441.974 859.748 440.619C860.26 439.351 861.014 438.223 861.958 437.314C862.901 436.405 864.011 435.737 865.21 435.356L865.17 439.273L867.094 435.01C869.349 434.894 871.553 435.783 873.221 437.479C874.889 439.176 875.884 441.543 875.989 444.059C876.04 445.155 875.917 446.252 875.626 447.3C875.112 449.164 874.095 450.806 872.715 452.003C871.334 453.2 869.657 453.893 867.911 453.99V453.99Z" fill="#6C63FF"/>
<path d="M888.899 438.99C887.783 439.048 886.668 438.86 885.618 438.437C884.568 438.014 883.602 437.363 882.777 436.523C881.952 435.683 881.282 434.669 880.808 433.539C880.333 432.41 880.063 431.187 880.011 429.941C879.94 428.39 880.215 426.844 880.814 425.443C881.311 424.264 882.02 423.212 882.897 422.353C883.774 421.494 884.8 420.847 885.911 420.45C887.022 420.053 888.194 419.917 889.354 420.049C890.514 420.18 891.638 420.578 892.655 421.216L891.155 425.81L894.24 422.495C895.896 424.189 896.885 426.546 896.99 429.052C897.029 429.931 896.956 430.812 896.773 431.668C896.351 433.68 895.355 435.482 893.934 436.804C892.513 438.125 890.745 438.892 888.899 438.99V438.99Z" fill="#6C63FF"/>
<path opacity="0.1" d="M886.029 411.474C884.033 411.72 882.111 412.405 880.122 412.547C878.133 412.689 875.944 412.152 874.687 410.416C874.101 409.41 873.57 408.365 873.097 407.287C872.553 406.339 871.811 405.554 870.935 405C870.256 406.483 869.937 408.14 870.01 409.805C870.104 412.143 870.954 414.363 872.403 416.049C873.852 417.735 875.8 418.772 877.882 418.967C879.964 419.161 882.038 418.499 883.717 417.105C885.395 415.711 886.562 413.68 887 411.392C886.674 411.407 886.348 411.437 886.029 411.474Z" fill="black"/>
<path opacity="0.1" d="M889.019 438.99C887.889 439.046 886.759 438.866 885.694 438.46C884.63 438.054 883.651 437.431 882.814 436.625C881.978 435.819 881.3 434.847 880.819 433.764C880.338 432.681 880.063 431.509 880.011 430.314C879.939 428.827 880.218 427.344 880.825 426C881.509 426.487 882.097 427.109 882.558 427.833C883.172 428.812 883.538 429.947 884.265 430.842C885.599 432.506 887.899 433.055 889.979 432.957C892.059 432.858 894.06 432.252 896.133 432.033C896.42 432.033 896.713 431.984 897 431.977C896.572 433.904 895.561 435.631 894.121 436.897C892.681 438.162 890.89 438.897 889.019 438.99V438.99Z" fill="black"/>
<path opacity="0.1" d="M868.108 453.99C866.966 454.047 865.825 453.864 864.75 453.453C863.675 453.042 862.686 452.41 861.841 451.593C860.997 450.777 860.312 449.792 859.826 448.695C859.34 447.598 859.063 446.41 859.01 445.199C858.944 443.756 859.202 442.316 859.764 441C860.47 441.504 861.086 442.138 861.583 442.871C862.256 443.885 862.68 445.013 863.468 445.985C864.936 447.72 867.407 448.327 869.63 448.277C871.852 448.227 873.859 447.663 876 447.491C875.474 449.303 874.433 450.899 873.021 452.062C871.609 453.225 869.893 453.898 868.108 453.99V453.99Z" fill="black"/>
<path opacity="0.1" d="M872 472.213C871.146 473.941 869.769 475.328 868.083 476.157C866.396 476.986 864.494 477.211 862.673 476.799C860.851 476.386 859.21 475.357 858.006 473.873C856.801 472.389 856.1 470.532 856.011 468.589C855.951 467.366 856.138 466.143 856.562 465C857.258 465.479 857.883 466.062 858.417 466.73C859.223 467.755 859.728 468.918 860.685 469.868C862.416 471.645 865.215 472.377 867.7 472.445C869.136 472.454 870.572 472.377 872 472.213V472.213Z" fill="black"/>
<path d="M851 486.001C851 486.001 857.714 485.776 859.743 484.185C861.772 482.594 870.074 480.697 870.582 483.247C871.089 485.797 880.676 495.932 873.092 495.998C865.508 496.063 855.467 494.697 853.444 493.339C851.422 491.98 851 486.001 851 486.001Z" fill="#656380"/>
<path opacity="0.2" d="M873.225 495.119C865.641 495.184 855.599 493.811 853.576 492.459C852.041 491.42 851.428 487.715 851.224 486H851C851 486 851.422 491.98 853.444 493.338C855.467 494.697 865.509 496.063 873.093 495.998C875.28 495.998 876.038 495.119 875.999 493.818C875.695 494.625 874.845 495.104 873.225 495.119Z" fill="black"/>
<path d="M955.5 371C958.538 371 961 365.404 961 358.5C961 351.596 958.538 346 955.5 346C952.462 346 950 351.596 950 358.5C950 365.404 952.462 371 955.5 371Z" fill="#F2F2F2"/>
<path d="M955.316 318C955.8 318 956.279 318.114 956.726 318.335C957.173 318.556 957.579 318.88 957.921 319.289C958.263 319.697 958.534 320.182 958.72 320.716C958.905 321.25 959 321.822 959 322.4V332.457C959 334.458 958.335 336.376 957.15 337.791C955.966 339.205 954.359 340 952.684 340C951.707 340 950.77 339.536 950.079 338.711C949.388 337.886 949 336.767 949 335.6V325.543C949 323.542 949.665 321.624 950.85 320.209C952.034 318.795 953.641 318 955.316 318V318Z" fill="#36334A"/>
<path d="M955.661 399C953.895 399 952.2 398.205 950.951 396.791C949.702 395.376 949 393.458 949 391.457V384.543C949 382.542 949.702 380.624 950.951 379.209C952.2 377.795 953.895 377 955.661 377V377C959.325 377 958.992 380.394 958.992 384.543V391.457C958.987 395.606 959.336 399 955.661 399Z" fill="#36334A"/>
<path d="M939.4 348C941.15 348 942.829 348.759 944.067 350.109C945.305 351.459 946 353.29 946 355.2V364.2C946 365.473 945.536 366.694 944.711 367.594C943.886 368.494 942.767 369 941.6 369C939.85 369 938.171 368.241 936.933 366.891C935.695 365.541 935 363.71 935 361.8V352.8C935 351.527 935.464 350.306 936.289 349.406C937.114 348.506 938.233 348 939.4 348Z" fill="#36334A"/>
<path d="M976 355.286C976 356.367 976 357.448 975.94 358.517C975.8 362.676 975.366 366.815 974.641 370.893C974.28 370.963 973.915 370.999 973.549 371C971.812 371 970.147 370.205 968.918 368.791C967.69 367.376 967 365.458 967 363.457V356.543C967 354.542 967.69 352.624 968.918 351.209C970.147 349.795 971.812 349 973.549 349C974.121 348.998 974.69 349.085 975.241 349.258C975.438 349.321 975.634 349.39 975.82 349.471C975.94 351.382 976 353.325 976 355.286Z" fill="#36334A"/>
<path d="M962.019 319.495C964.531 320.641 967.261 321.028 969.943 320.617C972.625 320.207 975.168 319.013 977.324 317.153C979.418 315.325 981.713 313.815 984.149 312.659C987.554 311.093 991.636 309.928 992.878 312.554C995.128 317.301 965.554 329 965.554 329C965.554 329 961.699 326.436 962.019 319.495Z" fill="#696880"/>
<path d="M1012.84 436C1014.66 432.369 1012.59 427.913 1010.21 424.676C1007.84 421.438 1004.94 418.065 1005 413.932C1005.09 408.001 1010.94 404.499 1015.64 401.354C1019.11 399.018 1022.31 396.249 1025.17 393.103C1026.37 391.891 1027.36 390.463 1028.1 388.884C1029.06 386.563 1029.04 383.92 1028.98 381.377C1028.78 372.911 1028.39 364.452 1027.81 356" stroke="#3F3D56" stroke-width="4" stroke-miterlimit="10"/>
<path d="M1035.99 355.062C1035.93 353.47 1035.5 351.922 1034.76 350.561C1034.02 349.2 1032.98 348.07 1031.75 347.275L1029.85 351.481L1029.91 346.385C1029 346.088 1028.05 345.962 1027.1 346.01C1025.42 346.098 1023.81 346.74 1022.45 347.856C1021.1 348.971 1020.07 350.51 1019.5 352.277C1018.93 354.044 1018.85 355.961 1019.25 357.784C1019.65 359.608 1020.53 361.257 1021.78 362.522C1023.02 363.787 1024.57 364.613 1026.23 364.893C1027.89 365.174 1029.59 364.898 1031.11 364.099C1032.63 363.301 1033.91 362.016 1034.78 360.407C1035.65 358.799 1036.07 356.938 1035.99 355.062Z" fill="#6C63FF"/>
<path d="M1021.06 418.12C1020.2 419.882 1018.82 421.295 1017.13 422.14C1015.43 422.986 1013.53 423.216 1011.7 422.795C1009.87 422.374 1008.22 421.326 1007.01 419.813C1005.8 418.3 1005.1 416.406 1005.01 414.427C1004.95 413.179 1005.14 411.933 1005.56 410.768C1006.19 409.062 1007.28 407.596 1008.71 406.566C1010.14 405.536 1011.82 404.99 1013.55 405C1015.28 405.011 1016.96 405.577 1018.37 406.625C1019.79 407.673 1020.87 409.152 1021.47 410.865L1016.16 415.444L1022 414.009C1022 415.439 1021.68 416.85 1021.06 418.12V418.12Z" fill="#6C63FF"/>
<path d="M1016.91 399.99C1015.79 400.048 1014.68 399.86 1013.63 399.437C1012.57 399.014 1011.61 398.363 1010.78 397.523C1009.95 396.683 1009.28 395.669 1008.81 394.539C1008.33 393.41 1008.06 392.187 1008.01 390.941C1007.95 389.455 1008.2 387.974 1008.75 386.619C1009.26 385.351 1010.01 384.223 1010.96 383.314C1011.9 382.405 1013.01 381.737 1014.21 381.356L1014.17 385.273L1016.09 381.01C1018.35 380.894 1020.55 381.783 1022.22 383.479C1023.89 385.176 1024.88 387.543 1024.99 390.059C1025.04 391.155 1024.92 392.252 1024.63 393.3C1024.11 395.164 1023.09 396.806 1021.71 398.003C1020.33 399.2 1018.66 399.893 1016.91 399.99V399.99Z" fill="#6C63FF"/>
<path d="M1037.9 384.99C1036.78 385.048 1035.67 384.86 1034.62 384.437C1033.57 384.014 1032.6 383.363 1031.78 382.523C1030.95 381.683 1030.28 380.669 1029.81 379.539C1029.33 378.41 1029.06 377.187 1029.01 375.941C1028.94 374.39 1029.22 372.844 1029.81 371.443C1030.31 370.264 1031.02 369.212 1031.9 368.353C1032.77 367.494 1033.8 366.847 1034.91 366.45C1036.02 366.053 1037.19 365.917 1038.35 366.049C1039.51 366.18 1040.64 366.578 1041.65 367.216L1040.15 371.81L1043.24 368.495C1044.9 370.189 1045.88 372.546 1045.99 375.052C1046.03 375.931 1045.96 376.812 1045.77 377.668C1045.35 379.68 1044.35 381.482 1042.93 382.804C1041.51 384.125 1039.75 384.892 1037.9 384.99V384.99Z" fill="#6C63FF"/>
<path opacity="0.1" d="M1035.03 357.474C1033.03 357.72 1031.11 358.405 1029.12 358.547C1027.13 358.689 1024.94 358.152 1023.69 356.416C1023.1 355.41 1022.57 354.365 1022.1 353.287C1021.55 352.339 1020.81 351.554 1019.93 351C1019.26 352.483 1018.94 354.14 1019.01 355.805C1019.1 358.143 1019.95 360.363 1021.4 362.049C1022.85 363.735 1024.8 364.772 1026.88 364.967C1028.96 365.161 1031.04 364.499 1032.72 363.105C1034.39 361.711 1035.56 359.68 1036 357.392C1035.67 357.407 1035.35 357.437 1035.03 357.474Z" fill="black"/>
<path opacity="0.1" d="M1038.02 384.99C1036.89 385.046 1035.76 384.866 1034.69 384.46C1033.63 384.054 1032.65 383.431 1031.81 382.625C1030.98 381.819 1030.3 380.847 1029.82 379.764C1029.34 378.681 1029.06 377.509 1029.01 376.314C1028.94 374.827 1029.22 373.344 1029.82 372C1030.51 372.487 1031.1 373.109 1031.56 373.833C1032.17 374.812 1032.54 375.947 1033.27 376.842C1034.6 378.506 1036.9 379.055 1038.98 378.957C1041.06 378.858 1043.06 378.252 1045.13 378.033C1045.42 378.033 1045.71 377.984 1046 377.977C1045.57 379.904 1044.56 381.631 1043.12 382.897C1041.68 384.162 1039.89 384.897 1038.02 384.99V384.99Z" fill="black"/>
<path opacity="0.1" d="M1017.11 399.99C1015.97 400.047 1014.82 399.864 1013.75 399.453C1012.67 399.042 1011.69 398.41 1010.84 397.593C1010 396.777 1009.31 395.792 1008.83 394.695C1008.34 393.598 1008.06 392.41 1008.01 391.199C1007.94 389.756 1008.2 388.316 1008.76 387C1009.47 387.504 1010.09 388.138 1010.58 388.871C1011.26 389.885 1011.68 391.013 1012.47 391.985C1013.94 393.72 1016.41 394.327 1018.63 394.277C1020.85 394.227 1022.86 393.663 1025 393.491C1024.47 395.303 1023.43 396.899 1022.02 398.062C1020.61 399.225 1018.89 399.898 1017.11 399.99V399.99Z" fill="black"/>
<path opacity="0.1" d="M1021 418.213C1020.15 419.941 1018.77 421.328 1017.08 422.157C1015.4 422.986 1013.49 423.211 1011.67 422.799C1009.85 422.386 1008.21 421.357 1007.01 419.873C1005.8 418.389 1005.1 416.532 1005.01 414.589C1004.95 413.366 1005.14 412.143 1005.56 411C1006.26 411.479 1006.88 412.062 1007.42 412.73C1008.22 413.755 1008.73 414.918 1009.69 415.868C1011.42 417.645 1014.22 418.377 1016.7 418.445C1018.14 418.454 1019.57 418.377 1021 418.213V418.213Z" fill="black"/>
<path d="M1000 432.001C1000 432.001 1006.71 431.776 1008.74 430.185C1010.77 428.594 1019.07 426.697 1019.58 429.247C1020.09 431.797 1029.68 441.932 1022.09 441.998C1014.51 442.063 1004.47 440.697 1002.44 439.339C1000.42 437.98 1000 432.001 1000 432.001Z" fill="#656380"/>
<path opacity="0.2" d="M1022.22 441.119C1014.64 441.184 1004.6 439.811 1002.58 438.459C1001.04 437.42 1000.43 433.715 1000.22 432H1000C1000 432 1000.42 437.98 1002.44 439.338C1004.47 440.697 1014.51 442.063 1022.09 441.998C1024.28 441.998 1025.04 441.119 1025 439.818C1024.7 440.625 1023.85 441.104 1022.22 441.119Z" fill="black"/>
<path d="M1201.5 329C1204.54 329 1207 323.404 1207 316.5C1207 309.596 1204.54 304 1201.5 304C1198.46 304 1196 309.596 1196 316.5C1196 323.404 1198.46 329 1201.5 329Z" fill="#F2F2F2"/>
<path d="M1201.32 276C1201.8 276 1202.28 276.114 1202.73 276.335C1203.17 276.556 1203.58 276.88 1203.92 277.289C1204.26 277.697 1204.53 278.182 1204.72 278.716C1204.9 279.25 1205 279.822 1205 280.4V290.457C1205 292.458 1204.33 294.376 1203.15 295.791C1201.97 297.205 1200.36 298 1198.68 298C1197.71 298 1196.77 297.536 1196.08 296.711C1195.39 295.886 1195 294.767 1195 293.6V283.543C1195 281.542 1195.67 279.624 1196.85 278.209C1198.03 276.795 1199.64 276 1201.32 276V276Z" fill="#36334A"/>
<path d="M1201.66 357C1199.89 357 1198.2 356.205 1196.95 354.791C1195.7 353.376 1195 351.458 1195 349.457V342.543C1195 340.542 1195.7 338.624 1196.95 337.209C1198.2 335.795 1199.89 335 1201.66 335V335C1205.33 335 1204.99 338.394 1204.99 342.543V349.457C1204.99 353.606 1205.34 357 1201.66 357Z" fill="#36334A"/>
<path d="M1185.4 306C1187.15 306 1188.83 306.759 1190.07 308.109C1191.3 309.459 1192 311.29 1192 313.2V322.2C1192 323.473 1191.54 324.694 1190.71 325.594C1189.89 326.494 1188.77 327 1187.6 327C1185.85 327 1184.17 326.241 1182.93 324.891C1181.7 323.541 1181 321.71 1181 319.8V310.8C1181 309.527 1181.46 308.306 1182.29 307.406C1183.11 306.506 1184.23 306 1185.4 306Z" fill="#36334A"/>
<path d="M1222 313.286C1222 314.367 1222 315.448 1221.94 316.517C1221.8 320.676 1221.37 324.815 1220.64 328.893C1220.28 328.963 1219.92 328.999 1219.55 329C1217.81 329 1216.15 328.205 1214.92 326.791C1213.69 325.376 1213 323.458 1213 321.457V314.543C1213 312.542 1213.69 310.624 1214.92 309.209C1216.15 307.795 1217.81 307 1219.55 307C1220.12 306.998 1220.69 307.085 1221.24 307.258C1221.44 307.321 1221.63 307.39 1221.82 307.471C1221.94 309.382 1222 311.325 1222 313.286Z" fill="#36334A"/>
<path d="M1208.02 277.495C1210.53 278.641 1213.26 279.028 1215.94 278.617C1218.63 278.207 1221.17 277.013 1223.32 275.153C1225.42 273.325 1227.71 271.815 1230.15 270.659C1233.55 269.093 1237.64 267.928 1238.88 270.554C1241.13 275.301 1211.55 287 1211.55 287C1211.55 287 1207.7 284.436 1208.02 277.495Z" fill="#696880"/>
<path d="M1258.84 394C1260.66 390.369 1258.59 385.913 1256.21 382.676C1253.84 379.438 1250.94 376.065 1251 371.932C1251.09 366.001 1256.94 362.499 1261.64 359.354C1265.11 357.018 1268.31 354.249 1271.17 351.103C1272.37 349.891 1273.36 348.463 1274.1 346.884C1275.06 344.563 1275.04 341.92 1274.98 339.377C1274.78 330.911 1274.39 322.452 1273.81 314" stroke="#3F3D56" stroke-width="4" stroke-miterlimit="10"/>
<path d="M1281.99 313.062C1281.93 311.47 1281.5 309.922 1280.76 308.561C1280.02 307.2 1278.98 306.07 1277.75 305.275L1275.85 309.481L1275.91 304.385C1275 304.088 1274.05 303.962 1273.1 304.01C1271.42 304.098 1269.81 304.74 1268.45 305.856C1267.1 306.971 1266.07 308.51 1265.5 310.277C1264.93 312.044 1264.85 313.961 1265.25 315.784C1265.65 317.608 1266.53 319.257 1267.78 320.522C1269.02 321.787 1270.57 322.613 1272.23 322.893C1273.89 323.174 1275.59 322.898 1277.11 322.099C1278.63 321.301 1279.91 320.016 1280.78 318.407C1281.65 316.799 1282.07 314.938 1281.99 313.062Z" fill="#6C63FF"/>
<path d="M1267.06 376.12C1266.2 377.882 1264.82 379.295 1263.13 380.14C1261.43 380.986 1259.53 381.216 1257.7 380.795C1255.87 380.374 1254.22 379.326 1253.01 377.813C1251.8 376.3 1251.1 374.406 1251.01 372.427C1250.95 371.179 1251.14 369.933 1251.56 368.768C1252.19 367.062 1253.28 365.596 1254.71 364.566C1256.14 363.536 1257.82 362.99 1259.55 363C1261.28 363.011 1262.96 363.577 1264.37 364.625C1265.79 365.673 1266.87 367.152 1267.47 368.865L1262.16 373.444L1268 372.009C1268 373.439 1267.68 374.85 1267.06 376.12V376.12Z" fill="#6C63FF"/>
<path d="M1262.91 357.99C1261.79 358.048 1260.68 357.86 1259.63 357.437C1258.57 357.014 1257.61 356.363 1256.78 355.523C1255.95 354.683 1255.28 353.669 1254.81 352.539C1254.33 351.41 1254.06 350.187 1254.01 348.941C1253.95 347.455 1254.2 345.974 1254.75 344.619C1255.26 343.351 1256.01 342.223 1256.96 341.314C1257.9 340.405 1259.01 339.737 1260.21 339.356L1260.17 343.273L1262.09 339.01C1264.35 338.894 1266.55 339.783 1268.22 341.479C1269.89 343.176 1270.88 345.543 1270.99 348.059C1271.04 349.155 1270.92 350.252 1270.63 351.3C1270.11 353.164 1269.09 354.806 1267.71 356.003C1266.33 357.2 1264.66 357.893 1262.91 357.99V357.99Z" fill="#6C63FF"/>
<path d="M1283.9 342.99C1282.78 343.048 1281.67 342.86 1280.62 342.437C1279.57 342.014 1278.6 341.363 1277.78 340.523C1276.95 339.683 1276.28 338.669 1275.81 337.539C1275.33 336.41 1275.06 335.187 1275.01 333.941C1274.94 332.39 1275.22 330.844 1275.81 329.443C1276.31 328.264 1277.02 327.212 1277.9 326.353C1278.77 325.494 1279.8 324.847 1280.91 324.45C1282.02 324.053 1283.19 323.917 1284.35 324.049C1285.51 324.18 1286.64 324.578 1287.65 325.216L1286.15 329.81L1289.24 326.495C1290.9 328.189 1291.88 330.546 1291.99 333.052C1292.03 333.931 1291.96 334.812 1291.77 335.668C1291.35 337.68 1290.35 339.482 1288.93 340.804C1287.51 342.125 1285.75 342.892 1283.9 342.99V342.99Z" fill="#6C63FF"/>
<path opacity="0.1" d="M1281.03 315.474C1279.03 315.72 1277.11 316.405 1275.12 316.547C1273.13 316.689 1270.94 316.152 1269.69 314.416C1269.1 313.41 1268.57 312.365 1268.1 311.287C1267.55 310.339 1266.81 309.554 1265.93 309C1265.26 310.483 1264.94 312.14 1265.01 313.805C1265.1 316.143 1265.95 318.363 1267.4 320.049C1268.85 321.735 1270.8 322.772 1272.88 322.967C1274.96 323.161 1277.04 322.499 1278.72 321.105C1280.39 319.711 1281.56 317.68 1282 315.392C1281.67 315.407 1281.35 315.437 1281.03 315.474Z" fill="black"/>
<path opacity="0.1" d="M1284.02 342.99C1282.89 343.046 1281.76 342.866 1280.69 342.46C1279.63 342.054 1278.65 341.431 1277.81 340.625C1276.98 339.819 1276.3 338.847 1275.82 337.764C1275.34 336.681 1275.06 335.509 1275.01 334.314C1274.94 332.827 1275.22 331.344 1275.82 330C1276.51 330.487 1277.1 331.109 1277.56 331.833C1278.17 332.812 1278.54 333.947 1279.27 334.842C1280.6 336.506 1282.9 337.055 1284.98 336.957C1287.06 336.858 1289.06 336.252 1291.13 336.033C1291.42 336.033 1291.71 335.984 1292 335.977C1291.57 337.904 1290.56 339.631 1289.12 340.897C1287.68 342.162 1285.89 342.897 1284.02 342.99V342.99Z" fill="black"/>
<path opacity="0.1" d="M1263.11 357.99C1261.97 358.047 1260.82 357.864 1259.75 357.453C1258.67 357.042 1257.69 356.41 1256.84 355.593C1256 354.777 1255.31 353.792 1254.83 352.695C1254.34 351.598 1254.06 350.41 1254.01 349.199C1253.94 347.756 1254.2 346.316 1254.76 345C1255.47 345.504 1256.09 346.138 1256.58 346.871C1257.26 347.885 1257.68 349.013 1258.47 349.985C1259.94 351.72 1262.41 352.327 1264.63 352.277C1266.85 352.227 1268.86 351.663 1271 351.491C1270.47 353.303 1269.43 354.899 1268.02 356.062C1266.61 357.225 1264.89 357.898 1263.11 357.99V357.99Z" fill="black"/>
<path opacity="0.1" d="M1267 376.213C1266.15 377.941 1264.77 379.328 1263.08 380.157C1261.4 380.986 1259.49 381.211 1257.67 380.799C1255.85 380.386 1254.21 379.357 1253.01 377.873C1251.8 376.389 1251.1 374.532 1251.01 372.589C1250.95 371.366 1251.14 370.143 1251.56 369C1252.26 369.479 1252.88 370.062 1253.42 370.73C1254.22 371.755 1254.73 372.918 1255.69 373.868C1257.42 375.645 1260.22 376.377 1262.7 376.445C1264.14 376.454 1265.57 376.377 1267 376.213V376.213Z" fill="black"/>
<path d="M1246 390.001C1246 390.001 1252.71 389.776 1254.74 388.185C1256.77 386.594 1265.07 384.697 1265.58 387.247C1266.09 389.797 1275.68 399.932 1268.09 399.998C1260.51 400.063 1250.47 398.697 1248.44 397.339C1246.42 395.98 1246 390.001 1246 390.001Z" fill="#656380"/>
<path opacity="0.2" d="M1268.22 399.119C1260.64 399.184 1250.6 397.811 1248.58 396.459C1247.04 395.42 1246.43 391.715 1246.22 390H1246C1246 390 1246.42 395.98 1248.44 397.338C1250.47 398.697 1260.51 400.063 1268.09 399.998C1270.28 399.998 1271.04 399.119 1271 397.818C1270.7 398.625 1269.85 399.104 1268.22 399.119Z" fill="black"/>
<path d="M1459.5 385C1462.54 385 1465 379.404 1465 372.5C1465 365.596 1462.54 360 1459.5 360C1456.46 360 1454 365.596 1454 372.5C1454 379.404 1456.46 385 1459.5 385Z" fill="#F2F2F2"/>
<path d="M1459.32 332C1459.8 332 1460.28 332.114 1460.73 332.335C1461.17 332.556 1461.58 332.88 1461.92 333.289C1462.26 333.697 1462.53 334.182 1462.72 334.716C1462.9 335.25 1463 335.822 1463 336.4V346.457C1463 348.458 1462.33 350.376 1461.15 351.791C1459.97 353.205 1458.36 354 1456.68 354C1455.71 354 1454.77 353.536 1454.08 352.711C1453.39 351.886 1453 350.767 1453 349.6V339.543C1453 337.542 1453.67 335.624 1454.85 334.209C1456.03 332.795 1457.64 332 1459.32 332V332Z" fill="#36334A"/>
<path d="M1459.66 413C1457.89 413 1456.2 412.205 1454.95 410.791C1453.7 409.376 1453 407.458 1453 405.457V398.543C1453 396.542 1453.7 394.624 1454.95 393.209C1456.2 391.795 1457.89 391 1459.66 391V391C1463.33 391 1462.99 394.394 1462.99 398.543V405.457C1462.99 409.606 1463.34 413 1459.66 413Z" fill="#36334A"/>
<path d="M1443.4 362C1445.15 362 1446.83 362.759 1448.07 364.109C1449.3 365.459 1450 367.29 1450 369.2V378.2C1450 379.473 1449.54 380.694 1448.71 381.594C1447.89 382.494 1446.77 383 1445.6 383C1443.85 383 1442.17 382.241 1440.93 380.891C1439.7 379.541 1439 377.71 1439 375.8V366.8C1439 365.527 1439.46 364.306 1440.29 363.406C1441.11 362.506 1442.23 362 1443.4 362Z" fill="#36334A"/>
<path d="M1480 369.286C1480 370.367 1480 371.448 1479.94 372.517C1479.8 376.676 1479.37 380.815 1478.64 384.893C1478.28 384.963 1477.92 384.999 1477.55 385C1475.81 385 1474.15 384.205 1472.92 382.791C1471.69 381.376 1471 379.458 1471 377.457V370.543C1471 368.542 1471.69 366.624 1472.92 365.209C1474.15 363.795 1475.81 363 1477.55 363C1478.12 362.998 1478.69 363.085 1479.24 363.258C1479.44 363.321 1479.63 363.39 1479.82 363.471C1479.94 365.382 1480 367.325 1480 369.286Z" fill="#36334A"/>
<path d="M1466.02 333.495C1468.53 334.641 1471.26 335.028 1473.94 334.617C1476.63 334.207 1479.17 333.013 1481.32 331.153C1483.42 329.325 1485.71 327.815 1488.15 326.659C1491.55 325.093 1495.64 323.928 1496.88 326.554C1499.13 331.301 1469.55 343 1469.55 343C1469.55 343 1465.7 340.436 1466.02 333.495Z" fill="#696880"/>
<path d="M1516.84 450C1518.66 446.369 1516.59 441.913 1514.21 438.676C1511.84 435.438 1508.94 432.065 1509 427.932C1509.09 422.001 1514.94 418.499 1519.64 415.354C1523.11 413.018 1526.31 410.249 1529.17 407.103C1530.37 405.891 1531.36 404.463 1532.1 402.884C1533.06 400.563 1533.04 397.92 1532.98 395.377C1532.78 386.911 1532.39 378.452 1531.81 370" stroke="#3F3D56" stroke-width="4" stroke-miterlimit="10"/>
<path d="M1539.99 369.062C1539.93 367.47 1539.5 365.922 1538.76 364.561C1538.02 363.2 1536.98 362.07 1535.75 361.275L1533.85 365.481L1533.91 360.385C1533 360.088 1532.05 359.962 1531.1 360.01C1529.42 360.098 1527.81 360.74 1526.45 361.856C1525.1 362.971 1524.07 364.51 1523.5 366.277C1522.93 368.044 1522.85 369.961 1523.25 371.784C1523.65 373.608 1524.53 375.257 1525.78 376.522C1527.02 377.787 1528.57 378.613 1530.23 378.893C1531.89 379.174 1533.59 378.898 1535.11 378.099C1536.63 377.301 1537.91 376.016 1538.78 374.407C1539.65 372.799 1540.07 370.938 1539.99 369.062Z" fill="#6C63FF"/>
<path d="M1525.06 432.12C1524.2 433.882 1522.82 435.295 1521.13 436.14C1519.43 436.986 1517.53 437.216 1515.7 436.795C1513.87 436.374 1512.22 435.326 1511.01 433.813C1509.8 432.3 1509.1 430.406 1509.01 428.427C1508.95 427.179 1509.14 425.933 1509.56 424.768C1510.19 423.062 1511.28 421.596 1512.71 420.566C1514.14 419.536 1515.82 418.99 1517.55 419C1519.28 419.011 1520.96 419.577 1522.37 420.625C1523.79 421.673 1524.87 423.152 1525.47 424.865L1520.16 429.444L1526 428.009C1526 429.439 1525.68 430.85 1525.06 432.12V432.12Z" fill="#6C63FF"/>
<path d="M1520.91 413.99C1519.79 414.048 1518.68 413.86 1517.63 413.437C1516.57 413.014 1515.61 412.363 1514.78 411.523C1513.95 410.683 1513.28 409.669 1512.81 408.539C1512.33 407.41 1512.06 406.187 1512.01 404.941C1511.95 403.455 1512.2 401.974 1512.75 400.619C1513.26 399.351 1514.01 398.223 1514.96 397.314C1515.9 396.405 1517.01 395.737 1518.21 395.356L1518.17 399.273L1520.09 395.01C1522.35 394.894 1524.55 395.783 1526.22 397.479C1527.89 399.176 1528.88 401.543 1528.99 404.059C1529.04 405.155 1528.92 406.252 1528.63 407.3C1528.11 409.164 1527.09 410.806 1525.71 412.003C1524.33 413.2 1522.66 413.893 1520.91 413.99V413.99Z" fill="#6C63FF"/>
<path d="M1541.9 398.99C1540.78 399.048 1539.67 398.86 1538.62 398.437C1537.57 398.014 1536.6 397.363 1535.78 396.523C1534.95 395.683 1534.28 394.669 1533.81 393.539C1533.33 392.41 1533.06 391.187 1533.01 389.941C1532.94 388.39 1533.22 386.844 1533.81 385.443C1534.31 384.264 1535.02 383.212 1535.9 382.353C1536.77 381.494 1537.8 380.847 1538.91 380.45C1540.02 380.053 1541.19 379.917 1542.35 380.049C1543.51 380.18 1544.64 380.578 1545.65 381.216L1544.15 385.81L1547.24 382.495C1548.9 384.189 1549.88 386.546 1549.99 389.052C1550.03 389.931 1549.96 390.812 1549.77 391.668C1549.35 393.68 1548.35 395.482 1546.93 396.804C1545.51 398.125 1543.75 398.892 1541.9 398.99V398.99Z" fill="#6C63FF"/>
<path opacity="0.1" d="M1539.03 371.474C1537.03 371.72 1535.11 372.405 1533.12 372.547C1531.13 372.689 1528.94 372.152 1527.69 370.416C1527.1 369.41 1526.57 368.365 1526.1 367.287C1525.55 366.339 1524.81 365.554 1523.93 365C1523.26 366.483 1522.94 368.14 1523.01 369.805C1523.1 372.143 1523.95 374.363 1525.4 376.049C1526.85 377.735 1528.8 378.772 1530.88 378.967C1532.96 379.161 1535.04 378.499 1536.72 377.105C1538.39 375.711 1539.56 373.68 1540 371.392C1539.67 371.407 1539.35 371.437 1539.03 371.474Z" fill="black"/>
<path opacity="0.1" d="M1542.02 398.99C1540.89 399.046 1539.76 398.866 1538.69 398.46C1537.63 398.054 1536.65 397.431 1535.81 396.625C1534.98 395.819 1534.3 394.847 1533.82 393.764C1533.34 392.681 1533.06 391.509 1533.01 390.314C1532.94 388.827 1533.22 387.344 1533.82 386C1534.51 386.487 1535.1 387.109 1535.56 387.833C1536.17 388.812 1536.54 389.947 1537.27 390.842C1538.6 392.506 1540.9 393.055 1542.98 392.957C1545.06 392.858 1547.06 392.252 1549.13 392.033C1549.42 392.033 1549.71 391.984 1550 391.977C1549.57 393.904 1548.56 395.631 1547.12 396.897C1545.68 398.162 1543.89 398.897 1542.02 398.99V398.99Z" fill="black"/>
<path opacity="0.1" d="M1521.11 413.99C1519.97 414.047 1518.82 413.864 1517.75 413.453C1516.67 413.042 1515.69 412.41 1514.84 411.593C1514 410.777 1513.31 409.792 1512.83 408.695C1512.34 407.598 1512.06 406.41 1512.01 405.199C1511.94 403.756 1512.2 402.316 1512.76 401C1513.47 401.504 1514.09 402.138 1514.58 402.871C1515.26 403.885 1515.68 405.013 1516.47 405.985C1517.94 407.72 1520.41 408.327 1522.63 408.277C1524.85 408.227 1526.86 407.663 1529 407.491C1528.47 409.303 1527.43 410.899 1526.02 412.062C1524.61 413.225 1522.89 413.898 1521.11 413.99V413.99Z" fill="black"/>
<path opacity="0.1" d="M1525 432.213C1524.15 433.941 1522.77 435.328 1521.08 436.157C1519.4 436.986 1517.49 437.211 1515.67 436.799C1513.85 436.386 1512.21 435.357 1511.01 433.873C1509.8 432.389 1509.1 430.532 1509.01 428.589C1508.95 427.366 1509.14 426.143 1509.56 425C1510.26 425.479 1510.88 426.062 1511.42 426.73C1512.22 427.755 1512.73 428.918 1513.69 429.868C1515.42 431.645 1518.22 432.377 1520.7 432.445C1522.14 432.454 1523.57 432.377 1525 432.213V432.213Z" fill="black"/>
<path d="M1504 446.001C1504 446.001 1510.71 445.776 1512.74 444.185C1514.77 442.594 1523.07 440.697 1523.58 443.247C1524.09 445.797 1533.68 455.932 1526.09 455.998C1518.51 456.063 1508.47 454.697 1506.44 453.339C1504.42 451.98 1504 446.001 1504 446.001Z" fill="#656380"/>
<path opacity="0.2" d="M1526.22 455.119C1518.64 455.184 1508.6 453.811 1506.58 452.459C1505.04 451.42 1504.43 447.715 1504.22 446H1504C1504 446 1504.42 451.98 1506.44 453.338C1508.47 454.697 1518.51 456.063 1526.09 455.998C1528.28 455.998 1529.04 455.119 1529 453.818C1528.7 454.625 1527.85 455.104 1526.22 455.119Z" fill="black"/>
</svg>
