<svg width="4329" height="941" viewBox="0 0 4329 941" fill="none" xmlns="http://www.w3.org/2000/svg">
<rect width="4329" height="941" fill="#2A69B0"/>
<path d="M540.5 266L584.842 406.961L728.334 406.961L612.246 494.079L656.588 635.039L540.5 547.921L424.412 635.039L468.754 494.079L352.666 406.961L496.158 406.961L540.5 266Z" fill="white"/>
<path d="M540.5 266L584.842 406.961L728.334 406.961L612.246 494.079L656.588 635.039L540.5 547.921L424.412 635.039L468.754 494.079L352.666 406.961L496.158 406.961L540.5 266Z" fill="white"/>
<path d="M540.5 266L584.842 406.961L728.334 406.961L612.246 494.079L656.588 635.039L540.5 547.921L424.412 635.039L468.754 494.079L352.666 406.961L496.158 406.961L540.5 266Z" fill="white"/>
<path d="M540.5 266L584.842 406.961L728.334 406.961L612.246 494.079L656.588 635.039L540.5 547.921L424.412 635.039L468.754 494.079L352.666 406.961L496.158 406.961L540.5 266Z" fill="white"/>
<path d="M1280.5 470L1324.84 610.961L1468.33 610.961L1352.25 698.079L1396.59 839.039L1280.5 751.921L1164.41 839.039L1208.75 698.079L1092.67 610.961L1236.16 610.961L1280.5 470Z" fill="white"/>
<path d="M1280.5 470L1324.84 610.961L1468.33 610.961L1352.25 698.079L1396.59 839.039L1280.5 751.921L1164.41 839.039L1208.75 698.079L1092.67 610.961L1236.16 610.961L1280.5 470Z" fill="white"/>
<path d="M1280.5 470L1324.84 610.961L1468.33 610.961L1352.25 698.079L1396.59 839.039L1280.5 751.921L1164.41 839.039L1208.75 698.079L1092.67 610.961L1236.16 610.961L1280.5 470Z" fill="white"/>
<path d="M1280.5 470L1324.84 610.961L1468.33 610.961L1352.25 698.079L1396.59 839.039L1280.5 751.921L1164.41 839.039L1208.75 698.079L1092.67 610.961L1236.16 610.961L1280.5 470Z" fill="white"/>
<path d="M1823.5 62L1867.84 202.961L2011.33 202.961L1895.25 290.079L1939.59 431.039L1823.5 343.921L1707.41 431.039L1751.75 290.079L1635.67 202.961L1779.16 202.961L1823.5 62Z" fill="white"/>
<path d="M1823.5 62L1867.84 202.961L2011.33 202.961L1895.25 290.079L1939.59 431.039L1823.5 343.921L1707.41 431.039L1751.75 290.079L1635.67 202.961L1779.16 202.961L1823.5 62Z" fill="white"/>
<path d="M1823.5 62L1867.84 202.961L2011.33 202.961L1895.25 290.079L1939.59 431.039L1823.5 343.921L1707.41 431.039L1751.75 290.079L1635.67 202.961L1779.16 202.961L1823.5 62Z" fill="white"/>
<path d="M1823.5 62L1867.84 202.961L2011.33 202.961L1895.25 290.079L1939.59 431.039L1823.5 343.921L1707.41 431.039L1751.75 290.079L1635.67 202.961L1779.16 202.961L1823.5 62Z" fill="white"/>
<path d="M2839.5 62L2883.84 202.961L3027.33 202.961L2911.25 290.079L2955.59 431.039L2839.5 343.921L2723.41 431.039L2767.75 290.079L2651.67 202.961L2795.16 202.961L2839.5 62Z" fill="white"/>
<path d="M2839.5 62L2883.84 202.961L3027.33 202.961L2911.25 290.079L2955.59 431.039L2839.5 343.921L2723.41 431.039L2767.75 290.079L2651.67 202.961L2795.16 202.961L2839.5 62Z" fill="white"/>
<path d="M2839.5 62L2883.84 202.961L3027.33 202.961L2911.25 290.079L2955.59 431.039L2839.5 343.921L2723.41 431.039L2767.75 290.079L2651.67 202.961L2795.16 202.961L2839.5 62Z" fill="white"/>
<path d="M2839.5 62L2883.84 202.961L3027.33 202.961L2911.25 290.079L2955.59 431.039L2839.5 343.921L2723.41 431.039L2767.75 290.079L2651.67 202.961L2795.16 202.961L2839.5 62Z" fill="white"/>
<path d="M3382.5 407L3426.84 547.961L3570.33 547.961L3454.25 635.079L3498.59 776.039L3382.5 688.921L3266.41 776.039L3310.75 635.079L3194.67 547.961L3338.16 547.961L3382.5 407Z" fill="white"/>
<path d="M3382.5 407L3426.84 547.961L3570.33 547.961L3454.25 635.079L3498.59 776.039L3382.5 688.921L3266.41 776.039L3310.75 635.079L3194.67 547.961L3338.16 547.961L3382.5 407Z" fill="white"/>
<path d="M3382.5 407L3426.84 547.961L3570.33 547.961L3454.25 635.079L3498.59 776.039L3382.5 688.921L3266.41 776.039L3310.75 635.079L3194.67 547.961L3338.16 547.961L3382.5 407Z" fill="white"/>
<path d="M3382.5 407L3426.84 547.961L3570.33 547.961L3454.25 635.079L3498.59 776.039L3382.5 688.921L3266.41 776.039L3310.75 635.079L3194.67 547.961L3338.16 547.961L3382.5 407Z" fill="white"/>
<path d="M2218.5 407L2262.84 547.961L2406.33 547.961L2290.25 635.079L2334.59 776.039L2218.5 688.921L2102.41 776.039L2146.75 635.079L2030.67 547.961L2174.16 547.961L2218.5 407Z" fill="white"/>
<path d="M2218.5 407L2262.84 547.961L2406.33 547.961L2290.25 635.079L2334.59 776.039L2218.5 688.921L2102.41 776.039L2146.75 635.079L2030.67 547.961L2174.16 547.961L2218.5 407Z" fill="white"/>
<path d="M2218.5 407L2262.84 547.961L2406.33 547.961L2290.25 635.079L2334.59 776.039L2218.5 688.921L2102.41 776.039L2146.75 635.079L2030.67 547.961L2174.16 547.961L2218.5 407Z" fill="white"/>
<path d="M2218.5 407L2262.84 547.961L2406.33 547.961L2290.25 635.079L2334.59 776.039L2218.5 688.921L2102.41 776.039L2146.75 635.079L2030.67 547.961L2174.16 547.961L2218.5 407Z" fill="white"/>
<path d="M935.5 62L979.842 202.961L1123.33 202.961L1007.25 290.079L1051.59 431.039L935.5 343.921L819.412 431.039L863.754 290.079L747.666 202.961L891.158 202.961L935.5 62Z" fill="white"/>
<path d="M935.5 62L979.842 202.961L1123.33 202.961L1007.25 290.079L1051.59 431.039L935.5 343.921L819.412 431.039L863.754 290.079L747.666 202.961L891.158 202.961L935.5 62Z" fill="white"/>
<path d="M935.5 62L979.842 202.961L1123.33 202.961L1007.25 290.079L1051.59 431.039L935.5 343.921L819.412 431.039L863.754 290.079L747.666 202.961L891.158 202.961L935.5 62Z" fill="white"/>
<path d="M935.5 62L979.842 202.961L1123.33 202.961L1007.25 290.079L1051.59 431.039L935.5 343.921L819.412 431.039L863.754 290.079L747.666 202.961L891.158 202.961L935.5 62Z" fill="white"/>
</svg>
