<svg width="772" height="382" viewBox="0 0 772 382" fill="none" xmlns="http://www.w3.org/2000/svg">
<path d="M547.56 276.19C547.56 276.19 486.42 313.07 599.12 369.86C599.12 369.86 623.95 323.76 596.5 286.17C591.173 278.846 583.345 273.73 574.498 271.791C565.652 269.852 556.402 271.225 548.5 275.65L547.56 276.19Z" fill="#488744"/>
<path d="M548.26 275.42C548.26 275.42 600.58 315.42 599.12 369.87" stroke="#535461" stroke-miterlimit="10"/>
<path d="M613.69 86.6899C613.69 86.6899 587.47 140.93 604.69 205.12C621.91 269.31 616.44 346.12 599.27 365.12" stroke="#535461" stroke-width="2" stroke-miterlimit="10"/>
<path d="M602.79 121.58C602.79 121.58 629.97 126.48 637.2 116.58" stroke="#535461" stroke-width="2" stroke-miterlimit="10"/>
<path d="M600.21 137.33C600.21 137.33 583.86 119.24 584.76 108.39" stroke="#535461" stroke-width="2" stroke-miterlimit="10"/>
<path d="M598.82 170.47C598.82 170.47 613.69 174.39 627.26 145.47" stroke="#535461" stroke-width="2" stroke-miterlimit="10"/>
<path d="M602.79 194.57C602.79 194.57 565.79 170.76 570.3 155.4" stroke="#535461" stroke-width="2" stroke-miterlimit="10"/>
<path d="M608.57 221.82C608.57 221.82 634.49 198.82 631.78 176.19" stroke="#535461" stroke-width="2" stroke-miterlimit="10"/>
<path d="M611.39 237.84C611.39 237.84 578.39 228.62 579.39 214.16" stroke="#535461" stroke-width="2" stroke-miterlimit="10"/>
<path d="M613.69 256.93C613.69 256.93 634.48 237.67 637.19 225.93" stroke="#535461" stroke-width="2" stroke-miterlimit="10"/>
<path d="M615.14 289.68C615.14 289.68 593.81 264.78 592.9 252.13" stroke="#535461" stroke-width="2" stroke-miterlimit="10"/>
<path d="M615.14 310.29C615.14 310.29 639.01 283.77 640.81 271.12" stroke="#535461" stroke-width="2" stroke-miterlimit="10"/>
<path d="M584.76 117.43C588.753 117.43 591.99 114.193 591.99 110.2C591.99 106.207 588.753 102.97 584.76 102.97C580.767 102.97 577.53 106.207 577.53 110.2C577.53 114.193 580.767 117.43 584.76 117.43Z" fill="#6C63FF"/>
<path d="M576.63 221.39C580.623 221.39 583.86 218.153 583.86 214.16C583.86 210.167 580.623 206.93 576.63 206.93C572.637 206.93 569.4 210.167 569.4 214.16C569.4 218.153 572.637 221.39 576.63 221.39Z" fill="#6C63FF"/>
<path d="M570.3 162.63C574.293 162.63 577.53 159.393 577.53 155.4C577.53 151.407 574.293 148.17 570.3 148.17C566.307 148.17 563.07 151.407 563.07 155.4C563.07 159.393 566.307 162.63 570.3 162.63Z" fill="#6C63FF"/>
<path d="M591.09 263.88C595.083 263.88 598.32 260.643 598.32 256.65C598.32 252.657 595.083 249.42 591.09 249.42C587.097 249.42 583.86 252.657 583.86 256.65C583.86 260.643 587.097 263.88 591.09 263.88Z" fill="#6C63FF"/>
<path d="M706.715 148.14C706.715 148.14 775.885 252.56 770.715 381.92" stroke="#488744" stroke-miterlimit="10"/>
<path d="M672.935 324.14H608.685C610.163 321.167 610.93 317.891 610.925 314.57V22.01C610.925 16.3052 608.658 10.834 604.624 6.80013C600.591 2.76622 595.119 0.5 589.415 0.5H92.0845C86.3797 0.5 80.9086 2.76622 76.8747 6.80013C72.8408 10.834 70.5746 16.3052 70.5746 22.01V314.58C70.5694 317.901 71.3362 321.177 72.8146 324.15H6.29456C5.54481 324.15 4.80245 324.298 4.11014 324.586C3.41784 324.874 2.78924 325.296 2.26049 325.827C1.73173 326.359 1.31323 326.989 1.02906 327.683C0.744877 328.377 0.600618 329.12 0.604571 329.87V334.46C0.604571 342.899 3.95702 350.993 9.92443 356.96C15.8918 362.928 23.9854 366.28 32.4246 366.28H646.805C655.244 366.28 663.337 362.928 669.305 356.96C675.272 350.993 678.625 342.899 678.625 334.46V329.87C678.63 329.119 678.487 328.375 678.203 327.68C677.919 326.985 677.501 326.353 676.972 325.821C676.443 325.288 675.814 324.865 675.121 324.577C674.428 324.288 673.685 324.14 672.935 324.14ZM277.045 342.34L271.505 336.09H408.285L402.185 342.35L277.045 342.34Z" fill="url(#paint0_linear)"/>
<path d="M581.525 4.64014H99.925C87.0789 4.64014 76.665 15.054 76.665 27.9001V309.37C76.665 322.216 87.0789 332.63 99.925 332.63H581.525C594.371 332.63 604.785 322.216 604.785 309.37V27.9001C604.785 15.054 594.371 4.64014 581.525 4.64014Z" fill="#535461"/>
<path d="M592.555 52.4497H87.7852V320.4H592.555V52.4497Z" fill="white"/>
<path d="M340.175 33.5499C342.632 33.5499 344.625 31.5576 344.625 29.0999C344.625 26.6422 342.632 24.6499 340.175 24.6499C337.717 24.6499 335.725 26.6422 335.725 29.0999C335.725 31.5576 337.717 33.5499 340.175 33.5499Z" fill="white"/>
<path d="M418.105 320.95L400.765 338.74H278.505L262.835 320.95H13.8452C12.3706 320.95 10.9564 321.535 9.91365 322.578C8.87095 323.621 8.28516 325.035 8.28516 326.51V330.99C8.28516 339.238 11.5618 347.148 17.3941 352.981C23.2265 358.813 31.1369 362.09 39.3852 362.09H639.845C643.929 362.09 647.973 361.285 651.747 359.722C655.52 358.159 658.948 355.869 661.836 352.981C664.724 350.093 667.015 346.664 668.578 342.891C670.141 339.118 670.945 335.074 670.945 330.99V326.51C670.945 325.035 670.359 323.621 669.317 322.578C668.274 321.535 666.86 320.95 665.385 320.95H418.105Z" fill="#535461"/>
<path d="M152.274 69.1299V297.05H529.174" stroke="#535461" stroke-width="2" stroke-miterlimit="10"/>
<path opacity="0.5" d="M224.535 228.12H185.625V288.16H224.535V228.12Z" fill="#6C63FF"/>
<path opacity="0.7" d="M291.245 174.75H252.335V288.16H291.245V174.75Z" fill="#6C63FF"/>
<path opacity="0.5" d="M357.955 206.99H319.045V288.15H357.955V206.99Z" fill="#6C63FF"/>
<path opacity="0.8" d="M424.665 156.96H385.755V288.16H424.665V156.96Z" fill="#6C63FF"/>
<path d="M491.375 110.26H452.465V288.15H491.375V110.26Z" fill="#6C63FF"/>
<path d="M204.524 191.43L272.344 130.28L339.054 188.09L404.654 118.05L471.364 90.25" stroke="#535461" stroke-width="2" stroke-miterlimit="10"/>
<path d="M204.525 199.21C208.822 199.21 212.305 195.727 212.305 191.43C212.305 187.133 208.822 183.65 204.525 183.65C200.228 183.65 196.745 187.133 196.745 191.43C196.745 195.727 200.228 199.21 204.525 199.21Z" fill="#6C63FF"/>
<path d="M337.945 194.76C342.242 194.76 345.725 191.276 345.725 186.98C345.725 182.683 342.242 179.2 337.945 179.2C333.648 179.2 330.165 182.683 330.165 186.98C330.165 191.276 333.648 194.76 337.945 194.76Z" fill="#6C63FF"/>
<path d="M405.765 125.83C410.062 125.83 413.545 122.347 413.545 118.05C413.545 113.753 410.062 110.27 405.765 110.27C401.469 110.27 397.985 113.753 397.985 118.05C397.985 122.347 401.469 125.83 405.765 125.83Z" fill="#6C63FF"/>
<path d="M272.344 136.94C276.641 136.94 280.124 133.457 280.124 129.16C280.124 124.863 276.641 121.38 272.344 121.38C268.048 121.38 264.564 124.863 264.564 129.16C264.564 133.457 268.048 136.94 272.344 136.94Z" fill="#6C63FF"/>
<path d="M471.365 98.0297C475.662 98.0297 479.145 94.5465 479.145 90.2497C479.145 85.953 475.662 82.4697 471.365 82.4697C467.068 82.4697 463.585 85.953 463.585 90.2497C463.585 94.5465 467.068 98.0297 471.365 98.0297Z" fill="#6C63FF"/>
<path opacity="0.1" d="M646.505 81.0899C646.505 81.0899 652.025 79.2499 652.025 74.6499L646.505 81.0899Z" fill="black"/>
<defs>
<linearGradient id="paint0_linear" x1="339.615" y1="366.24" x2="339.615" y2="0.489994" gradientUnits="userSpaceOnUse">
<stop stop-color="#808080" stop-opacity="0.25"/>
<stop offset="0.54" stop-color="#808080" stop-opacity="0.12"/>
<stop offset="1" stop-color="#808080" stop-opacity="0.1"/>
</linearGradient>
</defs>
</svg>
