<svg width="999" height="272" viewBox="0 0 999 272" fill="none" xmlns="http://www.w3.org/2000/svg">
<path d="M214 29.3398L213.63 49.2899L210.67 211L185.33 270.34L98 271.34V38.5298L189.14 31.3098L214 29.3398Z" fill="#5F5D7E"/>
<path opacity="0.1" d="M214 29.3398L213.63 49.2899L210.67 211L185.33 270.34L98 271.34V38.5298L189.14 31.3098L214 29.3398Z" fill="black"/>
<path d="M214 29.3398L213.63 49.2899L210.67 211L185.33 270.34L192 49.6699L191.98 49.5298L189.14 31.3098L214 29.3398Z" fill="#5F5D7E"/>
<path opacity="0.1" d="M189.14 31.3098L214 29.3398L213.63 49.2899L191.98 49.5298L98 50.5798V38.5298L189.14 31.3098Z" fill="black"/>
<path d="M999 38.5299V270H978.67L897.33 210.67V31.9999L970 25.1699L974.46 27.2199L978.67 29.1599L999 38.5299Z" fill="#5F5D7E"/>
<path opacity="0.1" d="M999 27.2199V40.5299L978.67 40.7599L897.33 41.6599V31.9999L970 25.1699L974.46 27.2199L978.67 29.1599V27.2199H999Z" fill="black"/>
<path d="M999 19.6699V38.5299L0 49.6699V25.6699L94 6.66992L912 0.669922L999 19.6699Z" fill="#5F5D7E"/>
<path opacity="0.1" d="M999 19.6699V38.5299L0 49.6699V25.6699L999 19.6699Z" fill="black"/>
<path opacity="0.1" d="M767.5 11.3796C767.28 11.3796 767.07 11.3297 766.86 11.2897C767.078 11.2666 767.298 11.2975 767.5 11.3796V11.3796Z" fill="black"/>
<path opacity="0.1" d="M636.68 44.93C636.68 44.93 645.18 48.18 654.18 39.18C663.18 30.18 636.68 44.93 636.68 44.93Z" fill="black"/>
<path opacity="0.1" d="M170.24 15.6296C195.115 15.6296 215.28 14.3357 215.28 12.7396C215.28 11.1435 195.115 9.84961 170.24 9.84961C145.365 9.84961 125.2 11.1435 125.2 12.7396C125.2 14.3357 145.365 15.6296 170.24 15.6296Z" fill="black"/>
<path d="M194.11 0.469727H150.3V11.9897H194.11V0.469727Z" fill="#474157"/>
<path opacity="0.1" d="M193.69 0.469727H149.88V11.9897H193.69V0.469727Z" fill="black"/>
<path d="M196.99 0.469727H153.18V11.9897H196.99V0.469727Z" fill="#474157"/>
<path opacity="0.1" d="M196.99 0.469727H153.18V4.67972H196.99V0.469727Z" fill="black"/>
<path d="M311.89 116.66C311.89 116.66 319.02 125.99 308.6 140.07C298.18 154.15 289.6 166.07 293.04 174.83C293.04 174.83 308.78 148.67 321.59 148.31C334.4 147.95 325.98 132.4 311.89 116.66Z" fill="#6C63FF"/>
<path opacity="0.1" d="M311.89 116.66C312.513 117.559 313.005 118.542 313.35 119.58C325.84 134.26 332.5 147.96 320.49 148.31C309.3 148.66 295.88 168.66 292.66 173.66C292.77 174.05 292.9 174.44 293.04 174.81C293.04 174.81 308.78 148.65 321.59 148.29C334.4 147.93 325.98 132.4 311.89 116.66Z" fill="black"/>
<path d="M325.15 128.56C325.15 131.84 324.78 134.5 324.33 134.5C323.88 134.5 323.51 131.84 323.51 128.56C323.51 125.28 323.97 126.82 324.42 126.82C324.87 126.82 325.15 125.27 325.15 128.56Z" fill="#FFD037"/>
<path d="M329.7 132.48C326.82 134.05 324.31 135 324.09 134.6C323.87 134.2 326.03 132.6 328.92 131.03C331.81 129.46 330.66 130.6 330.92 131.03C331.18 131.46 332.59 130.91 329.7 132.48Z" fill="#FFD037"/>
<path d="M274.2 116.66C274.2 116.66 267.07 125.99 277.49 140.07C287.91 154.15 296.49 166.07 293.04 174.83C293.04 174.83 277.31 148.67 264.5 148.31C251.69 147.95 260.11 132.4 274.2 116.66Z" fill="#6C63FF"/>
<path opacity="0.1" d="M274.2 116.66C273.577 117.559 273.085 118.542 272.74 119.58C260.25 134.26 253.59 147.96 265.6 148.31C276.79 148.66 290.21 168.66 293.43 173.66C293.321 174.05 293.191 174.434 293.04 174.81C293.04 174.81 277.31 148.66 264.5 148.32C251.69 147.98 260.11 132.4 274.2 116.66Z" fill="black"/>
<path d="M260.94 128.56C260.94 131.84 261.31 134.5 261.76 134.5C262.21 134.5 262.58 131.84 262.58 128.56C262.58 125.28 262.12 126.82 261.67 126.82C261.22 126.82 260.94 125.27 260.94 128.56Z" fill="#FFD037"/>
<path d="M256.39 132.48C259.27 134.05 261.78 135 262 134.6C262.22 134.2 260.06 132.6 257.17 131.03C254.28 129.46 255.43 130.6 255.17 131.03C254.91 131.46 253.5 130.91 256.39 132.48Z" fill="#FFD037"/>
<path d="M331.44 162.27L331.08 165.18L330.58 169.3L330.38 171.01L329.87 175.13L329.66 176.85L329.16 180.96L323.5 227.76C322.99 231.94 316.16 235.19 307.93 235.19H278.21C269.97 235.19 263.21 231.94 262.65 227.76L256.93 180.96L256.43 176.85L256.22 175.13L255.71 171.01L255.51 169.3L255.01 165.18L254.65 162.27C254.36 159.91 258.05 157.91 262.72 157.91H323.38C328.03 157.91 331.73 159.91 331.44 162.27Z" fill="#65617D"/>
<path d="M331.08 165.18L330.58 169.29H255.51L255.01 165.18H331.08Z" fill="#9D9CB5"/>
<path d="M330.38 171.01L329.88 175.13H256.22L255.71 171.01H330.38Z" fill="#9D9CB5"/>
<path d="M329.66 176.84L329.16 180.96H256.93L256.43 176.84H329.66Z" fill="#9D9CB5"/>
</svg>
