<svg width="30" height="30" viewBox="0 0 50 50" fill="none" xmlns="http://www.w3.org/2000/svg">
<path d="M21.875 3.125C21.875 1.39941 20.4756 0 18.75 0H12.5C10.7744 0 9.375 1.39941 9.375 3.125V12.5H21.875V3.125ZM46.875 12.5C45.1494 12.5 43.75 13.8994 43.75 15.625C43.75 17.3506 45.1494 18.75 46.875 18.75C48.6006 18.75 50 17.3506 50 15.625C50 13.8994 48.6006 12.5 46.875 12.5ZM21.875 15.625H9.375C4.19727 15.625 0 19.8223 0 25V46.875C0 48.6006 1.39941 50 3.125 50H28.125C29.8506 50 31.25 48.6006 31.25 46.875V25C31.25 19.8223 27.0527 15.625 21.875 15.625ZM15.625 40.625C11.3105 40.625 7.8125 37.127 7.8125 32.8125C7.8125 28.498 11.3105 25 15.625 25C19.9395 25 23.4375 28.498 23.4375 32.8125C23.4375 37.127 19.9395 40.625 15.625 40.625ZM46.875 9.375C48.6006 9.375 50 7.97559 50 6.25C50 4.52441 48.6006 3.125 46.875 3.125C45.1494 3.125 43.75 4.52441 43.75 6.25C43.75 7.97559 45.1494 9.375 46.875 9.375ZM37.5 12.5C35.7744 12.5 34.375 13.8994 34.375 15.625C34.375 17.3506 35.7744 18.75 37.5 18.75C39.2256 18.75 40.625 17.3506 40.625 15.625C40.625 13.8994 39.2256 12.5 37.5 12.5ZM28.125 3.125C26.3994 3.125 25 4.52441 25 6.25C25 7.97559 26.3994 9.375 28.125 9.375C29.8506 9.375 31.25 7.97559 31.25 6.25C31.25 4.52441 29.8506 3.125 28.125 3.125ZM37.5 3.125C35.7744 3.125 34.375 4.52441 34.375 6.25C34.375 7.97559 35.7744 9.375 37.5 9.375C39.2256 9.375 40.625 7.97559 40.625 6.25C40.625 4.52441 39.2256 3.125 37.5 3.125ZM46.875 21.875C45.1494 21.875 43.75 23.2744 43.75 25C43.75 26.7256 45.1494 28.125 46.875 28.125C48.6006 28.125 50 26.7256 50 25C50 23.2744 48.6006 21.875 46.875 21.875Z" fill="white"/>
</svg>
