<svg width="50" height="50" viewBox="0 0 50 50" fill="none" xmlns="http://www.w3.org/2000/svg">
<path d="M48.75 40.625H29.8078C29.75 42.5596 28.6586 43.75 27.25 43.75H22.5C21.0398 43.75 19.9203 42.0439 19.9398 40.625H1.25C0.5625 40.625 0 41.3281 0 42.1875V43.75C0 47.1875 2.25 50 5 50H45C47.75 50 50 47.1875 50 43.75V42.1875C50 41.3281 49.4375 40.625 48.75 40.625ZM45 4.6875C45 2.10938 43.3125 0 41.25 0H8.75C6.6875 0 5 2.10938 5 4.6875V37.5H45V4.6875ZM40 31.25H10V6.25H40V31.25Z" fill="white"/>
</svg>
