<svg width="50" height="50" viewBox="0 0 50 50" fill="none" xmlns="http://www.w3.org/2000/svg">
<path d="M16.2501 34.375C16.0634 34.375 15.8766 34.4092 15.6985 34.4814C14.686 34.8926 13.6212 35.1562 12.5001 35.1562C11.379 35.1562 10.3142 34.8926 9.30089 34.4814C9.12276 34.4092 8.93682 34.375 8.7501 34.375C3.90168 34.375 -0.025655 39.3047 0.000126209 45.373C0.0110637 47.9375 1.69778 50 3.75012 50H21.2501C23.3024 50 24.9891 47.9375 25.0001 45.373C25.0258 39.3047 21.0985 34.375 16.2501 34.375ZM12.5001 31.25C16.6423 31.25 20.0001 27.0527 20.0001 21.875C20.0001 16.6973 16.6423 12.5 12.5001 12.5C8.35792 12.5 5.00011 16.6973 5.00011 21.875C5.00011 27.0527 8.35792 31.25 12.5001 31.25ZM46.25 0H16.2501C14.1821 0 12.5001 2.17285 12.5001 4.84277V9.375C14.3298 9.375 16.0235 10.0371 17.5001 11.1133V6.25H45V34.375H40V28.125H30.0001V34.375H24.0438C25.536 36.0049 26.6313 38.1572 27.1446 40.625H46.25C48.318 40.625 50 38.4521 50 35.7822V4.84277C50 2.17285 48.318 0 46.25 0Z" fill="white"/>
</svg>
