<svg width="50" height="50" viewBox="0 0 50 50" fill="none" xmlns="http://www.w3.org/2000/svg">
<path d="M48.7493 43.3334H1.2502C0.559586 43.3334 0.000222075 44.0793 0.000222075 45.0001V48.3334C0.000222075 49.2542 0.559586 50 1.2502 50H48.7493C49.4399 50 49.9993 49.2542 49.9993 48.3334V45.0001C49.9993 44.0793 49.4399 43.3334 48.7493 43.3334ZM6.29307 32.2159C6.78369 32.9284 7.47274 33.3325 8.19382 33.3315L18.3921 33.3128C19.1969 33.3113 19.9901 33.0572 20.7076 32.5711L43.4385 17.1911C45.5275 15.7776 47.4001 13.7599 48.6743 11.1173C50.1047 8.15063 50.2602 6.00379 49.6954 4.48714C49.1321 2.96946 47.7626 1.85489 45.1447 1.62781C42.8127 1.42573 40.4932 2.24447 38.4042 3.65695L30.7082 8.86416L13.6226 0.316371C13.4172 0.131851 13.1785 0.0238431 12.9313 0.00351573C12.6841 -0.0168117 12.4373 0.051279 12.2164 0.200748L7.07978 3.67674C6.2462 4.24027 6.04464 5.72358 6.67588 6.64857L18.8803 16.8672L10.8172 22.3233L5.16497 18.5244C4.97023 18.3935 4.75514 18.3255 4.53706 18.3259C4.31898 18.3262 4.10401 18.395 3.90952 18.5265L0.774426 20.6484C-0.0411833 21.2004 -0.256023 22.64 0.339278 23.5733L6.29307 32.2159Z" fill="white"/>
</svg>
