<svg width="50" height="50" viewBox="0 0 50 50" fill="none" xmlns="http://www.w3.org/2000/svg">
<path d="M48.9863 8.99512L26.0977 0.199216C25.3903 -0.0664053 24.6107 -0.0664053 23.9033 0.199216L1.01367 8.99512C0.715919 9.10683 0.459342 9.30674 0.278213 9.56814C0.0970828 9.82954 2.38548e-05 10.14 0 10.458L0 14.0625C0 14.9258 0.699219 15.625 1.5625 15.625H48.4375C49.3008 15.625 50 14.9258 50 14.0625V10.458C50 9.80664 49.5957 9.22363 48.9863 8.99512ZM6.25 18.75V34.375H4.6875C3.82422 34.375 3.125 35.0742 3.125 35.9375V40.625H46.875V35.9375C46.875 35.0742 46.1758 34.375 45.3125 34.375H43.75V18.75H37.5V34.375H28.125V18.75H21.875V34.375H12.5V18.75H6.25ZM48.4375 43.75H1.5625C0.699219 43.75 0 44.4492 0 45.3125V48.4375C0 49.3008 0.699219 50 1.5625 50H48.4375C49.3008 50 50 49.3008 50 48.4375V45.3125C50 44.4492 49.3008 43.75 48.4375 43.75Z" fill="white"/>
</svg>
