<svg width="50" height="50" viewBox="0 0 50 50" fill="none" xmlns="http://www.w3.org/2000/svg">
<path d="M17.5 31.25H20V9.375H17.5C16.1195 9.375 15 10.7744 15 12.5V28.125C15 29.8506 16.1195 31.25 17.5 31.25ZM45 28.125V12.5C45 10.7744 43.8805 9.375 42.5 9.375H40V31.25H42.5C43.8805 31.25 45 29.8506 45 28.125ZM48.75 37.5H10V1.5625C10 0.699219 9.44063 0 8.75 0H1.25C0.559375 0 0 0.699219 0 1.5625V4.6875C0 5.55078 0.559375 6.25 1.25 6.25H5V42.1875C5 43.0508 5.55937 43.75 6.25 43.75H12.7297C12.5898 44.2412 12.5 44.7617 12.5 45.3125C12.5 47.9014 14.1789 50 16.25 50C18.3211 50 20 47.9014 20 45.3125C20 44.7617 19.9102 44.2412 19.7703 43.75H35.2297C35.0898 44.2412 35 44.7617 35 45.3125C35 47.9014 36.6789 50 38.75 50C40.8211 50 42.5 47.9014 42.5 45.3125C42.5 44.7617 42.4102 44.2412 42.2703 43.75H48.75C49.4406 43.75 50 43.0508 50 42.1875V39.0625C50 38.1992 49.4406 37.5 48.75 37.5ZM37.5 9.375V4.6875C37.5 2.09863 35.8211 0 33.75 0H26.25C24.1789 0 22.5 2.09863 22.5 4.6875V31.25H37.5V9.375ZM33.75 9.375H26.25V4.6875H33.75V9.375Z" fill="white"/>
</svg>
